<svg id="Layer_3" height="512" viewBox="0 0 64 64" width="512" xmlns="http://www.w3.org/2000/svg" data-name="Layer 3"><path d="m31.474 17.79 2.526-11.79h9v-4h-12l-2.784 11.693-1.622 6.178z" fill="#a5a5a5"/><path d="m34 27-4 35h-22l-4-35z" fill="#fcedd6"/><path d="m24.24 30.514 7.607-3.514h-27.847l4 35h15.112l-6.312-4.768a5.125 5.125 0 0 1 .553-8.544 7.258 7.258 0 0 0 3.173-8.946 7.259 7.259 0 0 1 3.714-9.228z" fill="#fce4bb"/><path d="m7.08 18.941a7 7 0 0 1 6.92-5.941h4.757a10.242 10.242 0 0 0 7.243-3l3 5-2.653 3.941z" fill="#fce4bb"/><path d="m2 23h34v4h-34z" fill="#cecece"/><path d="m5 23a5 5 0 0 1 5-5h4.384a37.112 37.112 0 0 0 14.616-3l1.172 1.172a9.656 9.656 0 0 1 2.828 6.828z" fill="#fcedd6"/><path d="m8 62h22l.686-6h-23.372z" fill="#cecece"/><path d="m16.039 60h14.19l.457-4h-20.818a6.766 6.766 0 0 0 6.171 4z" fill="#d8d8d8"/><path d="m9 25h27v-2h-30.445a3.982 3.982 0 0 0 3.445 2z" fill="#d8d8d8"/><path d="m9.472 28.786a1.368 1.368 0 0 0 -1.359 1.514l1.611 14.8a1.483 1.483 0 0 0 1.476 1.324 1.484 1.484 0 0 0 1.472-1.667l-1.843-14.773a1.367 1.367 0 0 0 -1.357-1.198z" fill="#fff"/><path d="m10.682 50.905.255 1.42a1.388 1.388 0 0 0 1.405 1.142 1.388 1.388 0 0 0 1.321-1.667l-.295-1.412a1.37 1.37 0 0 0 -1.339-1.088 1.368 1.368 0 0 0 -1.347 1.605z" fill="#fff"/><path d="m45.8 31.429 1.319-.942a18.722 18.722 0 0 1 10.881-3.487l-.787 3.149a6.4 6.4 0 0 1 -6.213 4.851l-5 4.586z" fill="#346664"/><path d="m47 36h-2v-2.4a10.87 10.87 0 0 0 -1.832-6.05l1.664-1.11a12.868 12.868 0 0 1 2.168 7.16z" fill="#3f7372"/><path d="m46 60 1.449.966a6.158 6.158 0 0 0 3.415 1.034 6.158 6.158 0 0 0 4.98-2.536l2.366-3.252a19.82 19.82 0 0 0 3.79-11.656 15.055 15.055 0 0 0 -1.59-6.736 8.719 8.719 0 0 0 -7.8-4.82 8.72 8.72 0 0 0 -6.165 2.554l-.445.446-.446-.446a8.72 8.72 0 0 0 -6.165-2.554 8.719 8.719 0 0 0 -7.8 4.82 15.055 15.055 0 0 0 -1.589 6.736 19.82 19.82 0 0 0 3.79 11.656l2.366 3.252a6.158 6.158 0 0 0 4.98 2.536 6.158 6.158 0 0 0 3.415-1.034z" fill="#db4954"/><path d="m52.612 33a8.72 8.72 0 0 0 -6.165 2.554l-.447.446-.446-.446a8.7 8.7 0 0 0 -13.454 1.405 23.132 23.132 0 0 0 23.033 21.041h1.776l1.3-1.788a19.82 19.82 0 0 0 3.791-11.656 15.055 15.055 0 0 0 -1.59-6.736 8.719 8.719 0 0 0 -7.798-4.82z" fill="#e55c61"/><path d="m56.916 33.017a7.355 7.355 0 0 0 1.267-2.625l.787-3.149a1 1 0 0 0 -.97-1.243 19.617 19.617 0 0 0 -11.464 3.674l-.123.088a12.887 12.887 0 0 0 -1.581-3.317l-1.664 1.11a10.87 10.87 0 0 1 1.832 6.045v.188a9.727 9.727 0 0 0 -10.73-.347l.622-5.441h1.108a1 1 0 0 0 1-1v-4a1 1 0 0 0 -1-1h-2.049a10.526 10.526 0 0 0 -1.418-4.38l2.276-10.62h8.191a1 1 0 0 0 1-1v-4a1 1 0 0 0 -1-1h-12a1 1 0 0 0 -.973.769l-2.216 9.306-.954-1.59a1 1 0 0 0 -1.564-.192 9.182 9.182 0 0 1 -6.536 2.707h-4.757a8.047 8.047 0 0 0 -7.828 6.384 6 6 0 0 0 -2.082 3.616h-2.09a1 1 0 0 0 -1 1v4a1 1 0 0 0 1 1h1.108l3.9 34.114a1 1 0 0 0 .992.886h22a1 1 0 0 0 .994-.886l.815-7.138a21.14 21.14 0 0 0 1.173 1.824l2.365 3.253a7.159 7.159 0 0 0 9.759 1.747l.894-.6.894.6a7.159 7.159 0 0 0 9.759-1.745l2.365-3.255a20.688 20.688 0 0 0 3.982-12.244 16.131 16.131 0 0 0 -1.7-7.183 9.661 9.661 0 0 0 -4.384-4.356zm-9.216-1.717a17.611 17.611 0 0 1 9.009-3.255l-.465 1.861a5.362 5.362 0 0 1 -1.322 2.386 9.824 9.824 0 0 0 -2.311-.292 9.64 9.64 0 0 0 -5.611 1.793v-.193a12.939 12.939 0 0 0 -.12-1.719zm-15.91-28.3h10.21v2h-8a1 1 0 0 0 -.978.791l-2.087 9.736c-.019-.02-.036-.043-.057-.063l-1.084-1.084-.511-.852zm-17.79 11h4.757a11.161 11.161 0 0 0 7.008-2.449l1.773 2.956a35.866 35.866 0 0 1 -13.154 2.493h-4.384a6.031 6.031 0 0 0 -1.262.136 6.04 6.04 0 0 1 5.262-3.136zm-4 5h4.384a37.868 37.868 0 0 0 14.383-2.819l.7.7a8.585 8.585 0 0 1 2.47 5.119h-25.795a4 4 0 0 1 3.858-3zm-7 5h32v2h-32zm5.892 37-.457-4h21.13l-.457 4zm20.9-6h-21.586l-3.085-27h27.758l-.843 7.382a9.767 9.767 0 0 0 -1.34 1.991 16.131 16.131 0 0 0 -1.696 7.183 20.742 20.742 0 0 0 1.2 6.929zm27.608.624-2.365 3.252a5.159 5.159 0 0 1 -7.035 1.258l-1.448-.966a1 1 0 0 0 -1.11 0l-1.442.966a5.159 5.159 0 0 1 -7.033-1.258l-2.367-3.252a18.706 18.706 0 0 1 -3.6-11.068 14.122 14.122 0 0 1 1.485-6.289 7.719 7.719 0 0 1 12.362-2.006l.446.446a1 1 0 0 0 1.414 0l.446-.446a7.719 7.719 0 0 1 12.362 2.006 14.122 14.122 0 0 1 1.485 6.289 18.706 18.706 0 0 1 -3.6 11.068z"/></svg>