<svg id="Layer_3" height="512" viewBox="0 0 64 64" width="512" xmlns="http://www.w3.org/2000/svg" data-name="Layer 3"><path d="m31.474 17.79 2.526-11.79h9v-4h-12l-2.784 11.693-1.622 6.178z" fill="#a5a5a5"/><path d="m34 27-4 35h-22l-4-35z" fill="#fcedd6"/><path d="m24.24 30.514 7.607-3.514h-27.847l4 35h15.112l-6.312-4.768a5.125 5.125 0 0 1 .553-8.544 7.258 7.258 0 0 0 3.173-8.946 7.259 7.259 0 0 1 3.714-9.228z" fill="#fce4bb"/><path d="m7.08 18.941a7 7 0 0 1 6.92-5.941h4.757a10.242 10.242 0 0 0 7.243-3l3 5-2.653 3.941z" fill="#fce4bb"/><path d="m2 23h34v4h-34z" fill="#cecece"/><path d="m5 23a5 5 0 0 1 5-5h4.384a37.112 37.112 0 0 0 14.616-3l1.172 1.172a9.656 9.656 0 0 1 2.828 6.828z" fill="#fcedd6"/><path d="m8 62h22l.686-6h-23.372z" fill="#cecece"/><path d="m16.039 60h14.19l.457-4h-20.818a6.766 6.766 0 0 0 6.171 4z" fill="#d8d8d8"/><path d="m9 25h27v-2h-30.445a3.982 3.982 0 0 0 3.445 2z" fill="#d8d8d8"/><path d="m9.472 28.786a1.368 1.368 0 0 0 -1.359 1.514l1.611 14.8a1.483 1.483 0 0 0 1.476 1.324 1.484 1.484 0 0 0 1.472-1.667l-1.843-14.773a1.367 1.367 0 0 0 -1.357-1.198z" fill="#fff"/><path d="m10.682 50.905.255 1.42a1.388 1.388 0 0 0 1.405 1.142 1.388 1.388 0 0 0 1.321-1.667l-.295-1.412a1.37 1.37 0 0 0 -1.339-1.088 1.368 1.368 0 0 0 -1.347 1.605z" fill="#fff"/><path d="m28 34 3-7h3l3 4-2 9z" fill="#b5774d"/><path d="m32.48 37.84 1.52-6.84-3-4-3 7z" fill="#a5683d"/><path d="m33 34 4-3 6.611 3.606a19.605 19.605 0 0 0 9.389 2.394h6.469a2.531 2.531 0 0 1 2.531 2.531 2.534 2.534 0 0 1 -1.275 2.2 24.838 24.838 0 0 1 -12.318 3.269h-6.407z" fill="#fcd275"/><path d="m57.469 39h-6.469a19.605 19.605 0 0 1 -9.389-2.394l-6.265-4.365-2.346 1.759 9 11h6.407a24.823 24.823 0 0 0 11.51-2.844 2.515 2.515 0 0 0 -2.448-3.156z" fill="#e5b54c"/><path d="m33 34 12.2 10.045a17.342 17.342 0 0 0 11.022 3.955 6.707 6.707 0 0 1 4.742 1.964 3.535 3.535 0 0 1 1.036 2.5 3.536 3.536 0 0 1 -3.536 3.536h-7.464l-18-10z" fill="#fcd275"/><path d="m54.222 50a17.342 17.342 0 0 1 -11.022-3.955l-10.2-10.07v10.025l18 10h7.464a3.5 3.5 0 0 0 1.286-.25 3.5 3.5 0 0 0 -.786-3.786 6.707 6.707 0 0 0 -4.742-1.964z" fill="#e5b54c"/><path d="m28 34h5a17.9 17.9 0 0 0 4.748 12.144l2.218 2.4a16.95 16.95 0 0 0 12.456 5.456 3.578 3.578 0 0 1 3.578 3.578 3.579 3.579 0 0 1 -2.249 3.322 15.384 15.384 0 0 1 -5.714 1.1 16.322 16.322 0 0 1 -10.621-3.929 26.966 26.966 0 0 1 -9.416-20.471z" fill="#e5b54c"/><path d="m56 57.578a3.578 3.578 0 0 0 -3.578-3.578 16.95 16.95 0 0 1 -12.456-5.454l-2.218-2.4a17.9 17.9 0 0 1 -4.748-12.146h-3v.6a26.966 26.966 0 0 0 9.416 20.473 16.322 16.322 0 0 0 10.621 3.927 15.384 15.384 0 0 0 5.714-1.1c.081-.033.155-.077.233-.115 0-.069.016-.137.016-.207z" fill="#fcd275"/><path d="m7.006 62.113a1 1 0 0 0 .994.887h22a1 1 0 0 0 .994-.887l.983-8.6a27.993 27.993 0 0 0 4.788 5.318 17.33 17.33 0 0 0 11.272 4.169 16.312 16.312 0 0 0 6.085-1.172 4.364 4.364 0 0 0 2.82-4.828h1.522a4.535 4.535 0 0 0 3.207-7.742 7.656 7.656 0 0 0 -5.449-2.258 16.353 16.353 0 0 1 -5.822-1.086 25.871 25.871 0 0 0 10.82-3.314 3.531 3.531 0 0 0 -1.751-6.6h-6.469a18.658 18.658 0 0 1 -8.911-2.272l-6.42-3.5-1.669-2.228a1 1 0 0 0 1-1v-4a1 1 0 0 0 -1-1h-2.049a10.526 10.526 0 0 0 -1.418-4.38l2.276-10.62h8.191a1 1 0 0 0 1-1v-4a1 1 0 0 0 -1-1h-12a1 1 0 0 0 -.973.769l-2.216 9.306-.954-1.59a1 1 0 0 0 -1.564-.192 9.182 9.182 0 0 1 -6.536 2.707h-4.757a8.047 8.047 0 0 0 -7.828 6.384 6 6 0 0 0 -2.082 3.616h-2.09a1 1 0 0 0 -1 1v4a1 1 0 0 0 1 1h1.108zm1.886-1.113-.457-4h21.13l-.457 4zm20.9-6h-21.586l-3.085-27h24.363l-2.4 5.606a1 1 0 0 0 -.084.394v3.6a27.947 27.947 0 0 0 3.28 13.14zm2.874-22h-3.15l2.143-5h1.841l2.1 2.8zm20.713 26.971a14.3 14.3 0 0 1 -5.342 1.029 15.331 15.331 0 0 1 -9.97-3.688 25.935 25.935 0 0 1 -9.067-19.712v-2.6h3.026a18.846 18.846 0 0 0 4.987 11.822l2.217 2.4a18.007 18.007 0 0 0 13.192 5.778 2.578 2.578 0 0 1 .957 4.971zm6.878-9.3a2.535 2.535 0 0 1 -1.793 4.329h-2.264a4.573 4.573 0 0 0 -3.778-2 16 16 0 0 1 -11.722-5.133l-2.218-2.4a16.844 16.844 0 0 1 -4.324-9.215l10.4 8.567a18.387 18.387 0 0 0 11.664 4.181 5.669 5.669 0 0 1 4.035 1.672zm-7.257-12.671h6.469a1.531 1.531 0 0 1 .76 2.86 23.874 23.874 0 0 1 -11.823 3.14h-1.606c-.329-.232-.654-.47-.965-.727l-11.217-9.236 2.467-1.851 6.046 3.3a20.675 20.675 0 0 0 9.869 2.514zm-21.21-35h10.21v2h-8a1 1 0 0 0 -.978.791l-2.087 9.736c-.019-.02-.036-.043-.057-.063l-1.084-1.084-.511-.852zm-17.79 11h4.757a11.161 11.161 0 0 0 7.008-2.449l1.773 2.956a35.87 35.87 0 0 1 -13.154 2.493h-4.384a6.031 6.031 0 0 0 -1.262.136 6.04 6.04 0 0 1 5.262-3.136zm-4 5h4.384a37.868 37.868 0 0 0 14.383-2.819l.7.7a8.585 8.585 0 0 1 2.47 5.119h-25.795a4 4 0 0 1 3.858-3zm-7 5h32v2h-32z"/></svg>