<svg id="Layer_3" height="512" viewBox="0 0 64 64" width="512" xmlns="http://www.w3.org/2000/svg" data-name="Layer 3"><path d="m58.77 62a3.228 3.228 0 0 1 -2.724-1.495l-18.939-29.764a7.084 7.084 0 0 1 -1.107-3.805 7.084 7.084 0 0 1 2.076-5.012 6.565 6.565 0 0 1 4.643-1.924 10.009 10.009 0 0 1 9.524 6.922l9.209 28.393a11.205 11.205 0 0 1 .548 3.456 3.229 3.229 0 0 1 -3.23 3.229z" fill="#ed753a"/><g fill="#efa17f"><path d="m43.572 26.819 5.937-4.156a9.973 9.973 0 0 0 -1.687-1.26l-5.4 3.778z"/><path d="m45.444 29.168-6.557 4.371 1.074 1.688 6.592-4.395z"/><path d="m48.412 37.91 6.445-2.929-.621-1.914-6.651 3.023z"/><path d="m50.551 41.105-5.196 2.599 1.079 1.696 5.012-2.505z"/><path d="m53.446 46.895 4.539-2.27-.624-1.924-4.81 2.404z"/><path d="m55.551 50.105-4.645 2.323 1.08 1.697 4.46-2.23z"/><path d="m58.495 56.868 2.92-1.668-.631-1.944-3.282 1.876z"/></g><path d="m31.474 17.814 2.526-11.79h9v-4h-12l-2.784 11.693-1.622 6.178z" fill="#a5a5a5"/><path d="m34 27.024-4 35h-22l-4-35z" fill="#f4ae95"/><path d="m24.24 30.538 7.607-3.514h-27.847l4 35h15.112l-6.312-4.768a5.125 5.125 0 0 1 .553-8.544 7.259 7.259 0 0 0 3.173-8.947 7.257 7.257 0 0 1 3.714-9.227z" fill="#ed9366"/><path d="m7.08 18.965a7 7 0 0 1 6.92-5.941h4.757a10.242 10.242 0 0 0 7.243-3l3 5-2.653 3.941z" fill="#ed9366"/><path d="m2 23.024h34v4h-34z" fill="#cecece"/><path d="m5 23.024a5 5 0 0 1 5-5h4.384a37.112 37.112 0 0 0 14.616-3l1.172 1.176a9.658 9.658 0 0 1 2.828 6.824z" fill="#f4ae95"/><path d="m8 62.024h22l.686-6h-23.372z" fill="#cecece"/><path d="m16.039 60.024h14.19l.457-4h-20.818a6.766 6.766 0 0 0 6.171 4z" fill="#d8d8d8"/><path d="m9 25.024h27v-2h-30.445a3.984 3.984 0 0 0 3.445 2z" fill="#d8d8d8"/><path d="m9.472 28.81a1.367 1.367 0 0 0 -1.359 1.515l1.611 14.8a1.483 1.483 0 0 0 1.476 1.322 1.483 1.483 0 0 0 1.472-1.666l-1.843-14.773a1.367 1.367 0 0 0 -1.357-1.198z" fill="#f2f2f2"/><path d="m10.682 50.929.255 1.419a1.388 1.388 0 0 0 1.405 1.143 1.389 1.389 0 0 0 1.321-1.672l-.295-1.412a1.369 1.369 0 0 0 -1.339-1.088 1.368 1.368 0 0 0 -1.347 1.61z" fill="#f2f2f2"/><path d="m53.2 26.613a10.981 10.981 0 0 0 -10.478-7.613 7.52 7.52 0 0 0 -5.351 2.217 8.245 8.245 0 0 0 -.819.97.97.97 0 0 0 -.552-.187h-2.049a10.526 10.526 0 0 0 -1.418-4.38l2.276-10.62h8.191a1 1 0 0 0 1-1v-4a1 1 0 0 0 -1-1h-12a1 1 0 0 0 -.973.769l-2.216 9.306-.954-1.59a1 1 0 0 0 -1.564-.192 9.182 9.182 0 0 1 -6.536 2.707h-4.757a8.047 8.047 0 0 0 -7.828 6.384 6 6 0 0 0 -2.082 3.616h-2.09a1 1 0 0 0 -1 1v4a1 1 0 0 0 1 1h1.108l3.9 34.114a1 1 0 0 0 .992.886h22a1 1 0 0 0 .994-.886l3.898-34.114h.183a8.072 8.072 0 0 0 1.189 3.278l18.936 29.763a4.229 4.229 0 0 0 7.8-2.27 12.186 12.186 0 0 0 -.595-3.764zm-21.41-23.613h10.21v2h-8a1 1 0 0 0 -.978.791l-2.087 9.736c-.019-.02-.036-.043-.057-.063l-1.084-1.084-.511-.852zm-17.79 11h4.757a11.161 11.161 0 0 0 7.008-2.449l1.773 2.956a35.866 35.866 0 0 1 -13.154 2.493h-4.384a6.031 6.031 0 0 0 -1.262.136 6.04 6.04 0 0 1 5.262-3.136zm-4 5h4.384a37.868 37.868 0 0 0 14.383-2.819l.7.7a8.585 8.585 0 0 1 2.47 5.119h-25.795a4 4 0 0 1 3.858-3zm-7 5h32v2h-32zm5.892 37-.457-4h21.13l-.457 4zm20.9-6h-21.586l-3.085-27h27.758zm28.977 6a2.218 2.218 0 0 1 -1.88-1.032l-4-6.293 3.561-1.78-.894-1.79-3.746 1.874-4.472-7.028 4.109-2.051-.894-1.79-4.3 2.149-5.453-8.587 5.76-3.84-1.11-1.664-5.724 3.817-1.769-2.78a6.089 6.089 0 0 1 .831-7.574 5.532 5.532 0 0 1 3.933-1.631 9.011 9.011 0 0 1 4.2 1.035l-4.494 3.146 1.147 1.638 5.1-3.572a8.994 8.994 0 0 1 2.616 3.983l2.028 6.253-5.732 2.607.828 1.82 5.528-2.51 2.516 7.756-3.905 1.952.894 1.79 3.635-1.817 2.818 8.682-2.4 1.369.992 1.736 2.03-1.16a10.172 10.172 0 0 1 .478 3.063 2.232 2.232 0 0 1 -2.229 2.229z"/></svg>