<svg id="Layer_3" height="512" viewBox="0 0 64 64" width="512" xmlns="http://www.w3.org/2000/svg" data-name="Layer 3"><path d="m31.474 17.79 2.526-11.79h9v-4h-12l-2.784 11.693-1.622 6.178z" fill="#a5a5a5"/><path d="m34 27-4 35h-22l-4-35z" fill="#e57c86"/><path d="m24.24 30.514 7.607-3.514h-27.847l4 35h15.112l-6.312-4.768a5.125 5.125 0 0 1 .553-8.544 7.258 7.258 0 0 0 3.173-8.946 7.259 7.259 0 0 1 3.714-9.228z" fill="#ea6872"/><path d="m7.08 18.941a7 7 0 0 1 6.92-5.941h4.757a10.242 10.242 0 0 0 7.243-3l3 5-2.653 3.941z" fill="#ea6872"/><path d="m2 23h34v4h-34z" fill="#cecece"/><path d="m5 23a5 5 0 0 1 5-5h4.384a37.112 37.112 0 0 0 14.616-3l1.172 1.172a9.656 9.656 0 0 1 2.828 6.828z" fill="#ea929f"/><path d="m8 62h22l.686-6h-23.372z" fill="#cecece"/><path d="m16.039 60h14.19l.457-4h-20.818a6.766 6.766 0 0 0 6.171 4z" fill="#d8d8d8"/><path d="m9 25h27v-2h-30.445a3.982 3.982 0 0 0 3.445 2z" fill="#d8d8d8"/><path d="m9.472 28.786a1.368 1.368 0 0 0 -1.359 1.514l1.611 14.8a1.483 1.483 0 0 0 1.476 1.324 1.484 1.484 0 0 0 1.472-1.667l-1.843-14.773a1.367 1.367 0 0 0 -1.357-1.198z" fill="#f2f2f2"/><path d="m10.682 50.905.255 1.42a1.388 1.388 0 0 0 1.405 1.142 1.388 1.388 0 0 0 1.321-1.667l-.295-1.412a1.37 1.37 0 0 0 -1.339-1.088 1.368 1.368 0 0 0 -1.347 1.605z" fill="#f2f2f2"/><g fill="#db4954"><path d="m52 49.961.652-.978a4.541 4.541 0 0 1 3.778-2.022 4.539 4.539 0 0 1 3.892 2.2 11.771 11.771 0 0 1 1.678 6.061 6.6 6.6 0 0 1 -3.207 5.663 7.55 7.55 0 0 1 -3.885 1.076h-2.993a6.916 6.916 0 0 1 -3.558-.986 6.915 6.915 0 0 1 -3.357-5.93v-.781a4.3 4.3 0 0 1 .723-2.387 4.3 4.3 0 0 1 3.58-1.916z"/><path d="m55.707 50.254a1 1 0 0 1 .707-.293h.292a2.057 2.057 0 0 1 1.854 1.167 2.056 2.056 0 0 1 -.023 1.824l-.627 1.228a3.269 3.269 0 0 1 -2.91 1.781l.986-1.479a2.229 2.229 0 0 0 -.279-2.814 1 1 0 0 1 0-1.414z"/><path d="m40 49.961-.652-.978a4.541 4.541 0 0 0 -3.778-2.022 4.539 4.539 0 0 0 -3.892 2.2 11.771 11.771 0 0 0 -1.678 6.061 6.6 6.6 0 0 0 3.207 5.663 7.55 7.55 0 0 0 3.885 1.076h2.993a6.916 6.916 0 0 0 3.558-.986 6.915 6.915 0 0 0 3.357-5.93v-.781a4.3 4.3 0 0 0 -.723-2.387 4.3 4.3 0 0 0 -3.58-1.916z"/></g><path d="m53 49.961h-2a30.454 30.454 0 0 0 -3.709-14.544l-1.291-2.368-1.291 2.368a30.454 30.454 0 0 0 -3.709 14.544h-2a32.472 32.472 0 0 1 3.953-15.5l2.169-3.977a1.04 1.04 0 0 1 1.756 0l2.169 3.977a32.472 32.472 0 0 1 3.953 15.5z" fill="#a0174e"/><path d="m42.7 49.961h-2.7l-.652-.979a4.466 4.466 0 0 0 -4.585-1.94c-.028.042-.06.08-.085.123a11.77 11.77 0 0 0 -1.678 6.056 6.6 6.6 0 0 0 3.207 5.664 7.549 7.549 0 0 0 3.884 1.076h2.994a6.914 6.914 0 0 0 2.2-.374 6.907 6.907 0 0 0 1.715-4.542v-.781a4.3 4.3 0 0 0 -4.3-4.3z" fill="#e55c61"/><path d="m41.707 53.254a1 1 0 0 1 .707-.293h.292a2.057 2.057 0 0 1 1.854 1.167 2.056 2.056 0 0 1 -.023 1.824l-.627 1.228a3.269 3.269 0 0 1 -2.91 1.781l.986-1.479a2.229 2.229 0 0 0 -.279-2.814 1 1 0 0 1 0-1.414z" fill="#db4954"/><path d="m60.322 49.165a4.54 4.54 0 0 0 -7.67-.183l-.652.979h-2.7a4.282 4.282 0 0 0 -1.293.207 7.988 7.988 0 0 0 13.993 5.074v-.021a11.77 11.77 0 0 0 -1.678-6.056z" fill="#e55c61"/><path d="m55 51.74a1 1 0 0 1 .232-.729l.188-.223a2.056 2.056 0 0 1 2.087-.665 2.059 2.059 0 0 1 1.38 1.194l.534 1.271a3.27 3.27 0 0 1 -.515 3.373l-.495-1.707a2.231 2.231 0 0 0 -2.331-1.6 1 1 0 0 1 -1.08-.914z" fill="#db4954"/><path d="m56.43 46a5.522 5.522 0 0 0 -3.558 1.3 32.482 32.482 0 0 0 -3.825-12.8l-2.169-3.977a1.04 1.04 0 0 0 -1.756 0l-2.169 3.977a32.482 32.482 0 0 0 -3.825 12.8 5.49 5.49 0 0 0 -6.383-.516l2.147-18.784h1.108a1 1 0 0 0 1-1v-4a1 1 0 0 0 -1-1h-2.049a10.535 10.535 0 0 0 -1.418-4.381l2.276-10.619h8.191a1 1 0 0 0 1-1v-4a1 1 0 0 0 -1-1h-12a1 1 0 0 0 -.973.769l-2.216 9.306-.954-1.59a1 1 0 0 0 -1.564-.192 9.18 9.18 0 0 1 -6.535 2.707h-4.758a8.049 8.049 0 0 0 -7.828 6.384 6 6 0 0 0 -2.082 3.616h-2.09a1 1 0 0 0 -1 1v4a1 1 0 0 0 1 1h1.108l3.9 34.114a1 1 0 0 0 .992.886h22a1 1 0 0 0 .993-.886l.176-1.54a7.581 7.581 0 0 0 1.522 1.207 8.553 8.553 0 0 0 4.401 1.219h2.993a7.919 7.919 0 0 0 4.072-1.128 7.784 7.784 0 0 0 1.843-1.554 7.8 7.8 0 0 0 5.915 2.682h2.993a8.553 8.553 0 0 0 4.4-1.219 7.639 7.639 0 0 0 3.692-6.52 12.787 12.787 0 0 0 -1.82-6.572 5.569 5.569 0 0 0 -4.75-2.689zm-11.721-10.544 1.291-2.368 1.291 2.368a30.445 30.445 0 0 1 3.677 13.544h-1.668a5.284 5.284 0 0 0 -3.3 1.162 5.286 5.286 0 0 0 -3.3-1.162h-1.668a30.445 30.445 0 0 1 3.677-13.544zm-12.919-32.456h10.21v2h-8a1 1 0 0 0 -.978.791l-2.086 9.736c-.02-.02-.037-.042-.057-.063l-1.085-1.084-.511-.852zm-17.79 11h4.758a11.162 11.162 0 0 0 7.007-2.449l1.773 2.957a35.886 35.886 0 0 1 -13.154 2.492h-4.384a6.048 6.048 0 0 0 -1.263.136 6.043 6.043 0 0 1 5.263-3.136zm-4 5h4.384a37.873 37.873 0 0 0 14.384-2.819l.7.7a8.592 8.592 0 0 1 2.469 5.119h-25.795a4 4 0 0 1 3.858-3zm-7 5h32v2h-32zm2.12 4h27.76l-2.444 21.383a12.768 12.768 0 0 0 -1.427 5.617h-20.802zm3.773 33-.458-4h20.78a7.819 7.819 0 0 0 .254.84l-.362 3.16zm34.236-.843a5.931 5.931 0 0 1 -3.044.843h-2.993a6.55 6.55 0 0 1 -3.371-.934 5.629 5.629 0 0 1 -2.721-4.805 10.777 10.777 0 0 1 1.535-5.542 3.54 3.54 0 0 1 5.981-.143l.652.979a1 1 0 0 0 .832.445h2.7a3.3 3.3 0 0 1 3.3 3.3v.781a5.949 5.949 0 0 1 -2.871 5.076zm15.15-.091a6.55 6.55 0 0 1 -3.371.934h-2.993a5.869 5.869 0 0 1 -4.756-2.413 7.889 7.889 0 0 0 .841-3.5v-.787a5.267 5.267 0 0 0 -.709-2.621 3.3 3.3 0 0 1 2.009-.679h2.7a1 1 0 0 0 .832-.445l.652-.979a3.54 3.54 0 0 1 5.981.143 10.777 10.777 0 0 1 1.535 5.542 5.629 5.629 0 0 1 -2.721 4.805z"/></svg>