<svg id="Layer_3" height="512" viewBox="0 0 64 64" width="512" xmlns="http://www.w3.org/2000/svg" data-name="Layer 3"><path d="m49.929 32.371-1.858-.742 1.342-3.355a8.2 8.2 0 0 0 -1.213-8.174l-1.983-2.479 1.562-1.25 1.984 2.48a10.206 10.206 0 0 1 1.506 10.162z" fill="#a5683d"/><circle cx="44" cy="34" fill="#604175" r="4"/><circle cx="55" cy="34" fill="#6f5384" r="4"/><circle cx="49" cy="34" fill="#533165" r="4"/><circle cx="49" cy="58" fill="#533165" r="4"/><circle cx="52" cy="52" fill="#604175" r="4"/><circle cx="45" cy="52" fill="#6f5384" r="4"/><circle cx="43" cy="46" fill="#604175" r="4"/><circle cx="41" cy="40" fill="#533165" r="4"/><path d="m54.685 42.239a3.984 3.984 0 1 0 4.63 1.522 3.934 3.934 0 0 1 -4.63-1.522z" fill="#6f5384"/><path d="m58 36a4 4 0 1 0 0 8 4.059 4.059 0 0 0 4-4 4 4 0 0 0 -4-4z" fill="#533165"/><circle cx="49" cy="46" fill="#533165" r="4"/><circle cx="53" cy="40" fill="#604175" r="4"/><circle cx="46" cy="40" fill="#6f5384" r="4"/><path d="m31.474 17.79 2.526-11.79h9v-4h-12l-2.784 11.693-1.622 6.178z" fill="#a5a5a5"/><path d="m34 27-4 35h-22l-4-35z" fill="#826899"/><path d="m24.24 30.514 7.607-3.514h-27.847l4 35h15.112l-6.312-4.768a5.125 5.125 0 0 1 .553-8.544 7.258 7.258 0 0 0 3.173-8.946 7.259 7.259 0 0 1 3.714-9.228z" fill="#6f5384"/><path d="m7.08 18.941a7 7 0 0 1 6.92-5.941h4.757a10.242 10.242 0 0 0 7.243-3l3 5-2.653 3.941z" fill="#6f5384"/><path d="m2 23h34v4h-34z" fill="#cecece"/><path d="m5 23a5 5 0 0 1 5-5h4.384a37.112 37.112 0 0 0 14.616-3l1.172 1.172a9.656 9.656 0 0 1 2.828 6.828z" fill="#826899"/><path d="m8 62h22l.686-6h-23.372z" fill="#cecece"/><path d="m16.039 60h14.19l.457-4h-20.818a6.766 6.766 0 0 0 6.171 4z" fill="#d8d8d8"/><path d="m9 25h27v-2h-30.445a3.982 3.982 0 0 0 3.445 2z" fill="#d8d8d8"/><path d="m9.472 28.786a1.368 1.368 0 0 0 -1.359 1.514l1.611 14.8a1.483 1.483 0 0 0 1.476 1.324 1.484 1.484 0 0 0 1.472-1.667l-1.843-14.773a1.367 1.367 0 0 0 -1.357-1.198z" fill="#fff"/><path d="m10.682 50.905.255 1.42a1.388 1.388 0 0 0 1.405 1.142 1.388 1.388 0 0 0 1.321-1.667l-.295-1.412a1.37 1.37 0 0 0 -1.339-1.088 1.368 1.368 0 0 0 -1.347 1.605z" fill="#fff"/><path d="m2 28h1.108l3.9 34.113a1 1 0 0 0 .992.887h22a1 1 0 0 0 .993-.887l3.899-34.113h1.108a1 1 0 0 0 1-1v-4a1 1 0 0 0 -1-1h-2.049a10.535 10.535 0 0 0 -1.418-4.381l2.276-10.619h8.191a1 1 0 0 0 1-1v-4a1 1 0 0 0 -1-1h-12a1 1 0 0 0 -.973.769l-2.216 9.306-.954-1.59a1 1 0 0 0 -1.564-.192 9.18 9.18 0 0 1 -6.535 2.707h-4.758a8.049 8.049 0 0 0 -7.828 6.384 6 6 0 0 0 -2.082 3.616h-2.09a1 1 0 0 0 -1 1v4a1 1 0 0 0 1 1zm6.893 33-.458-4h21.13l-.458 4zm20.9-6h-21.586l-3.087-27h27.76zm2-52h10.207v2h-8a1 1 0 0 0 -.978.791l-2.086 9.736c-.02-.02-.037-.042-.057-.063l-1.085-1.084-.511-.852zm-17.793 11h4.758a11.162 11.162 0 0 0 7.007-2.449l1.773 2.957a35.886 35.886 0 0 1 -13.154 2.492h-4.384a6.048 6.048 0 0 0 -1.263.136 6.043 6.043 0 0 1 5.263-3.136zm-4 5h4.384a37.873 37.873 0 0 0 14.384-2.819l.7.7a8.592 8.592 0 0 1 2.469 5.119h-25.795a4 4 0 0 1 3.858-3zm-7 5h32v2h-32z"/><path d="m59.812 35.352a5 5 0 0 0 -7.826-5.338 4.918 4.918 0 0 0 -.9-.542l.183-.455a10.206 10.206 0 0 0 -1.506-10.162l-1.984-2.48-1.562 1.25 1.983 2.475a8.2 8.2 0 0 1 1.211 8.17l-.295.738c-.04 0-.078-.012-.118-.012a4.934 4.934 0 0 0 -2.485.688 4.992 4.992 0 0 0 -7.327 5.664 4.977 4.977 0 0 0 -.847 8.866 4.934 4.934 0 0 0 2 6 4.957 4.957 0 0 0 3.789 6.694 5 5 0 1 0 9.681-.264 4.928 4.928 0 0 0 3.059-5.736 4.954 4.954 0 0 0 3.788-6.694 4.977 4.977 0 0 0 -.846-8.866zm-1.812-1.352a3 3 0 0 1 -.2 1.018 4.992 4.992 0 0 0 -2.317.668 4.934 4.934 0 0 0 -1.612-.6 5.026 5.026 0 0 0 .129-1.086 4.94 4.94 0 0 0 -.681-2.473 2.987 2.987 0 0 1 4.681 2.473zm-9 15a2.947 2.947 0 0 1 -2.8-4.02 4.98 4.98 0 0 0 3.3-1.418 4.989 4.989 0 0 0 2.235 1.271 2.945 2.945 0 0 1 -2.735 4.167zm-6-9a3 3 0 1 1 3 3 3 3 0 0 1 -3-3zm10 3a2.983 2.983 0 0 1 -2.354-1.183 4.84 4.84 0 0 0 0-3.634 2.989 2.989 0 1 1 2.354 4.817zm-1-9a2.993 2.993 0 0 1 -.264 1.167 4.992 4.992 0 0 0 -2.236 1.271 4.98 4.98 0 0 0 -3.3-1.418 2.99 2.99 0 1 1 5.8-1.02zm-8-3a2.988 2.988 0 0 1 .906.145 4.964 4.964 0 0 0 -.906 2.855 5.037 5.037 0 0 0 .188 1.352 4.981 4.981 0 0 0 -.674.336 5.007 5.007 0 0 0 -2.313-.671 2.947 2.947 0 0 1 2.799-4.017zm-3 6a2.978 2.978 0 0 1 .906.145 4.951 4.951 0 0 0 0 5.71 3 3 0 1 1 -.906-5.855zm-.791 7.92a4.908 4.908 0 0 0 .791.08 5 5 0 0 0 2.515-.688 5.028 5.028 0 0 0 .673.336 5.037 5.037 0 0 0 -.188 1.352 4.94 4.94 0 0 0 .681 2.473 2.985 2.985 0 0 1 -4.472-3.553zm1.791 7.08a2.981 2.981 0 0 1 .209-1.08 4.908 4.908 0 0 0 .791.08 5 5 0 0 0 3.014-1.014 4.965 4.965 0 0 0 1.714.83 2.963 2.963 0 0 1 .272 1.184 3 3 0 0 1 -6 0zm7 9a3 3 0 0 1 -3-3 2.971 2.971 0 0 1 .272-1.184 5 5 0 0 0 2.228-1.254 4.992 4.992 0 0 0 3.3 1.425 2.969 2.969 0 0 1 .2 1.013 3 3 0 0 1 -3 3zm3-6a2.983 2.983 0 0 1 -2.354-1.183 4.953 4.953 0 0 0 .354-1.817 5.019 5.019 0 0 0 -.13-1.088 4.984 4.984 0 0 0 2.63-1.35 4.992 4.992 0 0 0 2.236 1.271 2.947 2.947 0 0 1 -2.736 4.167zm7-9a2.978 2.978 0 0 1 -5.354 1.817 4.953 4.953 0 0 0 .354-1.817 5.026 5.026 0 0 0 -.13-1.088 4.945 4.945 0 0 0 1.616-.6 5 5 0 0 0 2.514.688 4.908 4.908 0 0 0 .791-.08 2.981 2.981 0 0 1 .209 1.08zm-1-3a2.978 2.978 0 0 1 -.906-.145 4.952 4.952 0 0 0 0-5.709 2.972 2.972 0 0 1 .906-.146 3 3 0 0 1 0 6z"/></svg>