<svg id="Layer_3" height="512" viewBox="0 0 64 64" width="512" xmlns="http://www.w3.org/2000/svg" data-name="Layer 3"><path d="m31.474 17.79 2.526-11.79h9v-4h-12l-2.784 11.693-1.622 6.178z" fill="#a5a5a5"/><path d="m34 27-4 35h-22l-4-35z" fill="#fcedd6"/><path d="m24.24 30.514 7.607-3.514h-27.847l4 35h15.112l-6.312-4.768a5.125 5.125 0 0 1 .553-8.544 7.258 7.258 0 0 0 3.173-8.946 7.259 7.259 0 0 1 3.714-9.228z" fill="#fce4bb"/><path d="m7.08 18.941a7 7 0 0 1 6.92-5.941h4.757a10.242 10.242 0 0 0 7.243-3l3 5-2.653 3.941z" fill="#fce4bb"/><path d="m2 23h34v4h-34z" fill="#cecece"/><path d="m5 23a5 5 0 0 1 5-5h4.384a37.112 37.112 0 0 0 14.616-3l1.172 1.172a9.656 9.656 0 0 1 2.828 6.828z" fill="#fcedd6"/><path d="m8 62h22l.686-6h-23.372z" fill="#cecece"/><path d="m16.039 60h14.19l.457-4h-20.818a6.766 6.766 0 0 0 6.171 4z" fill="#d8d8d8"/><path d="m9 25h27v-2h-30.445a3.982 3.982 0 0 0 3.445 2z" fill="#d8d8d8"/><path d="m9.472 28.786a1.368 1.368 0 0 0 -1.359 1.514l1.611 14.8a1.483 1.483 0 0 0 1.476 1.324 1.484 1.484 0 0 0 1.472-1.667l-1.843-14.773a1.367 1.367 0 0 0 -1.357-1.198z" fill="#fff"/><path d="m10.682 50.905.255 1.42a1.388 1.388 0 0 0 1.405 1.142 1.388 1.388 0 0 0 1.321-1.667l-.295-1.412a1.37 1.37 0 0 0 -1.339-1.088 1.368 1.368 0 0 0 -1.347 1.605z" fill="#fff"/><path d="m45.8 31.429 1.319-.942a18.722 18.722 0 0 1 10.881-3.487l-.787 3.149a6.4 6.4 0 0 1 -6.213 4.851l-5.2 4.5z" fill="#346664"/><path d="m47 36h-2v-2.4a10.878 10.878 0 0 0 -1.832-6.05l1.664-1.11a12.873 12.873 0 0 1 2.168 7.16z" fill="#4e8986"/><path d="m46 60 1.449.966a6.158 6.158 0 0 0 3.415 1.034 6.158 6.158 0 0 0 4.98-2.536l2.366-3.252a19.82 19.82 0 0 0 3.79-11.656 15.055 15.055 0 0 0 -1.59-6.736 8.719 8.719 0 0 0 -7.8-4.82 8.72 8.72 0 0 0 -6.165 2.554l-.445.446-.446-.446a8.72 8.72 0 0 0 -6.165-2.554 8.719 8.719 0 0 0 -7.8 4.82 15.055 15.055 0 0 0 -1.589 6.736 19.82 19.82 0 0 0 3.79 11.656l2.366 3.252a6.158 6.158 0 0 0 4.98 2.536 6.158 6.158 0 0 0 3.415-1.034z" fill="#a2c15d"/><path d="m52.611 33a8.72 8.72 0 0 0 -6.165 2.554l-.446.446-.446-.446a8.7 8.7 0 0 0 -12.392.081 19.219 19.219 0 0 0 -.162 2.365 18.955 18.955 0 0 0 25.449 17.853 19.806 19.806 0 0 0 3.551-11.297 15.055 15.055 0 0 0 -1.59-6.736 8.719 8.719 0 0 0 -7.799-4.82z" fill="#afc981"/><path d="m45 60-16.7.316-9.3-13.316 32 6a6.937 6.937 0 0 1 -4.743 6.581z" fill="#fce4bb"/><path d="m45 60h-1.189a30.177 30.177 0 0 1 -24.811-13 14.565 14.565 0 0 0 5.466 11.373 16.553 16.553 0 0 0 10.34 3.627 25.839 25.839 0 0 0 8.171-1.326z" fill="#a2c15d"/><path d="m28.834 48.844c.532 2.027 3.109 3.935 6.482 4.588 3.423.662 6.565-.181 7.778-1.914z" fill="#fcd275"/><path d="m45 60h-1.189a30.177 30.177 0 0 1 -24.811-13 14.565 14.565 0 0 0 5.466 11.373 16.553 16.553 0 0 0 10.34 3.627 25.839 25.839 0 0 0 8.171-1.326z" fill="#a2c15d"/><path d="m56.916 33.017a7.355 7.355 0 0 0 1.267-2.625l.787-3.149a1 1 0 0 0 -.97-1.243 19.622 19.622 0 0 0 -11.465 3.674l-.123.088a12.9 12.9 0 0 0 -1.58-3.317l-1.664 1.11a10.878 10.878 0 0 1 1.832 6.045v.188a9.726 9.726 0 0 0 -10.731-.346l.623-5.442h1.108a1 1 0 0 0 1-1v-4a1 1 0 0 0 -1-1h-2.049a10.535 10.535 0 0 0 -1.418-4.381l2.276-10.619h8.191a1 1 0 0 0 1-1v-4a1 1 0 0 0 -1-1h-12a1 1 0 0 0 -.973.769l-2.216 9.306-.954-1.59a1 1 0 0 0 -.735-.478 1.014 1.014 0 0 0 -.829.286 9.18 9.18 0 0 1 -6.535 2.707h-4.758a8.049 8.049 0 0 0 -7.828 6.384 6 6 0 0 0 -2.082 3.616h-2.09a1 1 0 0 0 -1 1v4a1 1 0 0 0 1 1h1.108l3.9 34.114a1 1 0 0 0 .992.886h22a.993.993 0 0 0 .836-.471 17.515 17.515 0 0 0 3.971.471 26.792 26.792 0 0 0 8.487-1.377l1.756-.586.058.044a9.656 9.656 0 0 0 5.756 1.919 7.181 7.181 0 0 0 5.789-2.947l2.366-3.253a20.694 20.694 0 0 0 3.981-12.244 16.137 16.137 0 0 0 -1.7-7.183 9.668 9.668 0 0 0 -4.384-4.356zm-9.216-1.717a17.621 17.621 0 0 1 9.01-3.255l-.465 1.861a5.352 5.352 0 0 1 -1.322 2.386 9.824 9.824 0 0 0 -2.312-.292 9.64 9.64 0 0 0 -5.611 1.793v-.193a12.939 12.939 0 0 0 -.12-1.719zm-15.91-28.3h10.21v2h-8a1 1 0 0 0 -.978.791l-2.086 9.736c-.02-.02-.037-.042-.057-.063l-1.085-1.084-.511-.852zm-17.79 11h4.758a11.162 11.162 0 0 0 7.007-2.449l1.773 2.957a35.886 35.886 0 0 1 -13.154 2.492h-4.384a6.048 6.048 0 0 0 -1.263.136 6.043 6.043 0 0 1 5.263-3.136zm-4 5h4.384a37.873 37.873 0 0 0 14.384-2.819l.7.7a8.592 8.592 0 0 1 2.469 5.119h-25.795a4 4 0 0 1 3.858-3zm-7 5h32v2h-32zm2.12 4h27.76l-.844 7.382a9.771 9.771 0 0 0 -1.336 1.991 16.137 16.137 0 0 0 -1.7 7.183 20.956 20.956 0 0 0 .278 3.354l-10.093-1.893a1 1 0 0 0 -1.185.983 15.5 15.5 0 0 0 2.22 8h-12.013zm40.82 30.632-1.1.368h-1.028a29.174 29.174 0 0 1 -22.429-10.536l28.56 5.355a5.926 5.926 0 0 1 -4.003 4.813zm-37.047 2.368-.458-4h13.221a15.675 15.675 0 0 0 2.185 2.154 17.5 17.5 0 0 0 2.859 1.846zm16.2-3.408a13.483 13.483 0 0 1 -4.626-7.11 31.181 31.181 0 0 0 18.6 10.141 24.869 24.869 0 0 1 -4.26.377 15.608 15.608 0 0 1 -9.716-3.408zm32.307-1.968-2.365 3.252a5.175 5.175 0 0 1 -4.171 2.124 7.642 7.642 0 0 1 -3.437-.832 7.912 7.912 0 0 0 4.573-7.168 1 1 0 0 0 -.815-.983l-19.8-3.712a18.906 18.906 0 0 1 -.385-3.749 14.142 14.142 0 0 1 1.484-6.289 7.72 7.72 0 0 1 12.363-2.006l.446.446a1 1 0 0 0 1.414 0l.446-.446a7.72 7.72 0 0 1 12.363 2.006 14.142 14.142 0 0 1 1.484 6.289 18.7 18.7 0 0 1 -3.6 11.068z"/></svg>