<svg id="Layer_3" height="512" viewBox="0 0 64 64" width="512" xmlns="http://www.w3.org/2000/svg" data-name="Layer 3"><path d="m34.373 17.79 2.526-11.79h9v-4h-12l-2.784 11.693-1.621 6.178z" fill="#a5a5a5"/><path d="m36.899 27-4 35h-22l-4-35z" fill="#d0e0a6"/><path d="m27.139 30.514 7.608-3.514h-27.847l4 35h15.111l-6.311-4.768a5.125 5.125 0 0 1 .553-8.544 7.257 7.257 0 0 0 3.173-8.946 7.261 7.261 0 0 1 3.713-9.228z" fill="#bed390"/><path d="m9.979 18.941a7 7 0 0 1 6.921-5.941h4.758a10.24 10.24 0 0 0 7.242-3l3 5-2.653 3.941z" fill="#bed390"/><path d="m4.899 23h34v4h-34z" fill="#cecece"/><path d="m7.9 23a5 5 0 0 1 5-5h4.385a37.107 37.107 0 0 0 14.615-3l1.172 1.172a9.656 9.656 0 0 1 2.828 6.828z" fill="#d0e0a6"/><path d="m10.899 62h22l.686-6h-23.371z" fill="#cecece"/><path d="m18.938 60h14.19l.457-4h-20.818a6.766 6.766 0 0 0 6.171 4z" fill="#d8d8d8"/><path d="m11.9 25h27v-2h-30.446a3.983 3.983 0 0 0 3.446 2z" fill="#d8d8d8"/><path d="m12.372 28.786a1.368 1.368 0 0 0 -1.36 1.515l1.611 14.8a1.484 1.484 0 0 0 1.477 1.323 1.484 1.484 0 0 0 1.471-1.667l-1.84-14.773a1.369 1.369 0 0 0 -1.359-1.198z" fill="#f2f2f2"/><path d="m13.582 50.905.254 1.42a1.39 1.39 0 0 0 1.4 1.142 1.389 1.389 0 0 0 1.327-1.667l-.3-1.412a1.368 1.368 0 0 0 -1.335-1.088 1.368 1.368 0 0 0 -1.346 1.605z" fill="#f2f2f2"/><path d="m42 47h-13a15 15 0 0 0 30 0h-13a2 2 0 0 1 -4 0z" fill="#a2c15d"/><path d="m44 58a11 11 0 0 0 11-11h-9a2 2 0 0 1 -4 0h-9a11 11 0 0 0 11 11z" fill="#bed390"/><path d="m52.451 54.037-6.525-6.525a1.99 1.99 0 0 1 -3.852 0l-6.525 6.525q.316.381.665.733l.016.016q.351.349.733.665l6.037-6.037v8.536c.33.029.662.05 1 .05s.67-.021 1-.05v-8.536l6.037 6.037a10.982 10.982 0 0 0 1.414-1.414z" fill="#e0e8c5"/><path d="m5 28h1.108l3.9 34.114a1 1 0 0 0 .992.886h22a1 1 0 0 0 .994-.886l.279-2.44a15.971 15.971 0 0 0 25.727-12.674 1 1 0 0 0 -1-1h-13a1 1 0 0 0 -1 1 1 1 0 0 1 -2 0 1 1 0 0 0 -1-1h-6.165l2.057-18h1.108a1 1 0 0 0 1-1v-4a1 1 0 0 0 -1-1h-2.049a10.526 10.526 0 0 0 -1.418-4.38l2.276-10.62h8.191a1 1 0 0 0 1-1v-4a1 1 0 0 0 -1-1h-12a1 1 0 0 0 -.973.769l-2.216 9.306-.954-1.59a1 1 0 0 0 -1.564-.192 9.182 9.182 0 0 1 -6.536 2.707h-4.757a8.047 8.047 0 0 0 -7.828 6.384 6 6 0 0 0 -2.082 3.616h-2.09a1 1 0 0 0 -1 1v4a1 1 0 0 0 1 1zm6.892 33-.457-4h20.1c.29.36.6.7.916 1.038l-.343 2.962zm32.108 0a14.02 14.02 0 0 1 -13.965-13h2.016a11.99 11.99 0 0 0 23.9 0h2.016a14.02 14.02 0 0 1 -13.967 13zm1-11.176a2.935 2.935 0 0 0 .289-.121l5.035 5.035a9.945 9.945 0 0 1 -5.324 2.211zm-2.289-.124a2.935 2.935 0 0 0 .289.121v7.125a9.945 9.945 0 0 1 -5.324-2.211zm11.238-1.7a9.945 9.945 0 0 1 -2.211 5.324l-5.038-5.037c.045-.094.092-.188.128-.287zm-12.65.287-5.037 5.037a9.945 9.945 0 0 1 -2.211-5.324h7.12c.036.1.083.193.129.287zm-7.477-2.287h-4.822a1 1 0 0 0 -1 1 15.883 15.883 0 0 0 2.165 8h-18.959l-3.085-27h27.758zm.968-43h10.21v2h-8a1 1 0 0 0 -.978.791l-2.087 9.736c-.019-.02-.036-.043-.057-.063l-1.084-1.084-.511-.852zm-17.79 11h4.757a11.161 11.161 0 0 0 7.008-2.449l1.773 2.956a35.866 35.866 0 0 1 -13.154 2.493h-4.384a6.031 6.031 0 0 0 -1.262.136 6.04 6.04 0 0 1 5.262-3.136zm-4 5h4.384a37.868 37.868 0 0 0 14.383-2.819l.7.7a8.585 8.585 0 0 1 2.47 5.119h-25.795a4 4 0 0 1 3.858-3zm-7 5h32v2h-32z"/></svg>