<svg id="Layer_3" height="512" viewBox="0 0 64 64" width="512" xmlns="http://www.w3.org/2000/svg" data-name="Layer 3"><path d="m51.079 29.391c-.06-.144-6-14-6-14l1.838-.788c6.083 14.191 6.083 14.191 6.083 14.397z" fill="#3f7372"/><path d="m52 26 .185-2.036a9.856 9.856 0 0 1 9.815-8.964 10.752 10.752 0 0 1 -7.663 10.3z" fill="#346664"/><path d="m51.528 26h-1.153a11.19 11.19 0 0 0 -4.545.965 11.5 11.5 0 0 0 -6.83 10.509 11.487 11.487 0 0 0 1.059 4.819l2.741 5.94a23.912 23.912 0 0 1 2.2 10.017 3.75 3.75 0 0 0 3.75 3.75 3.75 3.75 0 0 0 2.25-.75 27.5 27.5 0 0 0 11-22v-2.778a10.471 10.471 0 0 0 -5.789-9.366 10.471 10.471 0 0 0 -4.683-1.106z" fill="#e5b54c"/><path d="m51.528 26h-1.153a11.205 11.205 0 0 0 -4.545.964 11.5 11.5 0 0 0 -5.771 15.329l2.741 5.94a23.912 23.912 0 0 1 2.2 10.017 3.7 3.7 0 0 0 .435 1.718c.106.009.207.032.315.032a3.75 3.75 0 0 0 2.25-.75 27.5 27.5 0 0 0 11-22v-2.778a10.461 10.461 0 0 0 -3.246-7.563 10.463 10.463 0 0 0 -4.226-.909z" fill="#f5c85b"/><path d="m31.474 17.576 2.526-11.79h9v-4h-12l-2.784 11.693-1.622 6.178z" fill="#a5a5a5"/><path d="m34 26.786-4 35h-22l-4-35z" fill="#fcd275"/><path d="m24.24 30.3 7.607-3.515h-27.847l4 35h15.112l-6.312-4.767a5.124 5.124 0 0 1 .553-8.543 7.26 7.26 0 0 0 3.173-8.947 7.257 7.257 0 0 1 3.714-9.228z" fill="#e5b54c"/><path d="m7.08 18.727a7 7 0 0 1 6.92-5.941h4.757a10.242 10.242 0 0 0 7.243-3l3 5-2.653 3.941z" fill="#e5b54c"/><path d="m2 22.786h34v4h-34z" fill="#cecece"/><path d="m5 22.786a5 5 0 0 1 5-5h4.384a37.094 37.094 0 0 0 14.616-3l1.172 1.172a9.656 9.656 0 0 1 2.828 6.828z" fill="#fcd275"/><path d="m8 61.786h22l.686-6h-23.372z" fill="#cecece"/><path d="m16.039 59.786h14.19l.457-4h-20.818a6.766 6.766 0 0 0 6.171 4z" fill="#d8d8d8"/><path d="m9 24.786h27v-2h-30.445a3.982 3.982 0 0 0 3.445 2z" fill="#d8d8d8"/><path d="m9.472 28.572a1.368 1.368 0 0 0 -1.359 1.516l1.611 14.8a1.483 1.483 0 0 0 1.476 1.322 1.483 1.483 0 0 0 1.472-1.666l-1.843-14.773a1.367 1.367 0 0 0 -1.357-1.199z" fill="#fff"/><path d="m10.682 50.692.255 1.419a1.389 1.389 0 0 0 1.405 1.143 1.389 1.389 0 0 0 1.321-1.673l-.295-1.411a1.369 1.369 0 0 0 -1.339-1.088 1.368 1.368 0 0 0 -1.347 1.61z" fill="#fff"/><path d="m2 28h1.108l3.9 34.113a1 1 0 0 0 .992.887h22a1 1 0 0 0 .993-.887l3.899-34.113h1.108a1 1 0 0 0 1-1v-4a1 1 0 0 0 -1-1h-2.049a10.535 10.535 0 0 0 -1.418-4.381l2.276-10.619h8.191a1 1 0 0 0 1-1v-4a1 1 0 0 0 -1-1h-12a1 1 0 0 0 -.973.769l-2.216 9.306-.954-1.59a1 1 0 0 0 -.735-.477 1.013 1.013 0 0 0 -.829.285 9.18 9.18 0 0 1 -6.535 2.707h-4.758a8.047 8.047 0 0 0 -7.828 6.384 6 6 0 0 0 -2.082 3.616h-2.09a1 1 0 0 0 -1 1v4a1 1 0 0 0 1 1zm6.893 33-.458-4h21.13l-.458 4zm20.9-6h-21.586l-3.087-27h27.76zm2-52h10.207v2h-8a1 1 0 0 0 -.978.79l-2.086 9.738c-.02-.021-.037-.043-.057-.063l-1.085-1.085-.511-.852zm-17.793 11h4.758a11.156 11.156 0 0 0 7.007-2.449l1.773 2.956a35.866 35.866 0 0 1 -13.154 2.493h-4.384a6.031 6.031 0 0 0 -1.262.136 6.04 6.04 0 0 1 5.262-3.136zm-4 5h4.384a37.891 37.891 0 0 0 14.384-2.818l.7.7a8.584 8.584 0 0 1 2.469 5.118h-25.795a4 4 0 0 1 3.858-3zm-7 5h32v2h-32z"/><path d="m63 15a1 1 0 0 0 -1-1 10.8 10.8 0 0 0 -10.811 9.872l-.052.575-4.218-9.841-1.838.788 4.143 9.666a12.038 12.038 0 0 0 -3.8.991 12.5 12.5 0 0 0 -6.274 16.662l2.742 5.939a23.073 23.073 0 0 1 2.108 9.598 4.75 4.75 0 0 0 7.6 3.8 28.637 28.637 0 0 0 11.4-22.8v-2.778a11.411 11.411 0 0 0 -6.342-10.261c-.284-.142-.581-.258-.876-.376a11.663 11.663 0 0 0 7.218-10.835zm-2 21.472v2.778a26.624 26.624 0 0 1 -10.6 21.2 2.749 2.749 0 0 1 -4.4-2.2 25.091 25.091 0 0 0 -2.292-10.436l-2.741-5.939a10.5 10.5 0 0 1 5.269-14 10.118 10.118 0 0 1 4.139-.875h1.153a9.527 9.527 0 0 1 4.236 1 9.422 9.422 0 0 1 5.236 8.472zm-6.95-12.132-.92.276.052-.562a8.8 8.8 0 0 1 7.761-7.992 9.682 9.682 0 0 1 -6.893 8.278z"/></svg>