<svg id="Layer_3" height="512" viewBox="0 0 64 64" width="512" xmlns="http://www.w3.org/2000/svg" data-name="Layer 3"><path d="m38 27-4 35h-22l-4-35z" fill="#f4ae95"/><path d="m35.474 17.79 2.526-11.79h9v-4h-12l-2.784 11.693-1.622 6.178z" fill="#a5a5a5"/><path d="m28.24 30.514 7.607-3.514h-27.847l4 35h15.112l-6.312-4.768a5.125 5.125 0 0 1 .553-8.544 7.258 7.258 0 0 0 3.173-8.946 7.259 7.259 0 0 1 3.714-9.228z" fill="#efa17f"/><path d="m11.08 18.941a7 7 0 0 1 6.92-5.941h4.757a10.242 10.242 0 0 0 7.243-3l3 5-2.653 3.941z" fill="#ed9366"/><path d="m6 23h34v4h-34z" fill="#cecece"/><path d="m9 23a5 5 0 0 1 5-5h4.384a37.112 37.112 0 0 0 14.616-3l1.172 1.172a9.656 9.656 0 0 1 2.828 6.828z" fill="#efa17f"/><path d="m12 62h22l.686-6h-23.372z" fill="#cecece"/><path d="m20.039 60h14.19l.457-4h-20.818a6.766 6.766 0 0 0 6.171 4z" fill="#d8d8d8"/><path d="m13 25h27v-2h-30.445a3.982 3.982 0 0 0 3.445 2z" fill="#d8d8d8"/><path d="m13.472 28.786a1.368 1.368 0 0 0 -1.359 1.514l1.611 14.8a1.483 1.483 0 0 0 1.476 1.324 1.484 1.484 0 0 0 1.472-1.667l-1.843-14.773a1.367 1.367 0 0 0 -1.357-1.198z" fill="#f2f2f2"/><path d="m14.682 50.905.255 1.42a1.388 1.388 0 0 0 1.4 1.142 1.388 1.388 0 0 0 1.326-1.667l-.3-1.412a1.37 1.37 0 0 0 -1.334-1.088 1.368 1.368 0 0 0 -1.347 1.605z" fill="#f2f2f2"/><circle cx="43" cy="47" fill="#ed753a" r="15"/><circle cx="43" cy="47" fill="#ef874d" r="13"/><circle cx="43" cy="47" fill="#efa17f" r="11"/><g fill="#fcedd6"><path d="m32 46h10v2h-10z"/><path d="m42 36h2v10h-2z"/><path d="m44 46h10v2h-10z"/><path d="m42 48h2v10h-2z"/><path d="m42.596 41.611h9.585v2h-9.585z" transform="matrix(.707 -.707 .707 .707 -16.251 45.989)"/><path d="m46.389 46.596h2v9.586h-2z" transform="matrix(.707 -.707 .707 .707 -22.458 48.561)"/><path d="m37.611 37.818h2v9.585h-2z" transform="matrix(.707 -.707 .707 .707 -18.822 39.783)"/><path d="m33.818 50.389h9.585v2h-9.585z" transform="matrix(.707 -.707 .707 .707 -25.029 42.354)"/></g><circle cx="43" cy="47" fill="#f9c2b2" r="2"/><path d="m6 28h1.108l3.9 34.114a1 1 0 0 0 .992.886h22a1 1 0 0 0 .994-.886l.137-1.2a16 16 0 1 0 3.343-29.253l.418-3.661h1.108a1 1 0 0 0 1-1v-4a1 1 0 0 0 -1-1h-2.049a10.531 10.531 0 0 0 -1.418-4.38l2.276-10.62h8.191a1 1 0 0 0 1-1v-4a1 1 0 0 0 -1-1h-12a1 1 0 0 0 -.973.769l-2.216 9.306-.954-1.59a1 1 0 0 0 -1.564-.192 9.182 9.182 0 0 1 -6.536 2.707h-4.757a8.047 8.047 0 0 0 -7.828 6.384 6 6 0 0 0 -2.082 3.616h-2.09a1 1 0 0 0 -1 1v4a1 1 0 0 0 1 1zm27.108 33h-20.216l-.457-4h18.1a16.125 16.125 0 0 0 2.73 2.665zm23.892-14a14 14 0 1 1 -14-14 14.015 14.015 0 0 1 14 14zm-20.63-14.544a15.94 15.94 0 0 0 -7.205 22.544h-16.959l-3.085-27h27.758zm-.58-29.456h10.21v2h-8a1 1 0 0 0 -.978.791l-2.086 9.736c-.02-.02-.037-.042-.058-.063l-1.084-1.084-.511-.852zm-17.79 11h4.757a11.161 11.161 0 0 0 7.008-2.449l1.773 2.956a35.866 35.866 0 0 1 -13.154 2.493h-4.384a6.031 6.031 0 0 0 -1.262.136 6.04 6.04 0 0 1 5.262-3.136zm-4 5h4.384a37.868 37.868 0 0 0 14.383-2.819l.7.7a8.585 8.585 0 0 1 2.47 5.119h-25.795a4 4 0 0 1 3.858-3zm-7 5h32v2h-32z"/><path d="m43 59a12 12 0 1 0 -12-12 12.013 12.013 0 0 0 12 12zm0-13a1 1 0 1 1 -1 1 1 1 0 0 1 1-1zm-1.285 3.7a2.746 2.746 0 0 0 .285.117v7.133a9.945 9.945 0 0 1 -5.324-2.211zm2.285.116a2.746 2.746 0 0 0 .285-.117l5.039 5.039a9.945 9.945 0 0 1 -5.324 2.211zm1.7-1.531a2.746 2.746 0 0 0 .116-.285h7.133a9.945 9.945 0 0 1 -2.211 5.324zm.116-2.285a2.746 2.746 0 0 0 -.117-.285l5.039-5.039a9.945 9.945 0 0 1 2.211 5.324zm-1.531-1.7a2.746 2.746 0 0 0 -.285-.116v-7.133a9.945 9.945 0 0 1 5.324 2.211zm-2.285-.116a2.746 2.746 0 0 0 -.285.117l-5.039-5.039a9.945 9.945 0 0 1 5.324-2.211zm-1.7 1.531a2.746 2.746 0 0 0 -.117.285h-7.132a9.945 9.945 0 0 1 2.211-5.324zm-.116 2.285a2.746 2.746 0 0 0 .117.285l-5.039 5.039a9.945 9.945 0 0 1 -2.211-5.324z"/></svg>