<svg id="Layer_3" height="512" viewBox="0 0 64 64" width="512" xmlns="http://www.w3.org/2000/svg" data-name="Layer 3"><path d="m31.474 17.79 2.526-11.79h9v-4h-12l-2.784 11.693-1.622 6.178z" fill="#a5a5a5"/><path d="m34 27-4 35h-22l-4-35z" fill="#f9c2b2"/><path d="m24.24 30.514 7.607-3.514h-27.847l4 35h15.112l-6.312-4.768a5.125 5.125 0 0 1 .553-8.544 7.258 7.258 0 0 0 3.173-8.946 7.259 7.259 0 0 1 3.714-9.228z" fill="#f4ae95"/><path d="m7.08 18.941a7 7 0 0 1 6.92-5.941h4.757a10.242 10.242 0 0 0 7.243-3l3 5-2.653 3.941z" fill="#f4ae95"/><path d="m2 23h34v4h-34z" fill="#cecece"/><path d="m5 23a5 5 0 0 1 5-5h4.384a37.112 37.112 0 0 0 14.616-3l1.172 1.172a9.656 9.656 0 0 1 2.828 6.828z" fill="#f9c2b2"/><path d="m8 62h22l.686-6h-23.372z" fill="#cecece"/><path d="m16.039 60h14.19l.457-4h-20.818a6.766 6.766 0 0 0 6.171 4z" fill="#d8d8d8"/><path d="m9 25h27v-2h-30.445a3.982 3.982 0 0 0 3.445 2z" fill="#d8d8d8"/><path d="m9.472 28.786a1.368 1.368 0 0 0 -1.359 1.514l1.611 14.8a1.483 1.483 0 0 0 1.476 1.324 1.484 1.484 0 0 0 1.472-1.667l-1.843-14.773a1.367 1.367 0 0 0 -1.357-1.198z" fill="#f2f2f2"/><path d="m10.682 50.905.255 1.42a1.388 1.388 0 0 0 1.405 1.142 1.388 1.388 0 0 0 1.321-1.667l-.295-1.412a1.37 1.37 0 0 0 -1.339-1.088 1.368 1.368 0 0 0 -1.347 1.605z" fill="#f2f2f2"/><path d="m44.841 33.85.223-.14a24.413 24.413 0 0 1 12.936-3.71 9.123 9.123 0 0 1 -4.067 6.513l-6.933 3.487z" fill="#4e8986"/><path d="m39.827 36.134a11.209 11.209 0 0 1 -1.827-6.134 8 8 0 0 1 7.858 6.49l-2.858 7.51z" fill="#346664"/><path d="m46.29 61.229a12.061 12.061 0 0 0 4.244.771 9.839 9.839 0 0 0 7.405-3.36l.726-.829a13.476 13.476 0 0 0 3.335-8.875 15.19 15.19 0 0 0 -1.912-7.377 10.807 10.807 0 0 0 -9.447-5.559h-1.25a9.218 9.218 0 0 0 -3.237.587z" fill="#ef874d"/><path d="m50.641 36h-1.25a9.214 9.214 0 0 0 -3.237.587l.106 19.34a13.97 13.97 0 0 0 11.621 2.773c.018-.021.04-.039.058-.06l.726-.829a13.476 13.476 0 0 0 3.335-8.875 15.19 15.19 0 0 0 -1.912-7.377 10.807 10.807 0 0 0 -9.447-5.559z" fill="#efa17f"/><path d="m42.641 36h-1.25a9.233 9.233 0 0 0 -4.481 1.161 13.435 13.435 0 0 0 -6.91 11.739 13.434 13.434 0 0 0 4.587 10.11 12.069 12.069 0 0 0 7.947 2.99 9.839 9.839 0 0 0 7.405-3.36l.726-.829a13.476 13.476 0 0 0 3.335-8.875 15.19 15.19 0 0 0 -1.912-7.377 10.807 10.807 0 0 0 -9.447-5.559z" fill="#ed753a"/><path d="m42.77 36.009c-.043 0-.085-.009-.129-.009h-1.25a9.233 9.233 0 0 0 -4.481 1.161 13.434 13.434 0 0 0 -2.323 21.853 12.069 12.069 0 0 0 7.947 2.986 9.829 9.829 0 0 0 3.083-.5 14.491 14.491 0 0 0 -2.847-25.491z" fill="#ef874d"/><path d="m42.77 36.009c-.043 0-.085-.009-.129-.009h-1.25a9.216 9.216 0 0 0 -2.518.362 11.994 11.994 0 0 0 10.732 21.085 14.477 14.477 0 0 0 -6.835-21.438z" fill="#efa17f"/><path d="m55.862 36.246a10.1 10.1 0 0 0 3.13-6.122 1 1 0 0 0 -.992-1.124 25.368 25.368 0 0 0 -12.87 3.518 9 9 0 0 0 -7.13-3.518 1 1 0 0 0 -1 1 12.162 12.162 0 0 0 1.315 5.495 10.167 10.167 0 0 0 -1.891.792 14.4 14.4 0 0 0 -2.7 1.95l1.168-10.237h1.108a1 1 0 0 0 1-1v-4a1 1 0 0 0 -1-1h-2.049a10.526 10.526 0 0 0 -1.418-4.38l2.276-10.62h8.191a1 1 0 0 0 1-1v-4a1 1 0 0 0 -1-1h-12a1 1 0 0 0 -.973.769l-2.216 9.306-.954-1.59a1 1 0 0 0 -1.564-.192 9.182 9.182 0 0 1 -6.536 2.707h-4.757a8.047 8.047 0 0 0 -7.828 6.384 6 6 0 0 0 -2.082 3.616h-2.09a1 1 0 0 0 -1 1v4a1 1 0 0 0 1 1h1.108l3.9 34.114a1 1 0 0 0 .992.886h22a1 1 0 0 0 .994-.886l.574-5.023a14.394 14.394 0 0 0 2.361 2.676 13.067 13.067 0 0 0 8.606 3.233 10.827 10.827 0 0 0 3.8-.7 13.038 13.038 0 0 0 4.2.7 10.841 10.841 0 0 0 8.157-3.7l.726-.83a14.471 14.471 0 0 0 3.582-9.533 16.232 16.232 0 0 0 -2.038-7.864 11.783 11.783 0 0 0 -5.1-4.827zm.916-5.214a8.116 8.116 0 0 1 -3.033 4.385 11.808 11.808 0 0 0 -3.1-.417h-1.25a10.188 10.188 0 0 0 -2.781.388 9.03 9.03 0 0 0 -.444-1.163 23.374 23.374 0 0 1 10.608-3.193zm-17.721.048a7 7 0 0 1 5.31 4.055 11.782 11.782 0 0 0 -1.726-.135h-1.25c-.343 0-.685.031-1.026.065a10.164 10.164 0 0 1 -1.308-3.985zm-7.267-28.08h10.21v2h-8a1 1 0 0 0 -.978.791l-2.087 9.736c-.019-.02-.036-.043-.057-.063l-1.084-1.084-.511-.852zm-17.79 11h4.757a11.161 11.161 0 0 0 7.008-2.449l1.773 2.956a35.866 35.866 0 0 1 -13.154 2.493h-4.384a6.031 6.031 0 0 0 -1.262.136 6.04 6.04 0 0 1 5.262-3.136zm-4 5h4.384a37.868 37.868 0 0 0 14.383-2.819l.7.7a8.585 8.585 0 0 1 2.47 5.119h-25.795a4 4 0 0 1 3.858-3zm-7 5h32v2h-32zm2.121 4h27.758l-1.479 12.947a14.3 14.3 0 0 0 -1.482 12.969l-.125 1.084h-21.587zm3.771 33-.457-4h21.13l-.457 4zm26.354-2.738a12.434 12.434 0 0 1 2.154-20.226 8.247 8.247 0 0 1 4-1.036h1.25a9.813 9.813 0 0 1 8.573 5.045 14.226 14.226 0 0 1 1.777 6.892 12.471 12.471 0 0 1 -3.087 8.215l-.726.829a8.839 8.839 0 0 1 -6.652 3.019 11.072 11.072 0 0 1 -7.289-2.738zm22.667-1.11-.726.829a8.839 8.839 0 0 1 -6.652 3.019 11.111 11.111 0 0 1 -1.561-.121 10.913 10.913 0 0 0 1.718-1.58l.726-.83a14.471 14.471 0 0 0 3.582-9.532 16.232 16.232 0 0 0 -2.038-7.864 11.771 11.771 0 0 0 -3.779-4.064c.07 0 .138-.009.208-.009h1.25a9.813 9.813 0 0 1 8.573 5.045 14.226 14.226 0 0 1 1.786 6.892 12.471 12.471 0 0 1 -3.087 8.215z"/></svg>