<svg id="Capa_1" enable-background="new 0 0 512 512" height="512" viewBox="0 0 512 512" width="512" xmlns="http://www.w3.org/2000/svg"><g><g><path d="m40.463 126.624c-14.636 34.603-22.98 72.928-22.98 106.163 0 65.722 42.766 119.154 102.553 135.064 11.402 3.034 22.523 6.149 35.064 6.149 78.308 0 141.789-63.438 141.789-141.693 0-34.327-8.383-72.201-22.814-106.51z" fill="#a36b5b"/><path d="m165.1 373.65c-3.3.23-6.64.35-10 .35-12.576 0-24.77-1.636-36.379-4.707-60.682-16.051-105.411-71.299-105.411-136.983 0-33.24 8.51-71.07 23.15-105.67h20c-14.64 34.6-23.15 72.43-23.15 105.67 0 74.89 58.15 136.22 131.79 141.34z" fill="#8e5644"/><path d="m414.329 459.731c69.448-69.569 112.912-203.347 62.247-266.324-1.835-2.281-4.103-4.01-6.188-6.099-25.916-25.961-67.505-29.313-112.053-22.011-57.999 9.507-116.81 39.976-155.915 79.149-52.249 52.34-60.882 130.775-22.298 189.979 5.441 8.349 10.87 17.847 18.243 25.232 59.656 59.762 156.347 59.795 215.964.074z" fill="#8e5644"/><path d="m477.25 194.26c-63.43-49.43-198.55-3.47-264.96 63.06-57.29 57.39-59.49 149.07-6.65 209.17-2.48-2.18-4.91-4.46-7.28-6.83-10.543-10.563-19.224-22.284-26.043-34.755-31.758-58.085-23.109-132.42 25.973-181.585 69.14-69.26 212.75-116.23 272.41-56.47 2.34 2.35 4.53 4.82 6.55 7.41z" fill="#824d3f"/><path d="m397.593 434.2c48.123-48.207 99.991-178.121 51.994-226.202s-178.389 4.582-225.809 52.084c-50.374 50.462-52.3 130.346-4.302 178.427s127.743 46.153 178.117-4.309z" fill="#a36b5b"/><path d="m361.398 410.489c2.161-2.165 6.865-4.244 8.734-6.578 7.372-9.201 12.479-19.622 15.323-30.513l-1.589-14.228 3.387-18.711c-1.792-12.19-6.321-24.055-13.585-34.598-2.79-4.05-7.268-7.81-10.866-11.414-32.063-32.119-82.83-29.183-114.894 2.936s-29.872 78.562 2.191 110.681 79.236 34.544 111.299 2.425z" fill="#fff0af"/><g fill="#ffe07d"><path d="m373.67 305.86c-13.34-3.08-18.51-9.36-39.65-9.36-27.99 0-27.99 11-55.98 11-18.38 0-24.69-4.75-34.78-8 1.48-1.77 5.18-3.351 6.84-5.011 16.045-16.075 35.207-23.111 56.239-23.095 5.511.004 10.773-.574 16.194.535 15.227 3.115 29.743 10.588 41.558 22.421 3.599 3.6 6.789 7.46 9.579 11.51z"/><path d="m385.46 373.4c-23.55-1.12-25.06-10.9-51.44-10.9-27.99 0-27.99 11-55.98 11-27.14 0-27.96-10.34-53.5-10.97l1.22-16.19 1.4-16.711c23.01 1.25 24.7 10.87 50.88 10.87 27.99 0 27.99-11 55.98-11 27.03 0 27.95 10.27 53.23 10.96 1.62 10.961 1.02 22.181-1.79 32.941z"/><path d="m370.13 403.91c-1.86 2.34-3.88 4.59-6.04 6.76-11.814 11.829-26.33 19.3-41.557 22.414-8.945 1.829-18.061.797-27.092-.382-17.329-2.261-33.071-9.561-46.383-22.894-4.29-4.29-9.077-8.079-12.207-12.988 14.51 2.92 19.25 9.68 41.19 9.68 27.99 0 27.99-11 55.98-11 19.169 0 25.209 5.16 36.109 8.41z"/></g><g><path d="m277.09 406.49c-10.98-.099-16.713.096-22.501-2.043-5.351-1.977-10.87-6.243-17.739-7.627-6.75-10.54-10.85-22.29-12.31-34.29l9.262-2.722 25.268 11.361c2.94 12.731 8.94 24.901 18.02 35.321z" fill="#ffe07d"/><path d="m270.49 307.2c-6.25 9.47-10.34 19.94-12.26 30.73-5.701-1.693-10.552-1.618-16.151-3.355-4.124-1.28-14.919-4.945-14.919-4.945 3.1-10.8 8.47-21.1 16.1-30.13l14.138 3.5z" fill="#ffe07d"/><g fill="#ffd064"><path d="m322.53 271.94c-15.23 3.1-29.74 10.58-41.55 22.41-4 4-7.49 8.31-10.49 12.85-12.82-1.1-18.66-4.94-27.23-7.7 4.934-5.482 10.577-11.98 23.3-19.13 1.416-.403 2.444-2.36 16.6-6.86 11.272-3.189 24.807-4.612 39.37-1.57z"/><path d="m259.07 371.17c-10.98-3.09-16.8-8.2-34.53-8.64-.029-1.671-.299.947-.61-10.02 0-4.22.32-8.43.97-12.61.559-3.038.51-3.928 2.26-10.27 15.29.83 21.17 5.36 31.07 8.3-1.98 11-1.7 22.33.84 33.24z"/><path d="m322.53 433.07c-8.635 1.715-20.232 2.565-31.83.23-15.65-2.95-30.61-10.5-42.72-22.63-2.345-2.863-2.546-1.376-11.13-13.85 14.3 2.88 19.11 9.48 40.24 9.67 1.23 1.43 2.53 2.82 3.89 4.18 11.81 11.83 26.32 19.3 41.55 22.4z"/></g></g><path d="m275.324 136c8.827 0 14.687-9.236 10.828-17.175-29.036-59.726-73.906-107.336-124.627-111.087-2.136-.158-4.226.453-6.382.453-53.099 0-99.413 47.568-129.689 109.619-3.874 7.941 1.985 17.19 10.82 17.19l5.327 1c2.16 0 4.402.111 6.351.745 8.016 2.606 15.148 9.369 15.148 18.255l-.723 66.255c0 14.016 10.923 25.755 24.936 25.489 2.661-.05 4.991.234 7.387-.586 9.832-3.365 16.9-12.686 16.9-23.659v-66.499c0-11.046 8.954-20 20-20 11.046 0 20 8.954 20 20v25.937c0 14.016 11.47 25.824 25.483 25.558 13.584-.258 24.517-11.35 24.517-24.995v-26.5c0-11.046 8.954-20 20-20z" fill="#8e5644"/><g fill="#824d3f"><path d="m40.45 120.2c-3.1 6.45.05 13.75 5.98 16.39-1.55-.39-3.17-.59-4.83-.59h-6.33c-8.83 0-14.69-9.25-10.82-17.19 30.28-62.05 77.54-111.31 130.64-111.31 2.69 0 5.37.13 8.03.38-49.84 4.67-93.91 52.66-122.67 112.32z"/><path d="m94.7 246.16c-2.39.82-4.95 1.29-7.62 1.34-14.01.26-25.48-11.55-25.48-25.56v-65.94c0-11.05-8.95-20-20-20h16c11.05 0 20 8.95 20 20v65.94c0 11.08 7.17 20.78 17.1 24.22z"/><path d="m184.7 206.16c-1.573.261-.129.724-7.62 1.34-14.01.26-25.48-11.55-25.48-25.56v-25.94c.194-9.234-7.809-20.025-20-20h16c5.52 0 10.52 2.24 14.14 5.86s5.86 8.62 5.86 14.14v25.94c0 11.08 7.17 20.78 17.1 24.22z"/></g></g><g><path d="m476.005 181.552c-19.299-19.333-48.125-29.552-83.362-29.552-29.804 0-63.289 7.411-95.638 20.116-2.589-11.006-5.81-21.979-9.643-32.766 1.754-1.378 3.291-3.064 4.519-5.027 3.574-5.712 3.954-12.731 1.015-18.776-16.175-33.272-36.44-61.387-58.604-81.303-25.288-22.723-51.937-34.244-79.206-34.244-26.712 0-52.885 11.212-77.79 33.325-3.098 2.75-3.379 7.49-.629 10.588s7.491 3.381 10.588.629c22.078-19.603 44.9-29.542 67.831-29.542 45.242 0 91.717 40.039 124.32 107.104.958 1.97.151 3.636-.24 4.262-.401.642-1.58 2.134-3.842 2.134h-53.724c-15.164 0-27.5 12.337-27.5 27.5v26.5c0 9.468-7.697 17.317-17.159 17.496-8.284.331-18.024-7.762-17.841-18.06v-25.936c0-15.163-12.336-27.5-27.5-27.5s-27.5 12.337-27.5 27.5v17.043c0 4.143 3.358 7.5 7.5 7.5s7.5-3.357 7.5-7.5v-17.043c0-6.893 5.607-12.5 12.5-12.5s12.5 5.607 12.5 12.5v25.937c-.35 16.684 14.883 33.822 33.125 33.058 17.576-.334 31.875-14.91 31.875-32.494v-26.501c0-6.893 5.607-12.5 12.5-12.5h51.315c4.07 11.346 7.441 22.908 10.059 34.491-34.044 15.155-65.998 35.994-89.99 60.028-34.964 35.024-50.333 82.358-46.123 128.223-70.175-4.278-126.05-62.828-126.05-133.936 0-27.309 6.051-58.661 17.076-88.807h3.713c6.893 0 12.5 5.607 12.5 12.5v65.937c-.35 16.684 14.883 33.822 33.125 33.058 17.576-.334 31.875-14.91 31.875-32.494v-14.096c0-4.143-3.358-7.5-7.5-7.5s-7.5 3.357-7.5 7.5v14.096c0 9.468-7.697 17.317-17.159 17.496-8.277.346-18.025-7.768-17.841-18.06v-65.936c0-15.163-12.336-27.5-27.5-27.5h-6.327c-2.265 0-3.442-1.494-3.844-2.137-.391-.626-1.197-2.294-.236-4.264 9.67-19.817 20.734-37.604 32.887-52.864 2.58-3.24 2.045-7.959-1.195-10.539-3.239-2.58-7.958-2.043-10.539 1.195-12.833 16.115-24.485 34.832-34.634 55.63-2.95 6.047-2.577 13.07.996 18.79 1.264 2.024 2.855 3.753 4.675 5.155-11.355 31.426-17.572 64.159-17.572 92.84 0 39.735 15.451 77.123 43.507 105.277 26.759 26.851 61.969 42.27 99.655 43.782 5.765 30.642 20.454 59.921 44.083 83.591 30.283 30.337 70.54 47.044 113.356 47.044 42.774 0 82.988-16.683 113.223-46.97 36.761-36.825 66.489-90.879 79.522-144.594 14.564-60.016 6.341-109.339-23.152-138.884zm8.577 135.347c-12.413 51.156-40.66 102.571-75.562 137.533-27.403 27.451-63.843 42.568-102.608 42.568-38.804 0-75.292-15.144-102.74-42.641-56.646-56.743-56.678-149.039-.073-205.742 47.21-47.292 126.714-81.617 189.044-81.617 31.167 0 56.322 8.696 72.746 25.149 25.288 25.331 32.283 70.801 19.193 124.75z"/><path d="m329.684 192.416c-3.954 1.234-6.159 5.44-4.924 9.395s5.443 6.16 9.394 4.924c50.183-15.667 90.321-13.274 110.124 6.562 19.167 19.2 22.14 57.71 8.157 105.655-12.248 41.992-36.42 86.178-60.15 109.949-23.782 23.824-54.928 36.944-87.7 36.944-30.452 0-58.793-11.59-79.801-32.635-45.004-45.083-43.074-120.37 4.303-167.829 16.443-16.473 43.09-33.474 73.107-46.644 3.793-1.664 5.519-6.089 3.855-9.882-1.665-3.793-6.089-5.518-9.881-3.854-31.664 13.893-59.983 32.037-77.697 49.782-53.21 53.302-55.14 138.098-4.303 189.024 23.843 23.884 55.954 37.037 90.417 37.037 36.784 0 71.7-14.685 98.316-41.347 25.748-25.793 50.843-71.462 63.934-116.347 15.791-54.144 11.55-96.921-11.941-120.453-32.695-32.749-92.482-20.499-125.21-10.281z"/><path d="m327.088 432.372c1.417 3.894 5.721 5.897 9.613 4.482 12.341-4.493 23.34-11.521 32.693-20.891 30.632-30.685 34.394-78.243 11.299-113.08-2.601-3.862-6.553-9.031-11.299-13.83-16.924-16.953-39.427-26.29-63.363-26.291-.001 0 .001 0 0 0-23.935 0-46.44 9.338-63.364 26.291-29.664 29.715-34.12 75.25-13.399 109.736 13.899 23.854 42.237 41.926 70.877 43.254 3.898 0 7.19-3.015 7.473-6.964.296-4.132-2.813-7.721-6.945-8.017-14.838-1.064-28.95-6.568-40.577-15.677 5.022 1.497 11.199 2.613 19.764 2.613 14.596 0 22.288-3.233 29.074-6.086 6.273-2.637 11.69-4.914 23.262-4.914 11.571 0 16.989 2.277 23.261 4.914.147.062.296.124.443.186-7.137 6.448-15.304 11.373-24.33 14.659-3.892 1.42-5.899 5.723-4.482 9.615zm-94.04-95.171c7.957.608 12.562 2.536 17.741 4.713 6.786 2.853 14.477 6.086 29.071 6.086 14.596 0 22.288-3.233 29.074-6.086 6.273-2.637 11.69-4.914 23.262-4.914 11.571 0 16.989 2.277 23.261 4.914 6.12 2.572 12.994 5.446 24.986 5.988.366 5.986.019 12.005-1.043 17.923-8.195-.574-12.869-2.527-18.13-4.739-6.786-2.853-14.478-6.086-29.074-6.086s-22.288 3.233-29.074 6.086c-6.273 2.637-11.69 4.914-23.262 4.914-11.569 0-16.986-2.277-23.257-4.914-6.135-2.579-13.029-5.461-25.079-5.992-.206-5.992.302-12.001 1.524-17.893zm13.635-29.956c1.375.526 2.722 1.087 4.107 1.669 6.786 2.853 14.476 6.086 29.07 6.086 14.596 0 22.288-3.233 29.074-6.086 6.273-2.637 11.69-4.914 23.262-4.914s16.989 2.277 23.262 4.914c3.957 1.664 8.364 3.511 14.283 4.723 3.657 6.016 6.385 12.439 8.192 19.067-7.301-.694-11.723-2.542-16.663-4.619-6.786-2.853-14.478-6.086-29.074-6.086s-22.288 3.233-29.074 6.086c-6.273 2.637-11.69 4.914-23.262 4.914-11.569 0-16.986-2.277-23.257-4.914-5.008-2.105-10.518-4.414-18.923-5.481 2.339-5.384 5.339-10.544 9.003-15.359zm59.348-29.482c15.09.001 29.491 4.467 41.714 12.762-4.216-.918-9.235-1.524-15.55-1.524-14.596 0-22.288 3.233-29.074 6.086-6.273 2.637-11.69 4.914-23.262 4.914-10.868 0-16.307-2.01-22.125-4.439 13.473-11.509 30.398-17.799 48.297-17.799zm26.164 110.237c-14.596 0-22.288 3.233-29.074 6.086-6.273 2.637-11.69 4.914-23.262 4.914-11.569 0-16.986-2.277-23.257-4.914-4.259-1.791-9.005-3.779-15.602-4.976-3.355-5.989-5.843-12.338-7.424-18.869 7.638.651 12.148 2.544 17.212 4.673 6.786 2.853 14.477 6.086 29.071 6.086 14.596 0 22.288-3.233 29.074-6.086 6.273-2.637 11.69-4.914 23.262-4.914 11.571 0 16.989 2.277 23.261 4.914 5.17 2.173 10.875 4.563 19.747 5.58-2.204 5.489-5.091 10.762-8.646 15.7-1.804-.647-3.52-1.365-5.288-2.108-6.786-2.853-14.478-6.086-29.074-6.086z"/></g></g></svg>