<svg height="512" viewBox="0 0 64 64" width="512" xmlns="http://www.w3.org/2000/svg"><g id="Layer_23" data-name="Layer 23"><path d="m31.474 17.79 2.526-11.79h9v-4h-12l-2.784 11.693-1.622 6.178z" fill="#a5a5a5"/><path d="m34 27-4 35h-22l-4-35z" fill="#fce4bb"/><path d="m24.24 30.514 7.607-3.514h-27.847l4 35h15.112l-6.312-4.768a5.125 5.125 0 0 1 .553-8.544 7.258 7.258 0 0 0 3.173-8.946 7.259 7.259 0 0 1 3.714-9.228z" fill="#fcd275"/><path d="m7.08 18.941a7 7 0 0 1 6.92-5.941h4.757a10.242 10.242 0 0 0 7.243-3l3 5-2.653 3.941z" fill="#fcd275"/><path d="m2 23h34v4h-34z" fill="#cecece"/><path d="m5 23a5 5 0 0 1 5-5h4.384a37.112 37.112 0 0 0 14.616-3l1.172 1.172a9.656 9.656 0 0 1 2.828 6.828z" fill="#fce4bb"/><path d="m8 62h22l.686-6h-23.372z" fill="#cecece"/><path d="m16.039 60h14.19l.457-4h-20.818a6.766 6.766 0 0 0 6.171 4z" fill="#d8d8d8"/><path d="m9 25h27v-2h-30.445a3.982 3.982 0 0 0 3.445 2z" fill="#d8d8d8"/><path d="m9.472 28.786a1.368 1.368 0 0 0 -1.359 1.514l1.611 14.8a1.483 1.483 0 0 0 1.476 1.324 1.484 1.484 0 0 0 1.472-1.667l-1.843-14.773a1.367 1.367 0 0 0 -1.357-1.198z" fill="#fff"/><path d="m10.682 50.905.255 1.42a1.388 1.388 0 0 0 1.405 1.142 1.388 1.388 0 0 0 1.321-1.667l-.295-1.412a1.37 1.37 0 0 0 -1.339-1.088 1.368 1.368 0 0 0 -1.347 1.605z" fill="#fff"/><path d="m50.573 35.965a14.09 14.09 0 0 1 8.975-6.42l2.452-.545-.358-.143a25.952 25.952 0 0 0 -9.642-1.857 21.17 21.17 0 0 1 7.472-6.236l1.528-.764h-.4a16.716 16.716 0 0 0 -13.6 7 21.21 21.21 0 0 1 6-12l-.409.136a14.154 14.154 0 0 0 -9.591 11.864 20.484 20.484 0 0 0 -14.485-6h-.515l4.148 2.766a25.917 25.917 0 0 1 7.852 8.234 18.949 18.949 0 0 0 -8.472-2h-3.528l3.672 1.632a18.456 18.456 0 0 1 7.292 5.823" fill="#346664"/><path d="m46 62a12 12 0 0 0 12-12 17.555 17.555 0 0 0 -.45-3.949l-.526-2.281a11.314 11.314 0 0 0 -11.024-8.77 11.314 11.314 0 0 0 -11.024 8.77l-.526 2.281a17.555 17.555 0 0 0 -.45 3.949 12 12 0 0 0 12 12z" fill="#e5b54c"/><path d="m48 60a11.93 11.93 0 0 0 7.419-2.581 11.93 11.93 0 0 0 2.581-7.419 17.555 17.555 0 0 0 -.45-3.949l-.526-2.282a11.307 11.307 0 0 0 -17.963-6.385 11.275 11.275 0 0 0 -2.085 4.385l-.526 2.282a17.555 17.555 0 0 0 -.45 3.949 12 12 0 0 0 12 12z" fill="#f5c85b"/><path d="m55.564 57.227a11.938 11.938 0 0 0 1.136-1.811l-.318-.052c-.739-.145-1.464-.331-2.19-.515a41.129 41.129 0 0 0 3.582-2.549 12.025 12.025 0 0 0 .226-2.3c0-.244-.031-.486-.041-.73a41.168 41.168 0 0 1 -5.559-1.57 41.338 41.338 0 0 0 3.693-2.659c.26.084.515.178.777.257l.549.166-.391-1.7a11.47 11.47 0 0 0 -.535-1.681l-.294.289c-.168.148-.348.279-.518.424a40.982 40.982 0 0 1 -4.581-1.921c1.086-.676 2.153-1.386 3.177-2.165l.053-.046a11.422 11.422 0 0 0 -1.508-1.364 39.1 39.1 0 0 1 -3.76 2.493 41.1 41.1 0 0 1 -6.214-4.335 11.191 11.191 0 0 0 -2.095.843l.328.29a43.155 43.155 0 0 0 5.926 4.309 39.121 39.121 0 0 1 -4.2 1.814 41.549 41.549 0 0 1 -5.04-4.129l-.011-.009a11.207 11.207 0 0 0 -1.239 1.574 43.414 43.414 0 0 0 3.951 3.337 38.956 38.956 0 0 1 -4.7 1.078c-.119-.115-.246-.218-.363-.335l-.436-.425-.517 2.243c-.058.25-.084.506-.13.758l.332-.035.485-.069a43.065 43.065 0 0 0 5.184 4.1 39.16 39.16 0 0 1 -4.2.876c-.484-.4-.968-.8-1.433-1.227l-.677-.643c0 .064-.011.127-.011.19a12 12 0 0 0 .338 2.784l.005.031q.135.559.32 1.1l.876-.126a43.3 43.3 0 0 0 6.28 4.148c-1.051.262-2.111.495-3.185.668l-.845.132a11.989 11.989 0 0 0 2.2 1.637 41.5 41.5 0 0 0 4.531-1.1 43.246 43.246 0 0 0 5.438 2.047 12 12 0 0 0 2.626-1.292l-.9-.287a40.622 40.622 0 0 1 -4.372-1.45 40.877 40.877 0 0 0 4.466-2.044c1.243.377 2.503.709 3.784.981zm-6.506-15.159a42.8 42.8 0 0 0 4.817 2.194 39.275 39.275 0 0 1 -3.813 2.516 40.958 40.958 0 0 1 -5.211-2.7 41.2 41.2 0 0 0 4.207-2.01zm-11.442 4.2a40.915 40.915 0 0 0 4.911-1.33 43.023 43.023 0 0 0 5.342 3.02 38.755 38.755 0 0 1 -5.042 2.094 41 41 0 0 1 -5.211-3.78zm7.014 10.855a41.331 41.331 0 0 1 -6.386-3.794 41.091 41.091 0 0 0 4.363-1.091 42.818 42.818 0 0 0 6.5 3.1 38.7 38.7 0 0 1 -4.477 1.785zm.485-5.747a40.789 40.789 0 0 0 5.123-2.376 42.833 42.833 0 0 0 6.047 1.926 38.868 38.868 0 0 1 -4.744 3.15 40.854 40.854 0 0 1 -6.426-2.7z" fill="#fcd275"/><path d="m62.371 28.071-.357-.142a26.8 26.8 0 0 0 -7.95-1.851 20.332 20.332 0 0 1 5.855-4.42l1.528-.763a1 1 0 0 0 -.447-1.895h-.4a17.752 17.752 0 0 0 -11.71 4.427 20.338 20.338 0 0 1 4.817-7.72 1 1 0 0 0 -1.024-1.655l-.408.136a15.2 15.2 0 0 0 -9.943 10.842 21.272 21.272 0 0 0 -8.6-4.382 10.531 10.531 0 0 0 -1.2-3.035l2.277-10.613h8.191a1 1 0 0 0 1-1v-4a1 1 0 0 0 -1-1h-12a1 1 0 0 0 -.973.769l-2.216 9.306-.954-1.59a1 1 0 0 0 -1.564-.192 9.182 9.182 0 0 1 -6.536 2.707h-4.757a8.048 8.048 0 0 0 -7.828 6.384 6 6 0 0 0 -2.082 3.616h-2.09a1 1 0 0 0 -1 1v4a1 1 0 0 0 1 1h1.108l3.9 34.113a1 1 0 0 0 .992.887h22a1 1 0 0 0 .994-.887l3.19-27.913a17.5 17.5 0 0 1 3.389 3.118 12.317 12.317 0 0 0 -3.573 6.227l-.526 2.281a18.62 18.62 0 0 0 -.474 4.174 13 13 0 0 0 26 0 18.62 18.62 0 0 0 -.475-4.174l-.525-2.281a12.268 12.268 0 0 0 -5.95-7.97 13.164 13.164 0 0 1 7.716-5.054l2.452-.544a1 1 0 0 0 .154-1.906zm-30.581-25.071h10.21v2h-8a1 1 0 0 0 -.978.79l-2.087 9.736c-.019-.02-.037-.041-.057-.061l-1.084-1.085-.511-.852zm-17.79 11h4.757a11.155 11.155 0 0 0 7.008-2.449l1.773 2.956a35.866 35.866 0 0 1 -13.154 2.493h-4.384a6.031 6.031 0 0 0 -1.262.136 6.04 6.04 0 0 1 5.262-3.136zm-4 5h4.384a37.886 37.886 0 0 0 14.383-2.818l.7.7a8.581 8.581 0 0 1 2.073 3.348 21.673 21.673 0 0 0 -3.025-.23h-.515a1 1 0 0 0 -.555 1.832l.255.168h-21.558a4 4 0 0 1 3.858-3zm-7 5h27.7l.9.6c.65.433 1.272.908 1.879 1.4h-30.479zm32.649 4c.577.595 1.135 1.207 1.65 1.855a20.054 20.054 0 0 0 -2.552-.582l.145-1.273zm-26.757 33-.457-4h21.13l-.457 4zm20.9-6h-21.586l-3.085-27h27.758l-.119 1.046c-.411-.026-.821-.046-1.232-.046h-3.528a1 1 0 0 0 -.406 1.914l3.671 1.632c.352.156.7.325 1.037.5zm11.78-18.006a43.188 43.188 0 0 0 5.435 3.906 39.268 39.268 0 0 1 -4.207 1.819 41.027 41.027 0 0 1 -4.313-3.48 10.221 10.221 0 0 1 3.085-2.245zm2.231-.753a10.488 10.488 0 0 1 2.197-.241 10.3 10.3 0 0 1 5.974 1.9c-.946.67-1.912 1.308-2.912 1.891a40.976 40.976 0 0 1 -5.262-3.55zm12.505 8.874.268 1.16a16.7 16.7 0 0 1 .369 2.753 40.954 40.954 0 0 1 -4.545-1.328 40.751 40.751 0 0 0 3.691-2.66zm-21.27 5.637c-.017-.252-.038-.498-.038-.752a16.593 16.593 0 0 1 .321-3.125 43.121 43.121 0 0 0 5 3.929 39.16 39.16 0 0 1 -4.2.876q-.549-.454-1.083-.928zm2.578-4.48a40.9 40.9 0 0 0 4.913-1.33 42.8 42.8 0 0 0 5.342 3.019 38.844 38.844 0 0 1 -5.044 2.095 41 41 0 0 1 -5.211-3.784zm4.99 5.966a42.847 42.847 0 0 0 6.495 3.1 39.068 39.068 0 0 1 -4.47 1.782 41.267 41.267 0 0 1 -6.386-3.794 40.935 40.935 0 0 0 4.361-1.088zm2.51-.861a40.792 40.792 0 0 0 5.127-2.377 43.034 43.034 0 0 0 6.042 1.926 38.992 38.992 0 0 1 -4.744 3.151 40.993 40.993 0 0 1 -6.425-2.7zm11.384 1.915a10.957 10.957 0 0 1 -.808 1.91c-.5-.108-1-.227-1.5-.353q1.176-.738 2.308-1.557zm-6.435-6.514a40.934 40.934 0 0 1 -5.211-2.7 41.091 41.091 0 0 0 4.212-2.006 42.9 42.9 0 0 0 4.813 2.191 38.985 38.985 0 0 1 -3.818 2.515zm-12.8-5.953q1.543 1.413 3.2 2.665a38.863 38.863 0 0 1 -4.644 1.068l.13-.564a10.355 10.355 0 0 1 1.311-3.169zm-1.52 13.116a43.409 43.409 0 0 0 6.082 4c-.913.227-1.834.425-2.765.586a11.05 11.05 0 0 1 -3.32-4.586zm5.84 6.126c.992-.228 1.972-.5 2.941-.8q1.831.833 3.735 1.495a10.94 10.94 0 0 1 -6.676-.7zm9.729-.441a40.714 40.714 0 0 1 -4-1.337 41.2 41.2 0 0 0 4.463-2.042q1.344.408 2.72.728a11.061 11.061 0 0 1 -3.186 2.651zm4.375-16.833-.009.008a41.177 41.177 0 0 1 -4.572-1.924q1.238-.77 2.419-1.627a10.265 10.265 0 0 1 2.159 3.543zm-5.489-8.062a12.418 12.418 0 0 0 -11.06 1.338 19.488 19.488 0 0 0 -6.367-5.025 18.046 18.046 0 0 1 6.78 1.851 1 1 0 0 0 1.3-1.41 27.1 27.1 0 0 0 -8.153-8.551l-1.017-.679a19.337 19.337 0 0 1 10.607 5.452 1 1 0 0 0 1.7-.6 13.192 13.192 0 0 1 5.389-9.217 22.329 22.329 0 0 0 -3.373 8.965 1 1 0 0 0 1.8.723 15.747 15.747 0 0 1 8.206-5.894 22.232 22.232 0 0 0 -4.812 4.716 1 1 0 0 0 .8 1.6 24.835 24.835 0 0 1 6.355.821 15.176 15.176 0 0 0 -8.155 5.91z"/></g></svg>