<svg id="Capa_1" enable-background="new 0 0 512.005 512.005" height="512" viewBox="0 0 512.005 512.005" width="512" xmlns="http://www.w3.org/2000/svg"><g><g><path d="m284.584 98.52h-57.316c-17.844 0-28.513-14.109-25.321-30.068 1.796-8.978 5.621-14.345 13.787-18.723 3.041-1.63 5.748-5.506 9.28-6.201 2.299-.452 4.68-.69 7.113-.69 14.263 0 26.966-8.199 31.666-20.44l4.415-11.497c1.436-3.74 6.829-4.599 9.579-1.525l12.94 14.467c11.146 12.461 18.647 27.28 21.808 43.081l.19.947c3.191 15.959-10.297 30.649-28.141 30.649z" fill="#e3d2ff"/><path d="m312.245 77.862c-2.46 11.85-8.14 20.654-22.34 20.654l-27.872 7.554-34.766-7.554c-17.84 0-31.33-14.69-28.14-30.64 1.45-7.25 5.65-13.51 11.51-17.96 4.1-3.11 9.02-5.34 14.38-6.38-.37 1.08-.66 2.2-.89 3.34-3.19 15.95 10.3 30.64 28.14 30.64h54.346l2.681.362c1.049 0 1.931.093 2.951-.016z" fill="#c5b9ef"/><path d="m343.018 175.217h-174.185c-10.355 0-18.75-8.395-18.75-18.75v-1.698c0-14.554 8.655-27.522 17.724-37.509 4.467-4.919 6.666-9.338 12.615-12.431 7.755-4.031 16.566-6.31 25.91-6.31h99.185c31.066 0 56.25 25.184 56.25 56.25v1.698c.001 10.356-8.393 18.75-18.749 18.75z" fill="#e3d2ff"/><path d="m361.766 154.765v1.7c0 10.36-8.39 18.75-18.75 18.75h-174.18c-10.36 0-18.75-8.39-18.75-18.75v-1.7c0-21.72 12.31-40.57 30.34-49.93-3.43 7.26-5.34 15.37-5.34 23.93v1.7c0 10.36 8.39 18.75 18.75 18.75h167.66c.18 1.83.27 3.68.27 5.55z" fill="#c5b9ef"/><path d="m397.218 241.688h-282.584c-10.355 0-16.857-8.468-16.857-18.823v-1.698c0-19.949 14.614-39.431 30.272-49.418 8.726-5.566 12.967-6.759 24.085-6.759h207.584c31.066 0 56.25 25.184 56.25 56.25v1.698c0 10.356-8.395 18.75-18.75 18.75z" fill="#e3d2ff"/><path d="m415.966 221.245v1.69c0 10.36-8.39 18.75-18.75 18.75l-152.205 9.065-130.375-9.065c-10.36 0-18.75-8.39-18.75-18.75v-1.69c0-22.88 13.65-42.56 33.25-51.35-5.23 8.54-8.25 18.59-8.25 29.35v1.69c0 10.36 8.39 18.75 18.75 18.75h276.31c.01.52.02 1.04.02 1.56z" fill="#c5b9ef"/><path d="m83.343 318.386c-14.536 0-23.523-12.084-23.523-26.619v-1.698c0-26.886 18.999-48.381 45.885-48.381h300.443c26.886 0 48.681 21.795 48.681 48.681v.846l-1.328 1.322c0 14.536-10.456 25.849-24.991 25.849l-47.702 27.221-248.959-.358z" fill="#e3d2ff"/><path d="m422.166 280.955c-14.374 0-27.719 5.389-37.892 14.403-1.136 1.006-2.837 1.007-3.971-.002-10.385-9.233-23.795-14.401-37.937-14.401h-4.6c-14.245 0-27.268 5.171-37.278 13.765-1.124.965-2.777.966-3.899-.001-10.342-8.913-23.367-13.764-37.213-13.764h-6.9c-13.846 0-26.87 4.851-37.213 13.764-1.122.967-2.776.966-3.9.001-10.01-8.594-23.033-13.765-37.278-13.765h-3.73c-14.086 0-27.476 5.142-37.85 14.331-1.133 1.004-2.829 1.003-3.964.001-10.153-8.969-23.463-14.332-37.846-14.332h-1.01c-2.6 0-5.176.181-7.715.531-2.104.29-3.83-1.684-3.281-3.735 5.557-20.766 24.492-36.065 47.016-36.065h-20c-26.89 0-48.68 21.8-48.68 48.68v1.7c0 14.54 11.78 26.32 26.32 26.32l48.5 26.86 248.96.36 47.7-27.22c14.54 0 26.32-11.78 26.32-26.32v-.85c-9.459-6.591-20.829-10.261-32.659-10.261z" fill="#c5b9ef"/><circle cx="147.355" cy="164.991" fill="#fff0af" r="20.453"/><circle cx="364.497" cy="164.991" fill="#ff8086" r="20.453"/><circle cx="255.926" cy="164.991" fill="#99dbff" r="20.453"/><circle cx="203.486" cy="97.497" fill="#ff8086" r="20.453"/><circle cx="308.365" cy="97.497" fill="#fff0af" r="20.453"/><circle cx="416.764" cy="240.922" fill="#99dbff" r="21.151"/><circle cx="95.087" cy="241.62" fill="#99dbff" r="20.453"/><circle cx="199.305" cy="241.62" fill="#ff8086" r="20.453"/><circle cx="311.546" cy="241.62" fill="#fff0af" r="20.453"/><g><path d="m131.849 345.249 8.072 65.863 21.407 93.398 27.546-5.195 31.066 5.195 2.305-98.397-9.028-69.559c-.841-21.004-18.113-37.598-39.133-37.598h-3.723c-24.487 0-42.969 22.216-38.512 46.293z" fill="#fff0af"/><path d="m298.636 336.554-6.031 69.265-.692 98.691 28.236-4.019 29.716 4.019 23.5-94.838 7.443-64.066c4.708-24.18-13.809-46.651-38.443-46.651h-4.595c-21.021.001-38.293 16.595-39.134 37.599z" fill="#fff0af"/><g fill="#f6d190"><path d="m56.421 353.78 49.32 134.872c3.126 8.49 11.214 14.131 20.262 14.131l35.324 1.727-32.117-173.517c-3.436-18.566-19.63-32.037-38.511-32.037h-1.013c-13.218 0-24.476 6.385-31.491 15.879-7.444 10.076-6.621 25.78-1.774 38.945z"/><path d="m383.722 330.635-33.857 173.875 35.984-1.727c9.048 0 17.136-5.641 20.262-14.131l2.885-1.417 49.922-135.581c9.414-25.568-9.507-52.697-36.753-52.697-18.744-.001-34.86 13.28-38.443 31.678z"/><path d="m291.913 504.51-33.801-5.489-38.174 5.489-6.598-164.823c-.89-22.227 16.889-40.731 39.133-40.731h6.903c22.245 0 40.023 18.504 39.133 40.731z"/><path d="m219.937 504.506h-58.608l-7.884-6.955 4.689-10.318h61.112l5.055 8.636z"/><path d="m353.225 487.233 3.087 8.636-6.446 8.637h-57.952l-4.695-6.661 5.386-10.612z"/></g><path d="m161.329 504.506h-37.051c-9.051 0-17.135-5.64-20.261-14.129l-51.085-138.721c-4.845-13.162-2.185-26.747 5.268-36.818l62.019 169.57c.622 1.693 2.254 2.824 4.059 2.824h33.855z" fill="#ecbd83"/><path d="m408.991 487.233-1.157 3.144c-3.127 8.49-11.21 14.129-20.262 14.129h-37.707l3.36-17.273z" fill="#ecbd83"/><path d="m292.605 487.233-.691 17.273h-71.977l-.691-17.273z" fill="#ecbd83"/></g></g><path d="m460.106 311.095c-.663-.934-1.363-1.828-2.081-2.701 2.426-4.322 4.472-11.632 4.206-18.024 0-15.874-6.851-31.071-18.525-41.658.595-2.266.914-4.641.914-7.091 0-13.233-9.247-24.341-21.617-27.22-1.844-19.458-13.355-37.382-30.702-47.777.031-.541.052-1.084.052-1.633 0-14.646-11.325-26.689-25.677-27.852-4.672-16.242-15.68-30.011-30.493-38.187.025-.482.038-.967.038-1.454 0-10.993-6.381-20.521-15.632-25.083-1.133-18.26-11.624-39.504-24.369-53.572l-12.94-14.467c-3.086-3.451-7.712-4.999-12.37-4.145-4.536.833-8.2 3.816-9.8 7.981l-4.415 11.496c-3.59 9.349-13.502 15.629-24.665 15.629-19.782 0-36.753 13.063-40.353 31.063-.4 2.001-.605 4.012-.615 6.018-9.024 4.352-16.246 15.119-15.589 26.506-14.845 8.184-25.843 21.959-30.511 38.217-14.37 1.119-26.566 14.247-25.602 29.523-17.125 10.335-28.431 27.947-30.594 47.712-12.425 2.838-21.728 13.973-21.728 27.246 0 2.449.319 4.825.914 7.091-11.675 10.588-18.525 25.783-18.525 41.658-.209 5.152 1.042 12.306 4.384 18.345-10.114 11.846-13.59 30.954-7.786 46.131l50.857 138.121c4.193 11.388 15.164 19.039 27.299 19.039h263.295c12.136 0 23.105-7.651 27.299-19.039l39.299-106.729c1.432-3.888-.56-8.198-4.446-9.63-3.892-1.431-8.199.56-9.63 4.446l-39.299 106.729c-2.031 5.517-7.345 9.223-13.223 9.223h-28.609l28.711-147.447c0-.001 0-.001 0-.002s0-.002.001-.004l3.405-17.485c2.89-14.841 15.961-25.612 31.08-25.612 10.39 0 19.799 4.856 25.812 13.325 6.019 8.475 7.511 18.95 4.095 28.743-1.365 3.911.699 8.188 4.61 9.552 3.91 1.363 8.188-.701 9.552-4.61 5.039-14.441 2.843-29.885-6.027-42.372zm-30.486-69.475c0 7.143-5.811 12.953-12.953 12.953s-12.952-5.811-12.952-12.953 5.811-12.953 12.952-12.953c7.143 0 12.953 5.811 12.953 12.953zm-52.267-76.629c0 7.143-5.811 12.953-12.952 12.953-7.143 0-12.953-5.811-12.953-12.953s5.811-12.952 12.953-12.952c7.141-.001 12.952 5.81 12.952 12.952zm-69.084-54.541c-7.143 0-12.953-5.811-12.953-12.952 0-7.143 5.811-12.953 12.953-12.953s12.952 5.811 12.952 12.953c0 7.141-5.811 12.952-12.952 12.952zm-76.239-60.113c17.328 0 32.867-10.147 38.668-25.251l3.298-8.59 11.044 12.346c9.98 11.037 17.677 26.183 20.288 40.858-11.865 1.246-21.537 9.948-24.247 21.32h-50.505c-2.709-11.372-12.38-20.073-24.245-21.32 1.748-10.627 13.027-19.358 25.699-19.363zm-28.64 34.207c7.142 0 12.953 5.811 12.953 12.953s-5.811 12.952-12.953 12.952-12.953-5.811-12.953-12.952c0-7.142 5.811-12.953 12.953-12.953zm-22.957 28.874c5.053 7.264 13.456 12.031 22.956 12.031 12.442 0 23.007-8.172 26.619-19.43h51.64c3.613 11.257 14.178 19.43 26.62 19.43 9.499 0 17.901-4.767 22.955-12.03 9.805 6.128 17.156 15.565 20.657 26.59-6.966 3.505-12.27 9.836-14.403 17.48h-54.727c-3.286-11.781-14.107-20.452-26.922-20.452s-23.636 8.671-26.922 20.452h-54.726c-2.133-7.647-7.441-13.979-14.41-17.484 3.499-11.029 10.846-20.456 20.663-26.587zm88.348 51.573c0 7.143-5.811 12.953-12.952 12.953-7.142 0-12.953-5.811-12.953-12.953s5.811-12.952 12.953-12.952c7.142-.001 12.952 5.81 12.952 12.952zm-121.523-12.953c7.142 0 12.953 5.811 12.953 12.952 0 7.143-5.811 12.953-12.953 12.953s-12.953-5.811-12.953-12.953c0-7.141 5.811-12.952 12.953-12.952zm-22.757 29.154c5.073 7.106 13.38 11.752 22.757 11.752 12.815 0 23.636-8.672 26.922-20.453h54.727c3.286 11.781 14.107 20.453 26.922 20.453s23.635-8.672 26.922-20.453h54.727c3.287 11.781 14.108 20.453 26.923 20.453 9.396 0 17.717-4.665 22.787-11.795 11.613 7.959 19.307 20.43 20.813 33.9-8.86 2.897-15.781 10.107-18.276 19.14h-51.334c-3.264-11.816-14.103-20.521-26.942-20.521s-23.678 8.705-26.941 20.521h-58.358c-3.264-11.816-14.102-20.521-26.942-20.521s-23.678 8.705-26.942 20.521h-50.334c-2.483-8.989-9.349-16.171-18.147-19.096 1.767-13.718 9.315-26.008 20.716-33.901zm199.901 60.428c0 7.143-5.811 12.953-12.953 12.953s-12.952-5.811-12.952-12.953 5.811-12.953 12.952-12.953c7.143 0 12.953 5.811 12.953 12.953zm-112.241 0c0 7.143-5.811 12.953-12.953 12.953s-12.953-5.811-12.953-12.953 5.811-12.953 12.953-12.953 12.953 5.811 12.953 12.953zm-117.17-12.953c7.142 0 12.953 5.811 12.953 12.953s-5.811 12.953-12.953 12.953-12.953-5.811-12.953-12.953 5.811-12.953 12.953-12.953zm29.191 268.338c-5.878 0-11.192-3.706-13.223-9.223l-50.858-138.121c-3.679-9.991-2.296-20.73 3.795-29.464 6.091-8.733 15.691-13.742 26.338-13.742 15.479 0 28.758 11.047 31.575 26.268l2.947 15.922v.001.001l11.239 60.723c.754 4.073 4.668 6.762 8.739 6.01 4.073-.754 6.764-4.667 6.01-8.74l-11.24-60.725c-1.81-9.782.8-19.777 7.162-27.425 6.362-7.647 15.717-12.034 25.666-12.034 19.791-.012 32.715 17.082 33.562 37.117l8.994 153.433h-47.419l-10.369-56.018c-.753-4.072-4.663-6.756-8.74-6.01-4.073.754-6.763 4.667-6.009 8.74l9.863 53.287zm219.404 0h-46.818c.003-.051 8.728-148.83 8.988-153.333 1.13-19.616 14.132-37.52 33.945-37.217 10.126 0 19.627 4.482 26.066 12.297 6.439 7.813 9.022 17.993 7.09 27.931zm37.906-181.903c-1.232-2.043-2.606-4.016-4.149-5.888-9.3-11.285-23.02-17.758-37.643-17.758-17.611 0-33.022 9.245-41.598 23.241-5.118-8.093-12.577-14.714-21.769-18.854-3.775-1.7-8.217-.018-9.919 3.759-1.7 3.777-.018 8.218 3.759 9.919 13.072 5.887 21.155 18.933 20.608 33.249l-9.041 154.236h-51.826l-9.042-154.238c-.549-14.399 7.602-27.476 20.78-33.324 3.786-1.681 5.493-6.112 3.812-9.898-1.679-3.785-6.11-5.491-9.897-3.812-9.263 4.111-16.781 10.725-21.941 18.83-8.5-13.913-23.805-23.106-41.295-23.106-14.418 0-27.976 6.357-37.197 17.441-1.566 1.883-2.962 3.87-4.21 5.931-8.25-14.133-23.55-23.372-40.692-23.372-8.845 0-17.371 2.5-24.7 7.014-.58-1.634-1.22-4.691-1.107-8.1 0-10.792 4.085-20.837 11.387-28.44 5.009 4.733 11.758 7.644 19.177 7.644 12.79 0 23.594-8.638 26.903-20.385h50.412c3.309 11.746 14.113 20.385 26.903 20.385s23.594-8.638 26.903-20.385h58.435c3.309 11.746 14.112 20.385 26.902 20.385s23.594-8.638 26.903-20.385h51.412c3.309 11.746 14.112 20.385 26.902 20.385 7.419 0 14.167-2.911 19.177-7.644 7.302 7.603 11.388 17.649 11.388 28.439-.053 2.276.249 2.83-.999 7.767-7.143-4.334-15.417-6.681-24.168-6.681-17.121-.002-32.452 9.378-40.57 23.645z"/></g></svg>