<svg id="Layer_3" height="512" viewBox="0 0 64 64" width="512" xmlns="http://www.w3.org/2000/svg" data-name="Layer 3"><path d="m31.474 17.79 2.526-11.79h9v-4h-12l-2.784 11.693-1.622 6.178z" fill="#a5a5a5"/><path d="m34 27-4 35h-22l-4-35z" fill="#e57c86"/><path d="m24.24 30.514 7.607-3.514h-27.847l4 35h15.112l-6.312-4.768a5.125 5.125 0 0 1 .553-8.544 7.258 7.258 0 0 0 3.173-8.946 7.259 7.259 0 0 1 3.714-9.228z" fill="#e55c61"/><path d="m7.08 18.941a7 7 0 0 1 6.92-5.941h4.757a10.242 10.242 0 0 0 7.243-3l3 5-2.653 3.941z" fill="#e55c61"/><path d="m2 23h34v4h-34z" fill="#cecece"/><path d="m5 23a5 5 0 0 1 5-5h4.384a37.112 37.112 0 0 0 14.616-3l1.172 1.172a9.656 9.656 0 0 1 2.828 6.828z" fill="#e57c86"/><path d="m8 62h22l.686-6h-23.372z" fill="#cecece"/><path d="m16.039 60h14.19l.457-4h-20.818a6.766 6.766 0 0 0 6.171 4z" fill="#d8d8d8"/><path d="m9 25h27v-2h-30.445a3.982 3.982 0 0 0 3.445 2z" fill="#d8d8d8"/><path d="m9.472 28.786a1.368 1.368 0 0 0 -1.359 1.514l1.611 14.8a1.483 1.483 0 0 0 1.476 1.324 1.484 1.484 0 0 0 1.472-1.667l-1.843-14.773a1.367 1.367 0 0 0 -1.357-1.198z" fill="#fff"/><path d="m10.682 50.905.255 1.42a1.388 1.388 0 0 0 1.405 1.142 1.388 1.388 0 0 0 1.321-1.667l-.295-1.412a1.37 1.37 0 0 0 -1.339-1.088 1.368 1.368 0 0 0 -1.347 1.605z" fill="#fff"/><path d="m27.035 51.805 15.965-16.805 15.965 16.805-6.555 6.678h-19.344z" fill="#db4954"/><path d="m32.035 55.805 2.418 2.678h17.957l6.555-6.678-11.565-12.173z" fill="#e55c61"/><path d="m27.035 51.805 1.65 1.283a23.313 23.313 0 0 0 14.315 4.912 23.313 23.313 0 0 0 14.315-4.912l1.65-1.283 3.035 3.195-1.106.861a29.147 29.147 0 0 1 -17.894 6.139 29.147 29.147 0 0 1 -17.894-6.139l-1.106-.861z" fill="#346664"/><g fill="#828282"><path d="m39 52h2v2h-2z"/><path d="m34 50h2v2h-2z"/><path d="m39 46h2v2h-2z"/><path d="m45 52h2v2h-2z"/><path d="m50 50h2v2h-2z"/><path d="m45 46h2v2h-2z"/></g><path d="m2 28h1.108l3.9 34.113a1 1 0 0 0 .992.887h22a1 1 0 0 0 .993-.887l.177-1.55a30.064 30.064 0 0 0 30.338-3.914l1.106-.86a1 1 0 0 0 .111-1.477l-19-20a1.028 1.028 0 0 0 -1.45 0l-9.213 9.7 1.83-16.012h1.108a1 1 0 0 0 1-1v-4a1 1 0 0 0 -1-1h-2.049a10.535 10.535 0 0 0 -1.418-4.381l2.276-10.619h8.191a1 1 0 0 0 1-1v-4a1 1 0 0 0 -1-1h-12a1 1 0 0 0 -.973.769l-2.216 9.306-.954-1.59a1 1 0 0 0 -1.564-.192 9.18 9.18 0 0 1 -6.535 2.707h-4.758a8.049 8.049 0 0 0 -7.828 6.384 6 6 0 0 0 -2.082 3.616h-2.09a1 1 0 0 0 -1 1v4a1 1 0 0 0 1 1zm27.107 33h-20.214l-.458-4h16.549a29.957 29.957 0 0 0 4.277 2.659zm31.172-5.929a28.143 28.143 0 0 1 -34.558 0l-.236-.182 1.652-1.738.934.727a24.318 24.318 0 0 0 29.858 0l.934-.727 1.652 1.738zm-17.279-18.619 14.479 15.242-.779.606a22.317 22.317 0 0 1 -27.4 0l-.779-.606zm-12.226 9.966-7.5 7.894a.985.985 0 0 0 -.262.688h-14.805l-3.087-27h27.76zm1.016-43.418h10.21v2h-8a1 1 0 0 0 -.978.791l-2.086 9.736c-.02-.02-.037-.042-.057-.063l-1.085-1.084-.511-.852zm-17.79 11h4.758a11.162 11.162 0 0 0 7.007-2.449l1.773 2.957a35.886 35.886 0 0 1 -13.154 2.492h-4.384a6.048 6.048 0 0 0 -1.263.136 6.043 6.043 0 0 1 5.263-3.136zm-4 5h4.384a37.873 37.873 0 0 0 14.384-2.819l.7.7a8.592 8.592 0 0 1 2.469 5.119h-25.795a4 4 0 0 1 3.858-3zm-7 5h32v2h-32z"/><path d="m39 52h2v2h-2z"/><path d="m34 50h2v2h-2z"/><path d="m39 46h2v2h-2z"/><path d="m45 52h2v2h-2z"/><path d="m50 50h2v2h-2z"/><path d="m45 46h2v2h-2z"/></svg>