<svg id="Capa_1" enable-background="new 0 0 512.044 512.044" height="512" viewBox="0 0 512.044 512.044" width="512" xmlns="http://www.w3.org/2000/svg"><g><g><path d="m14.179 497.66c-7.026-7.028-7.282-16.716-.255-23.745l231.3-228.066 23.197 23.204-229.894 229.959c-2.368 2.368-5.231 3.939-8.257 4.712-5.956 1.522-11.429-1.402-16.091-6.064z" fill="#f6d190"/><path d="m31.068 478.566c-6.9 6.89-7.03 17.99-.39 25.04-6.06 1.71-12.84.18-17.61-4.59-7.03-7.03-7.03-18.43 0-25.45l229.9-229.97 11.5 11.5z" fill="#ecbd83"/><path d="m461.243 46.17c-51.164-49.662-127.678-48.856-178.298 1.362-39.915 39.599-47.166 96.759-25.64 145.198 3.569 8.031 1.763 17.437-4.45 23.651l-15.042 13.302c-4.165 4.167-4.165 10.922 0 15.089l29.432 29.441c4.165 4.167 10.919 4.167 15.085 0l5.187-5.188 8.433-8.435c6.255-6.257 15.706-7.965 23.794-4.381 13.438 5.955 27.67 12.545 42.064 13.772 15.155 1.292 30.491-.037 45.272-3.986l54.844-38.462 34.346-42.715c4.816-12.977 7.516-26.562 8.098-40.22 1.539-36.131-15.035-71.162-43.125-98.428z" fill="#fff0af"/><g><g><g fill="#e3d2ff"><path d="m496.268 184.816c-6.37 17.19-16.47 33.31-30.28 47.13-16.93 16.93-37.33 28.28-58.91 34.04-3.76-2.16-7.91-5.16-13.09-10.35-16.61-16.61-10.71-22.52-27.31-39.12-16.6-16.61-22.51-10.7-39.11-27.31s-10.7-22.51-27.3-39.12c-16.59-16.6-22.49-10.69-39.1-27.3-8.95-8.95-11.35-14.79-14.29-20.88l37.599-52.843 43.561-33.577c3.32 6.67 5.33 12.71 15.04 22.43 16.6 16.6 22.5 10.7 39.09 27.3 16.61 16.6 10.7 22.51 27.3 39.11 16.61 16.61 22.51 10.71 39.11 27.31 16.6 16.61 10.7 22.51 27.31 39.13 8.7 8.71 14.47 11.22 20.38 14.05z"/><path d="m361.808 269.976c-14.39-1.22-28.62-4.81-42.06-10.77-8.09-3.58-17.54-1.87-23.8 4.38l-8.432 8.438-5.188 3.192c-4.16 4.16-10.92 4.16-15.08 0l-31.43-30.44c-4.17-4.17-4.17-10.93 0-15.09l15.517-14.305c6.22-6.22 8.02-15.62 4.45-23.66-5.68-12.79-12.127-25.605-13.527-39.295 8.64 5.15 15.43 6.73 27.89 19.19 18.75 18.76 12.85 24.67 31.6 43.42 18.75 18.76 24.66 12.86 43.41 31.61 10.19 10.2 13.1 16.61 16.65 23.33z"/><path d="m504.358 144.596c-.39-.36-.77-.74-1.17-1.14-16.61-16.62-10.71-22.52-27.31-39.13-16.6-16.6-22.5-10.7-39.11-27.3-16.6-16.61-10.69-22.52-27.3-39.12-16.59-16.6-22.49-10.7-39.09-27.3-1-1 .864-.835.014-1.755 16.184-.664 28.555 2.153 44.043 7.404 11.594 3.931 23.882 7.88 34.199 15.129 5.562 3.908 10.883 8.298 15.904 13.172 28.09 27.27 41.37 63.91 39.82 100.04z"/></g></g></g><g fill="#ffe07d"><path d="m262.488 164.676-11.798-3.442-8.422-8.798c-.91-8.83-.92-17.73-.04-26.56-.01 0-.01.01-.01.01 1.35-15.06 4.66-23.98 4.66-23.98l9.11 8.264 4.79 12.226c-2.1 14.19-1.5 28.49 1.71 42.28z"/><path d="m378.828 17.936c-14.94 1.04-29.74 4.61-43.67 10.71l-7.12-6.2v-6.95c12.78-4.62 26.15-7.21 39.59-7.75l7.488 4.807z"/></g><g fill="#c3aff0"><path d="m287.518 272.026-5.19 5.19c-4.16 4.16-10.92 4.16-15.08 0l-32.43-32.44c-4.17-4.17-4.17-10.93 0-15.09l13.61-13.62c6.22-6.22 8.02-15.62 4.45-23.66-.04-1.087-7.572-13.486-10.61-39.97 6.68 3.98 12.26 5.83 20.22 12.24 1.61 6.97 3.89 13.8 6.84 20.43 6.54 14.7 3.25 32.26-8.17 43.68l-4.19 4.2c-2.34 2.34-2.34 6.14 0 8.48z"/><path d="m335.158 28.646c-36.801 15.904-68.909 52.194-74.38 93.75-8.63-8.73-11-14.49-13.9-20.49 7.571-26.868 26.199-53.315 49.97-70.11 9.054-6.333 18.977-11.917 31.19-16.31v.01c2.12 4.27 3.71 8.27 7.12 13.15z"/><path d="m453.228 34.786c-19.694-11.447-48.058-19.039-74.4-16.85-2.705-1.983-7.006-5.645-11.21-10.2 28.892-.937 59.185 6.627 85.61 27.05z"/></g><path d="m448.903 251.447-189.064-187.702c-7.808-7.81-7.808-20.47 0-28.28l4.468-4.018c6.304-6.306 15.618-9.026 23.142-5.153 1.798.926 3.486 2.142 4.993 3.649l189.943 189.997c7.808 7.81 7.808 20.47 0 28.28l-5.791 5.793c-1.18 1.181-2.471 2.183-3.84 3.006-7.688 4.629-17.22 1.06-23.851-5.572z" fill="#c3aff0"/><path d="m472.758 257.026c-7.69 4.62-17.82 3.62-24.45-3.01l-189.95-190c-7.8-7.81-7.8-20.47 0-28.28l5.8-5.79c6.3-6.31 15.77-7.53 23.29-3.65l-18.48 20.04c-1.95 1.95-1.95 5.13 0 7.08z" fill="#ad96ed"/></g><path d="m472.297 41.746c-2.898-2.96-7.647-3.01-10.605-.111-2.96 2.897-3.01 7.646-.111 10.605 18.399 18.79 29.758 42.155 33.798 66.592-2.602-5.369-5.985-11.512-14.214-19.744-9.221-9.223-15.822-12.362-21.647-15.133-5.415-2.574-10.092-4.799-17.483-12.192s-9.614-12.071-12.188-17.487c-2.77-5.826-5.908-12.431-15.129-21.654-10.044-9.796-15.896-12.407-23.986-16.255 15.477 2.217 30.641 7.34 44.595 15.435 3.584 2.08 8.174.86 10.251-2.724 2.078-3.583.859-8.173-2.724-10.251-45.703-26.514-102.969-24.697-146.819 4.377-4.979-4.273-11.248-6.609-17.879-6.609-7.351 0-14.26 2.862-19.456 8.06l-5.797 5.797c-10.653 10.658-10.716 27.951-.199 38.693-22.436 38.524-25.057 85.423-6.835 126.428 2.284 5.141 1.118 11.297-2.902 15.318l-13.626 13.63c-6.47 6.47-7.012 16.638-1.666 23.752l-126.442 126.476c-2.929 2.93-2.928 7.679.001 10.606 1.465 1.465 3.384 2.196 5.303 2.196 1.92 0 3.84-.732 5.304-2.197l126.297-126.332 14.861 14.865-220.07 220.131c-3.32 3.267-10.166 4.6-14.864-.001-4.097-4.097-4.097-10.764 0-14.86l69.015-69.035c2.929-2.93 2.928-7.679-.001-10.606-2.931-2.932-7.68-2.929-10.606.001l-69.015 69.035c-9.943 9.944-9.943 26.127-.001 36.07 8.835 9.189 26.094 10.306 36.081.001l220.207-220.268c3.13 2.36 6.911 3.654 10.899 3.654 4.854 0 9.419-1.891 12.851-5.324l13.628-13.632c4.074-4.076 10.146-5.188 15.468-2.829 40.935 18.138 87.78 15.498 126.23-6.9l.147.147c5.196 5.197 12.106 8.061 19.456 8.061 7.351 0 14.261-2.863 19.458-8.061l5.794-5.797c10.332-10.333 10.706-26.907 1.13-37.697 36.262-54.481 29.581-127.162-16.509-174.231zm-165.339-7.743c5.545-3.476 11.312-6.477 17.245-8.998 2.522 5.011 5.998 10.76 13.465 18.229 9.221 9.224 15.824 12.363 21.649 15.133 5.412 2.573 10.087 4.796 17.473 12.185 7.392 7.394 9.614 12.071 12.188 17.487 2.77 5.827 5.908 12.431 15.13 21.654 9.221 9.224 15.823 12.363 21.648 15.134 5.415 2.574 10.091 4.799 17.481 12.191s9.614 12.07 12.189 17.487c2.771 5.828 5.91 12.435 15.136 21.662 6.353 6.354 11.439 9.822 16.179 12.397-2.468 5.656-5.386 11.178-8.753 16.518zm97.151 9.223c7.392 7.394 9.614 12.071 12.188 17.487 2.77 5.827 5.908 12.431 15.129 21.654s15.823 12.363 21.648 15.134c5.415 2.574 10.091 4.799 17.481 12.191s9.614 12.07 12.189 17.486c2.652 5.581 5.659 11.879 14.005 20.503-.619 8.961-2.217 17.883-4.8 26.601-3.025-1.828-6.449-4.39-10.779-8.721-7.396-7.398-9.62-12.078-12.196-17.497-2.77-5.826-5.908-12.43-15.128-21.652-9.221-9.223-15.822-12.362-21.647-15.133-5.415-2.574-10.092-4.799-17.483-12.192s-9.615-12.071-12.189-17.488c-2.769-5.826-5.907-12.43-15.128-21.653-9.216-9.219-15.816-12.357-21.641-15.126-5.414-2.574-10.091-4.798-17.482-12.191-5.16-5.161-7.797-8.998-9.797-12.687 8.498-2.438 17.215-3.956 25.994-4.553 7.91 8.264 16.838 13.343 22.162 15.653 5.412 2.573 10.087 4.796 17.474 12.184zm-113.595 215.221-13.629 13.633c-.809.809-1.752.929-2.242.929s-1.434-.12-2.243-.93l-32.452-32.461c-1.238-1.238-1.238-3.254 0-4.492l13.626-13.63c8.376-8.379 10.788-21.244 6.003-32.015-3.315-7.458-5.844-15.137-7.622-22.924 3.637 2.297 7.644 5.371 12.739 10.467 8.569 8.572 11.435 14.07 14.467 19.892 3.263 6.262 6.96 13.358 17.154 23.556 10.2 10.203 17.297 13.902 23.56 17.167 5.816 3.032 11.312 5.897 19.876 14.464 3.158 3.159 5.516 5.862 7.414 8.345-8.328-1.776-16.539-4.412-24.499-7.939-11.036-4.889-23.656-2.559-32.152 5.938zm75.928 4.558c-3.284-6.188-7.161-12.583-16.083-21.508-10.194-10.197-17.289-13.896-23.55-17.159-5.818-3.033-11.315-5.899-19.886-14.472-8.563-8.566-11.428-14.062-14.459-19.882-3.264-6.264-6.962-13.362-17.162-23.565-10.202-10.204-17.304-13.906-23.568-17.172-.876-.456-1.723-.902-2.566-1.354-.626-8.674-.339-17.377.857-25.968 1.6 1.948 3.462 4.008 5.692 6.239 9.222 9.224 15.824 12.363 21.649 15.133 5.412 2.573 10.087 4.796 17.474 12.185 7.392 7.394 9.614 12.071 12.189 17.488 2.769 5.826 5.907 12.431 15.128 21.653 9.221 9.224 15.823 12.363 21.648 15.134 5.415 2.574 10.091 4.799 17.482 12.191 7.391 7.393 9.614 12.071 12.189 17.487 2.33 5.215 7.064 13.997 16.13 22.624-7.668 1.039-15.423 1.357-23.164.946zm110.624-19.937-5.794 5.797c-2.363 2.364-5.506 3.666-8.85 3.666-3.343 0-6.485-1.302-8.849-3.666l-49.732-49.746c-2.927-2.93-7.676-2.929-10.606-.001-2.929 2.928-2.93 7.677-.001 10.606l38.57 38.58c-7.631 4.124-15.603 7.396-23.78 9.811-2.33-1.981-4.895-3.722-8.805-7.624-7.396-7.398-9.62-12.078-12.196-17.496-2.77-5.827-5.909-12.431-15.129-21.653-9.221-9.223-15.822-12.362-21.647-15.133-5.415-2.574-10.092-4.798-17.483-12.192-7.391-7.393-9.614-12.07-12.188-17.487-2.769-5.826-5.908-12.431-15.129-21.654-9.216-9.219-15.816-12.357-21.641-15.126-5.414-2.574-10.09-4.798-17.481-12.191-7.013-7.015-9.452-11.756-11.606-16.251 2.319-7.252 5.32-14.329 8.998-21.137l103.911 103.94c2.927 2.929 7.676 2.93 10.606.001 2.929-2.928 2.93-7.677.001-10.606l-114.723-114.756c-4.877-4.878-4.877-12.815-.001-17.692l5.797-5.797c2.363-2.364 5.505-3.666 8.848-3.666s6.485 1.302 8.85 3.666l190.062 190.115c4.876 4.878 4.876 12.814-.002 17.692z"/></g></svg>