<svg id="Capa_1" enable-background="new 0 0 512.002 512.002" height="512" viewBox="0 0 512.002 512.002" width="512" xmlns="http://www.w3.org/2000/svg"><g><g><path d="m256.38 503.704h-.758c-14.661 0-25.174-11.318-25.174-25.979l.426-118.428h52.053v118.658c0 12.715-8.939 23.342-20.876 25.939-1.827.398-3.725-.19-5.671-.19z" fill="#f6d190"/><path d="m262.501 503.782c-1.96.47-4.01.72-6.12.72h-.76c-14.66 0-26.55-11.89-26.55-26.55v-118.65h13v118.65c0 12.55 8.72 23.08 20.43 25.83z" fill="#ecbd83"/><g><path d="m321.083 373.427-130.165.218c-19.65 0-35.58-15.93-35.58-35.58l1.191-227.745c0-35.626 16.447-67.934 45.106-86.383 2.649-1.705 5.378-3.961 8.233-5.408 5.797-2.939 11.939-5.354 18.372-7.175 18.149-5.137 37.367-5.137 55.517 0 43.881 12.419 74.173 52.474 74.173 98.079v229.67c0 5.588-1.288 10.876-3.584 15.582-.472.968-1.374 1.905-1.945 2.806-6.409 10.119-18.406 15.936-31.318 15.936z" fill="#a36b5b"/><g fill="#8e5644"><path d="m354.34 354.682c-5.77 11.84-17.93 20-31.99 20h-132.7c-19.65 0-35.58-15.93-35.58-35.58v-229.67c0-42.02 25.72-79.33 64.08-94.64-26.59 13.91-44.08 41.83-44.08 72.64v251.67c0 8.59 6.99 15.58 15.58 15.58z"/><path d="m292.27 301.198h-.42c-8.116 0-14.695-6.579-14.695-14.695v-190.821c0-8.116 6.579-14.695 14.695-14.695h.42c8.116 0 14.695 6.579 14.695 14.695v190.821c.001 8.116-6.579 14.695-14.695 14.695z"/><path d="m220.149 301.198h-.42c-8.116 0-14.695-6.579-14.695-14.695v-190.821c0-8.116 6.579-14.695 14.695-14.695h.42c8.116 0 14.695 6.579 14.695 14.695v190.821c0 8.116-6.579 14.695-14.695 14.695z"/></g></g></g></g><g><path d="m343.283 43.426c-14.49-19.161-34.367-32.746-57.481-39.288-19.496-5.517-40.106-5.517-59.602 0-23.115 6.542-42.992 20.127-57.481 39.288-14.49 19.16-22.149 41.985-22.149 66.008v22.568c0 4.143 3.358 7.5 7.5 7.5s7.5-3.357 7.5-7.5v-22.568c0-42.048 28.257-79.412 68.716-90.862 16.822-4.763 34.607-4.763 51.432 0 40.459 11.45 68.716 48.814 68.716 90.862v229.67c0 15.483-12.597 28.08-28.08 28.08h-132.705c-15.483 0-28.08-12.597-28.08-28.08v-172.102c0-4.143-3.358-7.5-7.5-7.5s-7.5 3.357-7.5 7.5v172.102c0 23.755 19.326 43.08 43.08 43.08h31.926v29.818c0 4.143 3.358 7.5 7.5 7.5s7.5-3.357 7.5-7.5v-29.818h11.925v64.621c0 4.143 3.358 7.5 7.5 7.5s7.5-3.357 7.5-7.5v-64.621h11.925v95.393c0 10.711-8.714 19.426-19.425 19.426s-19.425-8.715-19.425-19.426v-30.574c0-4.143-3.358-7.5-7.5-7.5s-7.5 3.357-7.5 7.5v30.574c0 18.982 15.443 34.426 34.425 34.426s34.425-15.443 34.425-34.426v-95.393h31.926c23.754 0 43.08-19.325 43.08-43.08v-229.67c.001-24.023-7.658-46.848-22.148-66.008z"/><path d="m277.157 169.502c-4.142 0-7.5 3.357-7.5 7.5v109.291c0 12.354 10.051 22.405 22.405 22.405s22.405-10.051 22.405-22.405v-190.4c0-12.354-10.051-22.405-22.405-22.405s-22.405 10.051-22.405 22.405v46.109c0 4.143 3.358 7.5 7.5 7.5s7.5-3.357 7.5-7.5v-46.11c0-4.083 3.322-7.405 7.405-7.405s7.405 3.322 7.405 7.405v190.4c0 4.083-3.322 7.405-7.405 7.405s-7.405-3.322-7.405-7.405v-109.29c0-4.143-3.358-7.5-7.5-7.5z"/><path d="m242.345 286.293v-190.4c0-12.354-10.051-22.405-22.405-22.405s-22.405 10.051-22.405 22.405v190.4c0 12.354 10.051 22.405 22.405 22.405s22.405-10.051 22.405-22.405zm-29.81 0v-190.4c0-4.083 3.322-7.405 7.405-7.405s7.405 3.322 7.405 7.405v190.4c0 4.083-3.322 7.405-7.405 7.405s-7.405-3.322-7.405-7.405z"/></g></svg>