<?xml version="1.0"?>
<svg xmlns="http://www.w3.org/2000/svg" xmlns:xlink="http://www.w3.org/1999/xlink" xmlns:svgjs="http://svgjs.com/svgjs" version="1.1" width="512" height="512" x="0" y="0" viewBox="0 0 512 512" style="enable-background:new 0 0 512 512" xml:space="preserve" class=""><rect width="512" height="512" rx="20" ry="20" fill="#eff1f7" shape="rounded" transform="matrix(0.74,0,0,0.74,66.56,66.56)"/><g transform="matrix(0.7,0,0,0.7,76.80014362335206,76.80000228881838)">
<g xmlns="http://www.w3.org/2000/svg">
	<path style="" d="M349.478,164.886c-1.559,0-3.137-0.437-4.543-1.351c-3.864-2.513-4.961-7.683-2.446-11.549   l87.298-134.251c2.514-3.866,7.683-4.963,11.549-2.446c3.866,2.513,4.961,7.683,2.448,11.549l-87.298,134.251   C354.885,163.548,352.208,164.886,349.478,164.886z" fill="#d9cfc8" data-original="#d6ccc5" class=""/>
	<path style="" d="M347.271,168.294c-1.282,0-2.582-0.297-3.802-0.922l-83.513-42.818   c-4.105-2.104-5.724-7.134-3.622-11.237c2.105-4.103,7.136-5.723,11.237-3.62l83.515,42.818c4.103,2.104,5.724,7.134,3.62,11.237   C353.228,166.636,350.305,168.294,347.271,168.294z" fill="#d9cfc8" data-original="#d6ccc5" class=""/>
	<path style="" d="M166.167,229.789c-1.87,0-3.749-0.624-5.305-1.906c-3.557-2.933-4.065-8.193-1.133-11.752   l89.415-108.504c2.933-3.558,8.193-4.065,11.753-1.134c3.556,2.933,4.064,8.193,1.133,11.752l-89.415,108.504   C170.963,228.753,168.574,229.789,166.167,229.789z" fill="#d9cfc8" data-original="#d6ccc5" class=""/>
	<path style="" d="M164.064,232.337c-1.328,0-2.677-0.318-3.931-0.991l-85.341-45.684   c-4.064-2.176-5.595-7.235-3.419-11.3c2.176-4.063,7.235-5.599,11.3-3.419l85.339,45.684c4.065,2.176,5.595,7.235,3.419,11.3   C169.928,230.736,167.045,232.337,164.064,232.337z" fill="#d9cfc8" data-original="#d6ccc5" class=""/>
</g>
<circle xmlns="http://www.w3.org/2000/svg" style="" cx="438.752" cy="19.251" r="18.364" fill="#f44321" data-original="#f44321" class=""/>
<circle xmlns="http://www.w3.org/2000/svg" style="" cx="255.589" cy="112.941" r="18.364" fill="#04c051" data-original="#04c051"/>
<circle xmlns="http://www.w3.org/2000/svg" style="" cx="164.074" cy="223.99" r="18.364" fill="#6ba4e9" data-original="#4d90f4" class=""/>
<circle xmlns="http://www.w3.org/2000/svg" style="" cx="72.381" cy="174.905" r="18.364" fill="#f9d25b" data-original="#485360" class=""/>
<path xmlns="http://www.w3.org/2000/svg" style="" d="M484.808,240.446l-0.027-29.321l-0.071-63.576c-0.012-10.943-8.892-19.804-19.833-19.792  l-52.007,0.055c-10.943,0.012-19.804,8.892-19.792,19.836l0.357,336.723l91.633-0.097L484.808,240.446z" fill="#f44321" data-original="#f44321" class=""/>
<path xmlns="http://www.w3.org/2000/svg" style="" d="M393.436,484.37l-0.208-196.133c-0.012-10.943-8.893-19.806-19.836-19.793l-52.007,0.056  c-10.943,0.012-19.804,8.891-19.792,19.835l0.207,196.134L393.436,484.37z" fill="#fe9900" data-original="#fe9900" class=""/>
<path xmlns="http://www.w3.org/2000/svg" style="" d="M301.8,484.468l-0.257-243.234c-0.013-10.943-8.893-19.804-19.834-19.792l-52.007,0.055  c-10.943,0.012-19.803,8.892-19.791,19.836l0.258,243.234L301.8,484.468z" fill="#04c051" data-original="#04c051"/>
<path xmlns="http://www.w3.org/2000/svg" style="" d="M210.169,484.566l-0.141-132.282c-0.012-10.943-8.892-19.806-19.834-19.793l-52.006,0.056  c-10.943,0.012-19.806,8.891-19.793,19.834l0.14,132.283L210.169,484.566z" fill="#1cc0f9" data-original="#1cc0f9" class=""/>
<path xmlns="http://www.w3.org/2000/svg" style="" d="M118.534,484.664l-0.194-181.463c-0.011-10.943-8.891-19.804-19.833-19.792l-52.006,0.056  c-10.945,0.011-19.806,8.891-19.793,19.834l0.194,181.462L118.534,484.664z" fill="#f9d25b" data-original="#485360" class=""/>
<circle xmlns="http://www.w3.org/2000/svg" style="" cx="347.27" cy="159.934" r="18.364" fill="#fe9900" data-original="#fe9900" class=""/>
<path xmlns="http://www.w3.org/2000/svg" style="" d="M411.032,147.647c-0.013-10.943,8.848-19.824,19.791-19.836l34.425-0.036  c-0.125-0.002-0.247-0.019-0.372-0.019l-52.007,0.055c-10.943,0.012-19.804,8.892-19.792,19.836l0.357,336.723l17.953-0.02  L411.032,147.647z" fill="#c6281c" data-original="#c6281c" class=""/>
<path xmlns="http://www.w3.org/2000/svg" style="" d="M319.548,288.334c-0.013-10.943,8.848-19.823,19.791-19.835l34.433-0.037  c-0.128-0.002-0.252-0.019-0.38-0.019l-52.007,0.056c-10.943,0.012-19.804,8.891-19.792,19.835l0.207,196.134l17.953-0.02  L319.548,288.334z" fill="#ef7a06" data-original="#ef7a06" class=""/>
<path xmlns="http://www.w3.org/2000/svg" style="" d="M227.865,241.332c-0.013-10.943,8.848-19.824,19.791-19.836l34.424-0.036  c-0.125-0.002-0.246-0.019-0.372-0.019l-52.007,0.055c-10.943,0.012-19.803,8.892-19.791,19.836l0.258,243.234l17.955-0.019  L227.865,241.332z" fill="#02a544" data-original="#02a544" class=""/>
<path xmlns="http://www.w3.org/2000/svg" style="" d="M136.347,352.381c-0.011-10.943,8.85-19.823,19.793-19.834l34.432-0.037  c-0.127-0.002-0.252-0.019-0.38-0.019l-52.006,0.056c-10.943,0.012-19.806,8.891-19.793,19.834l0.14,132.283l17.955-0.019  L136.347,352.381z" fill="#00a8e2" data-original="#00a8e2" class=""/>
<path xmlns="http://www.w3.org/2000/svg" style="" d="M44.662,303.299c-0.013-10.943,8.848-19.824,19.793-19.835l34.431-0.037  c-0.128-0.002-0.252-0.019-0.38-0.019l-52.006,0.056c-10.945,0.011-19.806,8.891-19.793,19.835l0.194,181.462l17.955-0.019  L44.662,303.299z" fill="#cbb746" data-original="#364351" class=""/>
<path xmlns="http://www.w3.org/2000/svg" style="" d="M497.704,482.034l-104.395,0.111l-117.717,0.126l-39.215,0.041l-65.179,0.07l-156.932,0.167  C6.379,482.556-0.009,488.957,0,496.846c0.008,7.887,6.408,14.275,14.297,14.267l156.932-0.167l65.18-0.07l39.215-0.041  l89.292-0.096l29.538-0.03l103.282-0.111c7.888-0.008,14.274-6.409,14.265-14.298C511.992,488.414,505.592,482.026,497.704,482.034z  " fill="#d9cfc8" data-original="#d6ccc5" class=""/>
<path xmlns="http://www.w3.org/2000/svg" style="opacity:0.1;enable-background:new    ;" d="M32.22,482.549l1.508-0.002v-0.019l-19.462,0.02  C6.379,482.556-0.009,488.957,0,496.846c0.008,7.887,6.408,14.275,14.297,14.267l17.575-0.019  c-7.712-0.196-13.91-6.49-13.919-14.249C17.945,488.957,24.331,482.556,32.22,482.549z" fill="#d9f5ba" data-original="#231f20" class=""/>
<g xmlns="http://www.w3.org/2000/svg">
</g>
<g xmlns="http://www.w3.org/2000/svg">
</g>
<g xmlns="http://www.w3.org/2000/svg">
</g>
<g xmlns="http://www.w3.org/2000/svg">
</g>
<g xmlns="http://www.w3.org/2000/svg">
</g>
<g xmlns="http://www.w3.org/2000/svg">
</g>
<g xmlns="http://www.w3.org/2000/svg">
</g>
<g xmlns="http://www.w3.org/2000/svg">
</g>
<g xmlns="http://www.w3.org/2000/svg">
</g>
<g xmlns="http://www.w3.org/2000/svg">
</g>
<g xmlns="http://www.w3.org/2000/svg">
</g>
<g xmlns="http://www.w3.org/2000/svg">
</g>
<g xmlns="http://www.w3.org/2000/svg">
</g>
<g xmlns="http://www.w3.org/2000/svg">
</g>
<g xmlns="http://www.w3.org/2000/svg">
</g>
</g></svg>
