<svg id="Capa_1" enable-background="new 0 0 512 512" height="512" viewBox="0 0 512 512" width="512" xmlns="http://www.w3.org/2000/svg"><g><g><g><path d="m230.858 187.805h89.209v109.536h-89.209z" fill="#ecb880"/><path d="m415.29 187.805h89.21v109.537h-89.21z" fill="#ecb880"/><path d="m482.5 187.805h22v109.537h-22z" fill="#e5936a"/><path d="m504.49 297.341v140.349c0 2.231-1.809 4.04-4.04 4.04h-81.16c-2.209 0-4-1.791-4-4v-38.857c0-26.114-20.701-47.959-46.811-48.387-26.666-.437-48.409 21.048-48.409 47.613v39.63c0 2.209-1.791 4-4 4h-81.16c-2.24 0-4.052-1.81-4.052-4.04v-140.348z" fill="#77d1b3"/><g fill="#61aab8"><path d="m346.479 350.487c-26.666-.437-48.409 21.048-48.409 47.613v39.63c0 2.209-1.791 4-4 4h22c2.209 0 4-1.791 4-4v-39.63c0-22.491 15.587-41.336 36.549-46.323-3.26-.782-6.65-1.233-10.14-1.29z"/><path d="m482.49 297.341v140.349c0 2.231-1.809 4.04-4.04 4.04h22c2.231 0 4.04-1.809 4.04-4.04v-140.349z"/></g><path d="m504.5 187.805c-10.053-66.536-67.48-117.538-136.821-117.538s-126.768 51.001-136.821 117.538z" fill="#9ec8fc"/><path d="m367.678 70.267c-4.043 0-8.044.18-12 .52 63.876 5.488 115.354 54.361 124.822 117.017h24c-10.053-66.535-67.48-117.537-136.822-117.537z" fill="#62a4fb"/><path d="m191.136 262.151v175.536c0 2.235-1.811 4.046-4.046 4.046h-175.536c-3.605 0-5.41-4.358-2.861-6.907l175.536-175.536c2.549-2.549 6.907-.744 6.907 2.861z" fill="#e175a5"/><path d="m184.229 259.29-15.093 15.093v163.304c0 2.235-1.812 4.046-4.046 4.046h22c2.234 0 4.046-1.811 4.046-4.046v-175.536c0-3.605-4.358-5.41-6.907-2.861z" fill="#ca59a6"/></g></g><g><path d="m504.5 232.574c4.143 0 7.5-3.358 7.5-7.5v-37.269c0-.054-.007-.107-.008-.161-.003-.119-.01-.237-.018-.356-.01-.151-.024-.301-.043-.45-.007-.051-.007-.102-.015-.154-10.748-71.135-72.176-123.917-144.238-123.917-71.983 0-133.477 52.691-144.238 123.918-.008.051-.008.102-.015.154-.019.149-.033.299-.043.45-.008.119-.015.237-.018.356-.001.054-.008.106-.008.161v249.886c0 6.363 5.183 11.54 11.553 11.54h81.161c6.341 0 11.5-5.159 11.5-11.5v-39.63c0-10.844 4.257-21.004 11.985-28.608 7.724-7.598 17.919-11.695 28.8-11.507 21.744.356 39.435 18.699 39.435 40.888v38.857c0 6.341 5.159 11.5 11.5 11.5h81.161c6.363 0 11.54-5.177 11.54-11.54v-140.156c.002-.065.01-.128.01-.194v-37.269c0-4.142-3.357-7.5-7.5-7.5s-7.5 3.358-7.5 7.5v29.768h-74.21v-94.537h74.209v29.769c0 4.143 3.357 7.501 7.5 7.501zm-266.144 57.267v-94.537h74.209v94.537zm258.634 144.39h-74.2v-35.357c0-30.326-24.309-55.396-54.189-55.887-14.927-.226-28.952 5.372-39.566 15.813-10.618 10.446-16.466 24.403-16.466 39.3v36.13h-74.213v-129.388h258.634zm-89.2-144.39h-80.224v-94.537h80.224zm-167.915-109.536c13.093-59.177 65.788-102.538 127.803-102.538 62.074 0 114.723 43.417 127.803 102.538z"/><path d="m191.507 251.483c-4.329-1.792-9.267-.812-12.583 2.503l-34.441 34.44c-2.929 2.929-2.929 7.678 0 10.607s7.677 2.929 10.607 0l28.543-28.543v163.743h-163.742l110.347-110.348c2.929-2.929 2.929-7.678 0-10.606-2.93-2.929-7.678-2.929-10.607 0l-116.244 116.244c-3.313 3.314-4.296 8.253-2.503 12.583 1.794 4.33 5.98 7.127 10.667 7.127h175.537c6.366 0 11.546-5.18 11.546-11.546v-175.537c0-4.686-2.798-8.873-7.127-10.667z"/></g></g></svg>