<svg id="Capa_1" enable-background="new 0 0 512 512" height="512" viewBox="0 0 512 512" width="512" xmlns="http://www.w3.org/2000/svg"><g><g><path d="m256 131.147v320.467c-69.656-67.002-162.502-86.422-234.932-58.263-6.532 2.539-13.568-2.307-13.568-9.315v-298.842c0-3.917 2.276-7.502 5.854-9.096 73.454-32.705 170.491-14.355 242.646 55.049z" fill="#e8eef8"/><path d="m256 131.147v320.467c69.656-67.002 162.502-86.422 234.932-58.263 6.532 2.539 13.568-2.307 13.568-9.315v-298.842c0-3.917-2.276-7.502-5.854-9.096-73.454-32.705-170.491-14.355-242.646 55.049z" fill="#dddbee"/><path d="m498.646 76.098c-7.973-3.55-16.224-6.496-24.69-8.843 2.344 1.893 3.769 4.801 3.769 7.934v303.74c0 3.695-1.901 6.787-4.635 8.558 6.064 1.649 12.021 3.601 17.844 5.865 6.531 2.539 13.568-2.307 13.568-9.315v-298.843c-.002-3.917-2.278-7.502-5.856-9.096z" fill="#bfc5eb"/><path d="m378.317 206.072c-11.468 0-72.797-35.401-72.797 37.396 0 51.999 38.393 71.8 72.797 71.8s72.797-19.801 72.797-71.8c0-72.797-61.329-37.396-72.797-37.396z" fill="#e27f86"/><path d="m406.978 198.603c12.952 3.37 23.26 15.023 23.26 44.865 0 46.779-31.072 67.49-62.359 71.178 3.491.412 6.984.621 10.438.621 34.404 0 72.797-19.801 72.797-71.8 0-45.07-23.507-48.663-44.136-44.864z" fill="#cd5668"/><path d="m360.483 160.274c4.454 10.02 13.016 16.931 22.821 19.634 1.961.541 4.016-.373 4.929-2.191 4.563-9.091 5.168-20.077.714-30.096s-13.015-16.931-22.821-19.634c-1.961-.541-4.016.373-4.929 2.191-4.562 9.09-5.168 20.076-.714 30.096z" fill="#77d1b3"/></g><g><path d="m504.5 324.162c4.143 0 7.5-3.357 7.5-7.5v-231.441c0-6.901-4.045-13.161-10.304-15.947-38.152-16.987-81.877-20.877-126.444-11.246-43.402 9.378-84.488 31.071-119.251 62.876-45.894-42.002-102.288-66.053-159.556-67.883-4.131-.149-7.603 3.117-7.735 7.257s3.116 7.604 7.257 7.735c54.764 1.749 108.814 25.296 152.533 66.378v300.352c-68.005-57.854-156.673-76.922-230.151-48.355-1.043.406-1.863.009-2.261-.264-.406-.278-1.088-.915-1.088-2.061v-298.842c0-.983.552-1.864 1.405-2.244 14.348-6.389 29.805-10.807 45.942-13.134 4.1-.591 6.944-4.394 6.353-8.493-.591-4.1-4.393-6.948-8.493-6.353-17.503 2.522-34.293 7.326-49.901 14.276-6.261 2.786-10.306 9.046-10.306 15.948v298.843c0 5.779 2.848 11.178 7.618 14.44 4.758 3.255 10.801 3.952 16.167 1.864 76.521-29.746 165.668-2.332 227.016 56.678 1.33 1.278 3.168 2.069 5.118 2.091 0 0-.014.002.164 0 1.97-.022 3.831-.851 5.117-2.091 32.629-31.385 71.688-53.144 112.956-62.924 39.83-9.439 79.271-7.28 114.059 6.246 5.366 2.087 11.409 1.391 16.168-1.864 4.771-3.263 7.618-8.661 7.618-14.44v-32.447c0-4.143-3.357-7.5-7.5-7.5s-7.5 3.357-7.5 7.5v32.447c0 1.732-1.726 2.956-3.35 2.324-73.479-28.568-162.144-9.508-230.15 48.355v-300.352c33.355-31.339 73.026-52.65 114.92-61.702 41.432-8.952 81.952-5.396 117.176 10.287.853.38 1.404 1.261 1.404 2.244v231.441c-.001 4.144 3.356 7.501 7.499 7.501z"/><path d="m315.173 196.864c-11.382 8.359-17.152 24.048-17.152 46.63 0 54.779 40.329 79.3 80.297 79.3s80.297-24.521 80.297-79.3c0-22.581-5.771-38.271-17.152-46.63-16.816-12.352-40.294-5.133-54.509-.679 3.283-13.96 16.591-23.491 28.687-31.088 3.508-2.203 4.565-6.832 2.361-10.34-2.203-3.508-6.832-4.566-10.34-2.361-3.026 1.901-5.802 3.749-8.361 5.563-.43-4.553-1.59-9.062-3.499-13.357-5.211-11.723-15.3-20.404-27.68-23.819-5.388-1.484-11.118 1.062-13.627 6.058-5.761 11.478-6.075 24.784-.864 36.506 4.288 9.647 11.883 17.226 21.334 21.513-1.605 3.696-2.721 7.627-3.386 11.92-18.495-5.754-40.04-11.936-56.406.084zm117.409 12.089c7.32 5.377 11.032 16.998 11.032 34.541 0 21.567-6.986 38.259-20.766 49.611-11.498 9.472-27.313 14.688-44.531 14.688-17.219 0-33.033-5.217-44.531-14.688-13.779-11.352-20.766-28.044-20.766-49.611 0-17.543 3.712-29.164 11.032-34.541 3.965-2.912 8.951-3.983 14.278-3.983 9.225 0 19.472 3.212 27.211 5.638 12.669 3.971 12.799 3.997 25.55 0 12.211-3.827 30.661-9.61 41.491-1.655zm-65.245-51.7c-3.002-6.751-3.176-14.315-.561-21.139 6.818 2.632 12.316 7.829 15.317 14.58 3.002 6.752 3.176 14.314.561 21.139-6.818-2.631-12.316-7.829-15.317-14.58z"/><path d="m61.751 273.492c4.026.978 8.081-1.493 9.059-5.518l9.633-39.663h44.844l9.633 39.663c.974 4.013 5.021 6.499 9.059 5.518 4.024-.978 6.495-5.033 5.518-9.059l-24.922-102.609c-2.441-10.049-11.368-17.067-21.71-17.067s-19.269 7.019-21.71 17.067l-24.922 102.609c-.977 4.026 1.494 8.081 5.518 9.059zm33.98-108.127c.802-3.302 3.735-5.608 7.134-5.608s6.332 2.307 7.134 5.608l11.645 47.946h-37.558z"/><path d="m176.394 264.565c-10.563 0-19.155 8.593-19.155 19.155v9.81c0 10.563 8.593 19.156 19.155 19.156h16.338c8.132 0 14.747-6.615 14.747-14.747v-50.803c0-8.631-7.022-15.652-15.653-15.652h-18.935c-8.631 0-15.652 7.021-15.652 15.652v3.826c0 4.143 3.357 7.5 7.5 7.5s7.5-3.357 7.5-7.5v-3.826c0-.359.293-.652.652-.652h18.935c.36 0 .653.293.653.652v17.429zm16.085 33.121h-16.085c-2.291 0-4.155-1.864-4.155-4.156v-9.81c0-2.291 1.864-4.155 4.155-4.155h16.085z"/></g></g></svg>