<svg height="512" viewBox="0 0 128 128" width="512" xmlns="http://www.w3.org/2000/svg"><g id="Circle_Grid" data-name="Circle Grid"><circle cx="64" cy="64" fill="#ea8953" r="64"/></g><g id="icon"><path d="m90.8 37.313h3.694a1.97 1.97 0 0 1 1.97 1.97v6.317a0 0 0 0 1 0 0h-7.634a0 0 0 0 1 0 0v-6.32a1.97 1.97 0 0 1 1.97-1.967z" fill="#575b6d"/><path d="m75.381 34.769h-22.762a2.955 2.955 0 0 0 -2.609 1.567l-4.93 9.264h37.84l-4.931-9.268a2.955 2.955 0 0 0 -2.608-1.563z" fill="#dbd8dd"/><rect fill="#dbd8dd" height="50.48" rx="4.925" width="82" x="23" y="42.751"/><path d="m23 54.612h82v26.759h-82z" fill="#575b6d"/><circle cx="64" cy="67.991" fill="#686d82" r="20.09"/><path d="m79.164 67.992a15.2 15.2 0 1 1 -6.58-12.49 15.18 15.18 0 0 1 6.58 12.49z" fill="#419be9"/><path d="m75.234 64.062a15.147 15.147 0 0 1 -23.748 12.49 15.154 15.154 0 0 1 21.098-21.052 15.131 15.131 0 0 1 2.65 8.562z" fill="#69b0ee"/><circle cx="62.035" cy="60.05" fill="#eeefee" r="3.037"/><circle cx="57.023" cy="66.027" fill="#eeefee" r="1.354"/><circle cx="33.488" cy="49.333" fill="#ef5261" r="2.578"/><path d="m85.652 69.552a19.988 19.988 0 0 1 -3.85 11.82h-2.82a20.072 20.072 0 0 0 0-26.76 20.013 20.013 0 0 1 6.67 14.94z" fill="#464956"/><path d="m81.8 81.372a20.08 20.08 0 0 1 -31.23 1.55 20.067 20.067 0 0 0 28.41-1.55z" fill="#bbbbcd"/></g></svg>