<svg id="Capa_1" enable-background="new 0 0 512 512" height="512" viewBox="0 0 512 512" width="512" xmlns="http://www.w3.org/2000/svg"><g><g><path d="m49.861 90.601v268.289h412.278v-268.289c0-27.614-22.386-50-50-50h-312.278c-27.614 0-50 22.385-50 50z" fill="#6a61b2"/><path d="m412.139 40.601h-24.897c27.614 0 50 22.386 50 50v268.287h24.897v-268.287c0-27.614-22.386-50-50-50z" fill="#514898"/><g><g><path d="m84.151 173.03v270.256h85.925l.002-270.256c0-4.32-3.505-7.822-7.826-7.822h-70.28c-4.32.001-7.821 3.502-7.821 7.822z" fill="#9ec8fc"/><path d="m162.252 165.208-23.218-.001c4.32 0 7.823 3.503 7.823 7.823v270.256h23.218l.002-270.256c0-4.32-3.505-7.822-7.825-7.822z" fill="#9ec8fc"/><path d="m95.107 165.207 17.366-44.345c1.25-3.193 4.329-5.294 7.758-5.294h13.764c3.429 0 6.508 2.101 7.758 5.294l17.366 44.345z" fill="#80b6fc"/><path d="m84.151 222.722h85.925v220.564h-85.925z" fill="#f4dabd"/><path d="m146.857 222.722h23.218v220.564h-23.218z" fill="#ecb880"/></g><g><path d="m170.077 173.03-.002 270.256h85.925v-270.256c0-4.32-3.501-7.822-7.822-7.822h-70.279c-4.32.001-7.822 3.502-7.822 7.822z" fill="#e175a5"/><path d="m248.178 165.208-23.219-.001c4.32 0 7.823 3.503 7.823 7.823v270.256h23.218v-270.256c0-4.32-3.501-7.822-7.822-7.822z" fill="#ca59a6"/><path d="m181.032 165.207 17.366-44.345c1.25-3.193 4.329-5.294 7.758-5.294h13.764c3.429 0 6.508 2.101 7.758 5.294l17.366 44.345z" fill="#de5791"/><path d="m170.076 222.722h85.925v220.564h-85.925z" fill="#f4dabd"/><path d="m232.782 222.722h23.218v220.564h-23.218z" fill="#ecb880"/></g><g><path d="m256 173.03v270.256h85.925l-.002-270.256c0-4.32-3.501-7.822-7.822-7.822h-70.28c-4.32.001-7.821 3.502-7.821 7.822z" fill="#77d1b3"/><path d="m334.101 165.208-23.218-.001c4.32 0 7.823 3.503 7.823 7.823v270.256h23.218l-.002-270.256c.001-4.32-3.5-7.822-7.821-7.822z" fill="#61aab8"/><path d="m266.957 165.207 17.366-44.345c1.25-3.193 4.329-5.294 7.758-5.294h13.764c3.429 0 6.508 2.101 7.758 5.294l17.366 44.345z" fill="#67b59f"/><path d="m256 222.722h85.925v220.564h-85.925z" fill="#f4dabd"/><path d="m318.707 222.722h23.218v220.564h-23.218z" fill="#ecb880"/></g><g><path d="m341.923 173.03.002 270.256h85.925v-270.256c0-4.32-3.501-7.822-7.822-7.822h-70.279c-4.32.001-7.826 3.502-7.826 7.822z" fill="#ecb880"/><path d="m420.028 165.208-23.22-.001c4.32 0 7.823 3.503 7.823 7.823v270.256h23.218v-270.256c.001-4.32-3.501-7.822-7.821-7.822z" fill="#e5936a"/><path d="m352.881 165.207 17.366-44.345c1.25-3.193 4.329-5.294 7.758-5.294h13.764c3.429 0 6.508 2.101 7.758 5.294l17.366 44.345z" fill="#e9a761"/><path d="m341.925 222.722h85.925v220.564h-85.925z" fill="#f4dabd"/><path d="m404.631 222.722h23.218v220.564h-23.218z" fill="#ecb880"/></g></g><path d="m277.405 63.697-15.728 14.998c-3.178 3.03-8.175 3.03-11.353 0l-15.728-14.998c-1.628-1.552-2.549-3.704-2.549-5.953v-42.018c0-4.543 3.683-8.226 8.226-8.226h31.456c4.543 0 8.226 3.683 8.226 8.226v42.018c-.001 2.249-.922 4.4-2.55 5.953z" fill="#d5d9f2"/><path d="m407.194 281.589v7.268c0 13.141-10.653 23.794-23.794 23.794h-1.758c-5.303 0-10.417-1.82-14.635-5.033-26.401-20.114-66.325-32.934-111.007-32.934s-84.606 12.821-111.007 32.934c-4.218 3.214-9.332 5.033-14.635 5.033h-1.758c-13.141 0-23.794-10.653-23.794-23.794v-7.268c0-16.825-13.64-30.465-30.465-30.465h-24.48v203.376c0 27.614 22.386 50 50 50h312.277c27.614 0 50-22.386 50-50v-203.376h-24.48c-16.824 0-30.464 13.639-30.464 30.465z" fill="#e8eef8"/><path d="m437.659 251.124c-.14 0-.277.009-.417.01v203.366c0 27.614-22.386 50-50 50h24.896c27.614 0 50-22.386 50-50v-203.376z" fill="#d5d9f2"/><path d="m304.731 358.496-29.662-6.67-15.51-26.149c-1.603-2.702-5.514-2.702-7.117 0l-15.51 26.149-29.662 6.67c-3.065.689-4.274 4.409-2.199 6.769l20.077 22.832-2.822 30.272c-.292 3.128 2.873 5.427 5.758 4.183l27.916-12.039 27.918 12.039c2.885 1.244 6.049-1.055 5.758-4.183l-2.822-30.272 20.077-22.832c2.074-2.36.866-6.08-2.2-6.769z" fill="#ecb880"/></g><g><path d="m469.64 90.6c0-31.706-25.794-57.5-57.5-57.5h-124.687v-17.374c0-8.671-7.054-15.726-15.725-15.726h-31.456c-8.671 0-15.726 7.055-15.726 15.726v17.374h-50.856c-4.142 0-7.5 3.358-7.5 7.5s3.358 7.5 7.5 7.5h50.856v9.644c0 4.279 1.776 8.427 4.873 11.381l15.728 14.998c3.043 2.902 6.947 4.353 10.853 4.353 3.904 0 7.811-1.451 10.853-4.353l15.728-14.998c3.097-2.953 4.873-7.101 4.873-11.381v-9.644h124.686c23.435 0 42.5 19.065 42.5 42.5v153.023s-18.525.031-19.29.077v-70.67c0-7.753-5.795-14.164-13.278-15.167l-15.561-39.735c-2.392-6.11-8.179-10.059-14.741-10.059h-13.765c-6.563 0-12.35 3.949-14.741 10.059l-15.561 39.736c-2.09.281-4.044.982-5.78 2.019-1.735-1.036-3.687-1.738-5.775-2.018l-15.561-39.736c-2.392-6.11-8.179-10.059-14.741-10.059h-13.766c-6.563 0-12.35 3.949-14.741 10.059l-15.561 39.735c-2.089.28-4.042.981-5.778 2.018-1.736-1.036-3.689-1.738-5.778-2.018l-15.561-39.735c-2.393-6.11-8.18-10.059-14.742-10.059h-13.765c-6.562 0-12.349 3.948-14.742 10.059l-15.56 39.736c-2.088.281-4.04.982-5.776 2.019-1.737-1.037-3.69-1.738-5.78-2.019l-15.561-39.736c-2.393-6.11-8.18-10.059-14.742-10.059h-13.764c-6.563 0-12.35 3.949-14.742 10.059l-15.561 39.735c-7.484 1.003-13.279 7.414-13.279 15.167v70.669c-.764-.046-1.533-.077-2.309-.077h-16.978v-153.023c0-23.435 19.065-42.5 42.5-42.5h38.83c4.142 0 7.5-3.358 7.5-7.5s-3.358-7.5-7.5-7.5h-38.83c-31.706 0-57.5 25.794-57.5 57.5v268.29c0 .013.002.026.002.039v95.571c0 31.706 25.794 57.5 57.5 57.5h312.277c31.706 0 57.5-25.794 57.5-57.5v-18.383c0-4.142-3.357-7.5-7.5-7.5s-7.5 3.358-7.5 7.5v18.383c0 23.435-19.065 42.5-42.5 42.5h-312.277c-23.435 0-42.5-19.065-42.5-42.5v-195.876h16.979c12.663 0 22.965 10.302 22.965 22.965v7.268c0 27.372 32.029 40.119 52.232 24.726 11.786-8.979 23.412-13.999 24.174-14.422 23.491-10.941 52.186-16.979 82.288-16.979 36.93 0 77.658 9.457 106.462 31.401 5.559 4.235 12.37 6.567 19.18 6.567h1.759c17.255 0 31.293-14.038 31.293-31.293v-7.268c0-12.663 10.303-22.965 22.966-22.965h16.979v142.494c0 4.142 3.357 7.5 7.5 7.5s7.5-3.358 7.5-7.5zm-197.411-32.331-15.728 14.998c-.281.268-.721.268-1.002 0l-15.727-14.997c-.143-.137-.225-.328-.225-.526v-17.076c0-.023.003-.045.003-.068s-.003-.045-.003-.068v-24.806c0-.4.326-.726.726-.726h31.456c.4 0 .726.326.726.726v24.816c0 .02-.003.039-.003.058s.003.038.003.058v17.085c-.002.198-.084.39-.226.526zm-180.579 114.761c0-.176.144-.32.32-.32h70.28c.179 0 .33.146.33.32v42.192h-70.93zm171.85 0c0-.176.144-.32.32-.32h70.28c.177 0 .32.144.32.32v42.192h-70.92zm-85.92 0c0-.176.144-.32.32-.32h70.28c.176 0 .32.144.32.32v42.192h-70.92zm0 57.192h70.92v37.084c-25.347.8-49.658 5.64-70.92 13.926zm85.92 0h70.92v51.01c-21.262-8.285-45.573-13.125-70.92-13.926zm85.92-15v-42.192c0-.176.148-.32.33-.32h70.28c.176 0 .319.144.319.32v42.192zm27.811-91.626c.126-.321.43-.528.774-.528h13.765c.345 0 .648.207.774.528l13.357 34.11h-42.028zm-85.925 0c.126-.321.43-.528.774-.528h13.765c.345 0 .648.207.774.528l13.359 34.113h-42.032zm-85.925.001c.126-.321.43-.528.775-.528h13.765c.345 0 .649.208.775.528l13.357 34.11h-42.029zm-85.924-.001c.125-.321.43-.528.774-.528h13.764c.345 0 .649.208.775.528l13.359 34.113h-42.032zm20.991 178.055c-10.277 7.83-28.142 2.214-28.142-12.794v-7.268c0-14.701-8.405-27.468-20.656-33.773v-17.594h70.93v57.694c-8.008 4.047-15.436 8.634-22.132 13.735zm259.246-20.062v7.268c0 8.984-7.309 16.293-16.293 16.293-.902-.123-6.2.804-11.849-3.499-6.695-5.101-14.123-9.688-22.132-13.735v-57.694h70.93v17.595c-12.252 6.304-20.656 19.071-20.656 33.772z"/><path d="m314.892 358.936c-1.283-3.947-4.466-6.847-8.515-7.757l-26.508-5.961-13.859-23.367c-2.117-3.569-5.859-5.701-10.009-5.701-4.149 0-7.892 2.131-10.01 5.7l-13.86 23.368-26.507 5.961c-4.049.911-7.232 3.811-8.515 7.758-1.282 3.947-.412 8.164 2.329 11.281l17.941 20.403-2.522 27.051c-.385 4.132 1.389 8.056 4.747 10.496 2.037 1.48 4.412 2.237 6.817 2.237 1.56 0 3.132-.318 4.632-.965l24.947-10.76 24.948 10.759c3.813 1.645 8.094 1.168 11.449-1.272 3.357-2.44 5.132-6.363 4.746-10.495l-2.522-27.052 17.942-20.403c2.741-3.117 3.611-7.334 2.329-11.281zm-33.67 24.208c-1.363 1.55-2.027 3.594-1.836 5.649l2.296 24.627-22.712-9.794c-.947-.409-1.959-.613-2.97-.613s-2.022.205-2.97.613l-22.712 9.794 2.296-24.627c.191-2.055-.473-4.099-1.835-5.649l-16.333-18.574 24.131-5.426c2.014-.453 3.752-1.716 4.805-3.491l12.618-21.275 12.617 21.273c1.054 1.775 2.792 3.038 4.806 3.491l24.132 5.426z"/><path d="m207.948 459.654c-4.142 0-7.5 3.358-7.5 7.5s3.358 7.5 7.5 7.5h96.105c4.143 0 7.5-3.358 7.5-7.5s-3.357-7.5-7.5-7.5z"/></g></g></svg>