<?xml version="1.0" encoding="iso-8859-1"?>
<!-- Generator: Adobe Illustrator 19.0.0, SVG Export Plug-In . SVG Version: 6.00 Build 0)  -->
<svg version="1.1" id="Capa_1" xmlns="http://www.w3.org/2000/svg" xmlns:xlink="http://www.w3.org/1999/xlink" x="0px" y="0px"
	 viewBox="0 0 511.999 511.999" style="enable-background:new 0 0 511.999 511.999;" xml:space="preserve">
<circle style="fill:#FFE17D;" cx="255.999" cy="255.999" r="248.499"/>
<path style="fill:#FFD164;" d="M292.073,468.427c-137.242,0-248.499-111.257-248.499-248.499c0-59.433,20.891-113.97,55.695-156.732
	C43.285,108.761,7.501,178.192,7.501,256c0,137.241,111.256,248.499,248.499,248.499c77.81,0,147.241-35.784,192.805-91.768
	C406.044,447.535,351.505,468.427,292.073,468.427z"/>
<path style="fill:#FFFFFF;" d="M344.046,23.608l-74.892,42.127c-6.038,3.397-13.015,4.746-19.884,3.846L114.305,51.902
	C96.412,64.348,80.238,79.075,66.198,95.679h149.721L11.725,210.538c-2.728,14.747-4.224,29.926-4.224,45.463
	c0,13.31,1.074,26.365,3.089,39.108L447.014,97.078C419.839,64.452,384.457,38.927,344.046,23.608z"/>
<path style="fill:#FFF1C4;" d="M43.574,219.928c0-9.552,0.596-18.961,1.647-28.231l-33.496,18.841
	c-2.728,14.747-4.224,29.926-4.224,45.463c0,13.31,1.074,26.365,3.089,39.108l39.671-18.001
	C45.933,258.741,43.574,239.615,43.574,219.928z"/>
<path style="fill:#FFFFFF;" d="M23.658,167.824h464.683c-10.072-26.522-24.544-50.862-42.54-72.145H66.198
	C48.202,116.962,33.73,141.302,23.658,167.824z"/>
<path style="fill:#FFF1C4;" d="M66.285,95.679c-18.011,21.284-32.494,45.618-42.576,72.145h25.38
	c5.503-25.755,14.995-50.024,27.803-72.145C76.892,95.679,66.285,95.679,66.285,95.679z"/>
<path style="fill:#7D5046;" d="M340.168,280.049L340.168,280.049c-11.068,0-20.04-8.972-20.04-20.04v-16.032
	c0-11.068,8.972-20.04,20.04-20.04l0,0c11.068,0,20.04,8.972,20.04,20.04v16.032C360.209,271.077,351.236,280.049,340.168,280.049z"
	/>
<path style="fill:#9C6846;" d="M360.209,243.976c0-12.379-11.222-22.135-24.048-19.651v15.643c0,13.282,10.767,24.048,24.048,24.048
	l0,0V243.976z"/>
<path style="fill:#7D5046;" d="M171.831,280.049L171.831,280.049c-11.068,0-20.04-8.972-20.04-20.04v-16.032
	c0-11.068,8.972-20.04,20.04-20.04l0,0c11.068,0,20.04,8.972,20.04,20.04v16.032C191.871,271.077,182.899,280.049,171.831,280.049z"
	/>
<path style="fill:#9C6846;" d="M191.871,243.976c0-12.379-11.222-22.135-24.048-19.651v15.643c0,13.282,10.767,24.048,24.048,24.048
	l0,0V243.976z"/>
<polygon style="fill:#FFF1C4;" points="87.662,167.824 44.91,191.872 238.105,191.872 291.104,167.824 "/>
<path d="M340.178,231.461c4.142,0,7.5-3.358,7.5-7.5s-3.358-7.5-7.5-7.5c-15.187,0-27.543,12.355-27.543,27.542v16.034
	c0,15.187,12.356,27.543,27.543,27.543s27.542-12.356,27.542-27.543v-12.025c0-4.142-3.358-7.5-7.5-7.5c-4.142,0-7.5,3.358-7.5,7.5
	v12.025c0,6.916-5.626,12.543-12.542,12.543c-6.916,0-12.543-5.627-12.543-12.543v-16.034
	C327.635,237.087,333.262,231.461,340.178,231.461z"/>
<path d="M216.403,360.251c0,4.142,3.358,7.5,7.5,7.5c0.648,0,65.192,0.261,100.151,22.851c1.258,0.813,2.669,1.202,4.063,1.202
	c2.46,0,4.871-1.21,6.306-3.431c2.248-3.479,1.25-8.122-2.229-10.37c-38.636-24.965-105.465-25.252-108.291-25.252
	C219.761,352.751,216.403,356.109,216.403,360.251z"/>
<path d="M454.099,93.875c-2.971-3.621-7.38-5.698-12.097-5.698l-197.475,0.007l100.109-56.312
	c22.936,9.068,44.512,21.672,63.914,37.577c3.203,2.625,7.929,2.157,10.555-1.045c2.626-3.204,2.158-7.929-1.045-10.555
	C369.19,17.787,307.362-2.657,244.007,0.278C180.199,3.236,120.165,29.759,74.962,74.962
	C28.644,121.279,2.063,182.827,0.115,248.267C-1.824,313.414,20.757,376.162,63.7,424.95c1.482,1.685,3.552,2.545,5.633,2.545
	c1.76,0,3.527-0.616,4.952-1.87c3.109-2.737,3.412-7.476,0.675-10.585c-29.08-33.04-48.239-72.883-56.022-115.476l125.341-56.875
	v17.348c0,15.187,12.355,27.543,27.542,27.543s27.542-12.356,27.542-27.543v-12.025c0-4.142-3.358-7.5-7.5-7.5
	c-4.142,0-7.5,3.358-7.5,7.5v12.025c0,6.916-5.626,12.543-12.542,12.543s-12.542-5.627-12.542-12.543v-16.034
	c0-6.916,5.626-12.542,12.542-12.542c3.018,0,5.612-1.786,6.802-4.356l114.077-51.764h24.673
	c8.243,6.635,38.837,29.489,81.112,39.896c0.603,0.148,1.205,0.219,1.799,0.219c3.371,0,6.435-2.289,7.277-5.709
	c0.99-4.022-1.468-8.085-5.49-9.076c-24.423-6.012-44.906-16.73-58.606-25.331h139.671c10.35,29.166,15.063,60.335,13.604,91.919
	c-2.775,60.079-27.745,116.606-70.309,159.171c-43.603,43.603-101.541,68.626-163.145,70.459
	c-61.328,1.822-120.401-19.43-166.327-59.851c-3.108-2.736-7.848-2.435-10.585,0.675s-2.435,7.848,0.675,10.585
	c46.854,41.239,106.579,63.701,168.941,63.7c2.577,0,5.158-0.038,7.742-0.115c65.441-1.947,126.988-28.528,173.305-74.846
	c45.214-45.214,71.738-105.263,74.686-169.085C514.651,204.567,494.187,142.744,454.099,93.875z M244.701,15.262
	c27.69-1.279,55.06,2.186,81.042,10.028L257.476,63.69L136.281,46.787C169.133,27.97,206.184,17.048,244.701,15.262z M85.568,85.568
	c9.724-9.724,20.185-18.519,31.243-26.352L235.9,75.825l-21.969,12.358L83.009,88.188C83.859,87.313,84.703,86.433,85.568,85.568z
	 M28.814,175.343h30.169l-36.401,20.476C24.359,188.893,26.434,182.061,28.814,175.343z M151.752,160.343
	c-4.142,0-7.5,3.358-7.5,7.5c0,4.142,3.358,7.5,7.5,7.5H256.4L16.642,284.134c-1.36-11.669-1.888-23.501-1.533-35.421
	c0.335-11.26,1.453-22.395,3.31-33.344l71.16-40.027h30.108c4.142,0,7.5-3.358,7.5-7.5c0-4.142-3.358-7.5-7.5-7.5H34.696
	c8.845-20.468,20.561-39.698,34.901-57.154l372.405-0.013c0.191,0,0.396,0.087,0.499,0.212
	c14.296,17.427,25.934,36.608,34.734,56.955L151.752,160.343L151.752,160.343z"/>
<g>
</g>
<g>
</g>
<g>
</g>
<g>
</g>
<g>
</g>
<g>
</g>
<g>
</g>
<g>
</g>
<g>
</g>
<g>
</g>
<g>
</g>
<g>
</g>
<g>
</g>
<g>
</g>
<g>
</g>
</svg>
