<svg id="Capa_1" enable-background="new 0 0 512 512" height="512" viewBox="0 0 512 512" width="512" xmlns="http://www.w3.org/2000/svg"><g><g><path d="m470.191 274.915c0-4.996 4.543-12.642 4.215-17.556-2.734-40.967-16.684-78.86-38.803-110.628-39.657-56.958-109.695-82.805-184.306-82.805-121.217 0-206.39 86.95-206.39 208.3s89.295 219.724 210.512 219.724 214.772-95.685 214.772-217.035z" fill="#a36b5b"/><path d="m474.899 272.23c0-5-.17-9.96-.5-14.87-7.99-3.81-16.83-5.86-25.92-5.86-16.434 0-31.592 6.685-42.609 17.675-1.98 1.975-5.153 1.978-7.129-.001-11.273-11.29-26.52-17.674-42.661-17.674h-5.32c-16.309 0-31.094 6.407-41.951 16.897-1.946 1.88-5.008 1.833-6.96-.039-10.695-10.257-26.495-17.115-41.849-16.857h-8c-14.99.022-30.541 5.899-41.862 16.855-1.942 1.879-5.009 1.915-6.953.037-10.856-10.486-25.64-16.892-41.946-16.892h-4.31c-16.089 0-31.309 6.345-42.57 17.579-1.962 1.958-5.116 1.984-7.081.028-9.379-9.34-21.767-15.537-35.418-17.161-2.756-.328-4.732-2.807-4.41-5.564 12.208-104.275 99.938-183.393 205.569-190.523-4.96-.34-9.96-.51-15-.51-76.145 0-145.823 35.971-185.18 94.919-20.819 31.182-33.881 67.996-36.426 107.674-.046.64-.407 4.699-.474 14.287 0 121.35 98.26 219.72 219.48 219.72 1.678 0 3.35-.026 5.019-.064.434-.01.868-.021 1.302-.033 1.52-.043 3.037-.098 4.55-.173.357-.018.713-.038 1.069-.057 1.021-.055 2.042-.113 3.059-.183-.026-.002-.051-.004-.076-.006 114.258-7.682 204.557-102.876 204.557-219.204z" fill="#8e5644"/><path d="m435.603 146.731c-39.657-56.958-105.573-94.229-180.184-94.229-40.576 0-76.365 13.208-108.973 32.425-27.516 16.217-53.404 36.084-71.537 62.273l54.187.204c14.046.053 25.404 11.454 25.404 25.5v39.596h.013c.268 14.956 12.467 27 27.487 27s27.22-12.044 27.487-27h.013v-39.5c0-14.083 11.417-25.5 25.5-25.5 14.083 0 25.5 11.417 25.5 25.5v7.5h.013c.268 14.956 12.467 27 27.487 27s27.22-12.044 27.487-27h.013v-7.5c0-14.083 11.417-25.5 25.5-25.5h93.5z" fill="#ffc269"/><g fill="#ffa95f"><path d="m149.099 147.4c14.04.06 25.4 11.46 25.4 25.5v39.6h.01c.21 11.45 7.4 21.18 17.49 25.12-3.1 1.22-6.47 1.88-10 1.88-15.02 0-27.22-12.04-27.49-27h-.01v-39.6c0-14.04-11.36-25.44-25.4-25.5z"/><path d="m74.909 147.2c39.62-57.22 105.69-94.7 180.51-94.7 3.39 0 6.75.08 10.1.23-70.73 3.13-132.75 39.79-170.61 94.47z"/><path d="m190.999 237.99c-2.82.98-5.85 1.51-9 1.51-15.02 0-27.22-12.04-27.49-27h-.01v-39.6c0-12.74-9.36-23.31-21.59-25.2l14.19.18c14.04.06 25.4 11.46 25.4 25.5v39.12h.01c.21 11.82 7.87 21.82 18.49 25.49z"/></g><path d="m326.257 53.083c0-17.637-14.298-31.935-31.935-31.935-3.587 0-7.037.592-10.255 1.682-2.583.875-4.998 3.635-7.237 5.106-8.687 5.707-14.443 13.976-14.443 25.147 0 17.637 13.456 28.81 31.093 28.81 14.052 0 26.827-5.951 31.097-18.561 1.089-3.217 1.68-6.664 1.68-10.249z" fill="#ff8086"/><path d="m324.57 63.33c-4.26 12.61-16.2 21.69-30.25 21.69-17.64 0-31.93-14.3-31.93-31.94 0-14.05 9.07-25.98 21.68-30.24-1.09 3.21-1.68 6.66-1.68 10.24 0 17.64 14.29 31.94 31.93 31.94 3.589 0 7.029-.59 10.25-1.69z" fill="#e5646e"/><path d="m126.001 131.341c0-21.646-17.547-39.193-39.193-39.193-6.995 0-13.562 1.832-19.247 5.044-11.907 6.726-17.284 19.924-17.284 34.575 0 21.646 14.885 35.165 36.531 35.165 15.494 0 28.888-5.388 35.25-18.437 2.525-5.182 3.943-11.003 3.943-17.154z" fill="#ff8086"/><path d="m122.049 148.49c-6.36 13.05-19.75 22.04-35.24 22.04-21.65 0-39.2-17.54-39.2-39.19 0-14.66 8.04-27.43 19.95-34.15-2.53 5.18-3.95 11-3.95 17.15 0 21.65 17.55 39.19 39.2 39.19 6.99 0 13.56-1.83 19.24-5.04z" fill="#e5646e"/><path d="m419.558 212.361c0-17.359-14.072-31.431-31.431-31.431-5.335 0-10.36 1.329-14.761 3.675-9.918 5.286-13.304 15.732-13.304 27.756 0 17.359 11.705 29.064 29.064 29.064 8.597 0 15.389-1.086 21.064-6.679 5.784-5.7 9.368-13.624 9.368-22.385z" fill="#ff8086"/><path d="m415.889 227.11c-5.28 9.93-15.73 16.68-27.76 16.68-17.36 0-31.43-14.07-31.43-31.43 0-12.02 6.75-22.47 16.67-27.75-2.34 4.4-3.67 9.42-3.67 14.75 0 17.36 14.07 31.43 31.43 31.43 5.34 0 10.36-1.33 14.76-3.68z" fill="#e5646e"/><circle cx="407.129" cy="232.362" fill="#99dbff" r="15.43"/><path d="m280.68 52.503c0-24.854-20.148-45.003-45.003-45.003-8.321 0-16.114 2.258-22.8 6.195-13.286 7.823-20.132 22.855-20.132 39.388 0 24.854 18.039 40.725 42.894 40.725s45.041-16.451 45.041-41.305z" fill="#ffe07d"/><path d="m274.469 75.31c-7.82 13.29-22.26 22.2-38.79 22.2-24.86 0-45-20.15-45-45.01 0-16.53 8.91-30.98 22.2-38.8-3.94 6.69-6.2 14.48-6.2 22.8 0 24.86 20.14 45.01 45 45.01 8.31 0 16.11-2.26 22.79-6.2z" fill="#ffd064"/><circle cx="277.92" cy="84.927" fill="#99dbff" r="21.001"/><circle cx="59.908" cy="166.931" fill="#c5b9ef" r="15.001"/><circle cx="367.596" cy="84.581" fill="#c5b9ef" r="15.001"/><path d="m454.577 131.663c0-13.717-11.12-24.837-24.837-24.837-3.489 0-6.81.719-9.823 2.018-8.831 3.807-12.788 12.591-12.788 22.819 0 13.717 9.175 22.571 22.892 22.571 10.23 0 18.735-3.919 22.54-12.753 1.297-3.012 2.016-6.331 2.016-9.818z" fill="#ffe07d"/><path d="m452.56 141.48c-3.8 8.84-12.59 15.02-22.82 15.02-13.72 0-24.84-11.12-24.84-24.84 0-10.22 6.18-19.01 15.02-22.81-1.3 3.01-2.02 6.32-2.02 9.81 0 13.72 11.12 24.84 24.84 24.84 3.489 0 6.809-.72 9.82-2.02z" fill="#ffd064"/><path d="m296.999 205.99c-.541.155-4.416 1.565-9 1.51-15.02 0-27.22-12.04-27.49-27h-.01c-.239-8.885 1.362-14.641-6.26-24.21-1.612-1.946-5.931-5.732-10.15-7.11-.03-.02-.06-.03-.09-.04-2.8-1.06-5.83-1.64-9-1.64h18c7.04 0 13.42 2.86 18.03 7.47s7.47 10.99 7.47 18.03v7.5h.01c.21 11.82 7.87 21.82 18.49 25.49z" fill="#ffa95f"/><g><path d="m112.335 320.101 9.346 76.26 24.786 108.143 31.895-6.015 35.97 6.015 2.668-113.93-10.453-80.54c-.973-24.32-20.972-43.534-45.311-43.534h-4.31c-28.352 0-49.751 25.724-44.591 53.601z" fill="#f8f7f7"/><path d="m305.452 310.034-6.983 80.2-.802 114.271 32.693-4.654 34.407 4.654 27.21-109.81 8.617-74.18c5.452-27.997-15.989-54.015-44.512-54.015h-5.32c-24.338 0-44.336 19.214-45.31 43.534z" fill="#f8f7f7"/><g fill="#e8e8e8"><path d="m24.999 329.979 57.106 156.164c3.62 9.831 12.985 16.362 23.461 16.362l40.9 2-37.187-200.91c-3.979-21.497-22.728-37.095-44.59-37.095h-1.173c-15.304 0-28.34 7.393-36.462 18.386-8.62 11.667-7.667 29.85-2.055 45.093z"/><path d="m403.971 303.18-39.203 201.324 41.665-2c10.476 0 19.841-6.531 23.461-16.362l3.341-1.641 57.803-156.985c10.901-29.604-11.007-61.017-42.555-61.017-21.703.001-40.364 15.379-44.512 36.681z"/><path d="m297.668 504.505-39.137-6.356-44.2 6.356-7.639-190.843c-1.03-25.736 19.555-47.161 45.311-47.161h7.992c25.756 0 46.342 21.426 45.311 47.161z"/><path d="m214.33 504.5h-67.861l-9.129-8.053 5.429-11.947h70.76l5.853 10z"/><path d="m368.659 484.5 3.574 10-7.464 10h-67.1l-5.436-7.713 6.236-12.287z"/></g><path d="m146.469 504.5h-42.9c-10.48 0-19.84-6.53-23.46-16.36l-59.15-160.62c-5.61-15.24-2.53-30.97 6.1-42.63l71.81 196.34c.72 1.96 2.61 3.27 4.7 3.27h39.2z" fill="#d8d8d8"/><path d="m433.229 484.5-1.34 3.64c-3.62 9.83-12.98 16.36-23.46 16.36h-43.66l3.89-20z" fill="#d8d8d8"/><path d="m298.469 484.5-.8 20h-83.339l-.801-20z" fill="#d8d8d8"/></g></g><g><path d="m492.389 280.973c-2.879-4.128-6.307-7.755-10.129-10.848-.147-16.06-1.955-32.064-5.42-47.601-.902-4.042-4.906-6.59-8.952-5.688-4.043.901-6.59 4.909-5.688 8.952 2.605 11.686 4.208 23.657 4.81 35.713-5.723-2.08-11.828-3.2-18.077-3.2-20.183 0-38.173 11.478-47.083 28.725-1.649-2.99-3.568-5.857-5.783-8.545-10.569-12.825-26.161-20.181-42.78-20.181-20.742 0-38.805 11.281-48.311 28.167-2.246-3.824-4.947-7.421-8.107-10.71-10.815-11.257-25.37-17.457-40.981-17.457s-30.165 6.199-40.981 17.457c-3.119 3.247-5.791 6.795-8.02 10.564-9.415-16.794-27.354-28.021-47.961-28.021-16.383 0-31.788 7.224-42.266 19.818-2.236 2.688-4.173 5.561-5.835 8.56-9.087-17.083-27.038-28.378-47.239-28.378-6.958 0-13.737 1.377-20.019 3.914 1.157-25.222 6.69-49.644 16.505-72.789 8.47-.103 15.828-4.906 19.578-11.92 2.322.352 4.676.53 7.045.53 17.159 0 32.176-9.31 40.291-23.137 9.745-.979 19.991 7.347 19.901 18.007v39.595c.162 18.515 16.065 34.504 35 34.5 18.604.108 34.695-15.608 35-34.5v-39.5c0-9.925 8.075-18 18-18s18 8.075 18 18v7.5c.162 18.515 16.065 34.504 35 34.5 18.604.108 34.695-15.608 35-34.5v-7.5c-.098-9.755 8.869-18.628 19.276-18 4.143 0 7.5-3.357 7.5-7.5s-3.357-7.5-7.5-7.5c-18.152-.785-34.313 14.401-34.276 33v7.062c.089 10.292-9.115 19.918-20 19.938-10.299.125-19.932-9.052-20-19.938v-7.062c0-18.196-14.804-33-33-33s-33 14.804-33 33v39.062c.089 10.292-9.115 19.918-20 19.938-10.299.125-19.932-9.052-20-19.938v-39.158c0-16.932-12.867-30.96-29.337-32.793.543-2.843.838-5.772.838-8.77 0-9.862-3.081-19.013-8.32-26.559 18.628-14.559 39.272-25.752 61.531-33.371 7.607 19.631 26.681 33.594 48.967 33.594 6.53 0 12.985-1.239 19.022-3.582 5.171 7.259 13.65 12.006 23.221 12.006 13.701 0 25.172-9.719 27.888-22.624 9.587-2.94 17.58-9.471 22.528-17.906 5.829 2.139 11.583 4.544 17.209 7.192-.295 1.451-.451 2.952-.451 4.488 0 12.407 10.094 22.501 22.501 22.501 5.434 0 10.424-1.936 14.317-5.155 6.517 4.862 12.778 10.111 18.705 15.69-2.059 4.25-3.214 9.016-3.214 14.047 0 2.882.384 5.676 1.095 8.337h-20.734c-4.143 0-7.5 3.357-7.5 7.5s3.357 7.5 7.5 7.5h29.626c5.811 5.568 13.684 9 22.349 9 2.59 0 5.107-.315 7.523-.893 5.813 9.69 10.869 19.865 15.05 30.326 1.172 2.934 3.989 4.719 6.966 4.719.927 0 1.869-.173 2.781-.538 3.847-1.537 5.719-5.901 4.182-9.747-4.349-10.88-9.586-21.466-15.584-31.573 6.979-5.936 11.419-14.772 11.419-24.632 0-17.83-14.506-32.336-32.337-32.336-7.37 0-14.167 2.483-19.611 6.65-6.487-6.05-13.334-11.741-20.468-16.988.284-1.426.436-2.9.436-4.409 0-12.406-10.094-22.5-22.501-22.5-5.406 0-10.373 1.918-14.257 5.107-6.524-3.126-13.218-5.945-20.005-8.43.275-1.859.423-3.753.423-5.674 0-21.744-17.69-39.435-39.436-39.435-6.584 0-13.038 1.665-18.766 4.762-9.637-11.254-23.934-18.408-39.878-18.408-2.278 0-4.574.148-6.825.44-4.107.533-7.005 4.296-6.472 8.403.533 4.108 4.297 7.008 8.403 6.472 1.612-.209 3.259-.315 4.894-.315 20.679 0 37.502 16.824 37.502 37.503 0 1.466-.095 2.925-.263 4.372-13.592 2.458-24.734 15.44-23.388 30.476-4.384 1.74-9.089 2.654-13.852 2.654-20.679 0-37.503-16.823-37.503-37.502 0-8.332 2.673-16.219 7.73-22.808 2.521-3.286 1.902-7.994-1.384-10.517-3.289-2.523-7.995-1.901-10.517 1.384-7.085 9.232-10.83 20.277-10.83 31.94 0 1.414.073 2.811.183 4.197-24.916 8.333-47.964 20.822-68.651 37.221-7.789-5.822-17.448-9.273-27.899-9.273-25.747 0-46.693 20.946-46.693 46.693 0 6.745 1.444 13.334 4.208 19.384-4.258 4.096-6.915 9.845-6.915 16.206 0 7.137 3.344 13.504 8.543 17.629-11.537 27.563-17.418 56.796-17.504 86.999-3.222 2.821-6.127 6.048-8.63 9.637-9.998 14.336-12.361 32.688-6.322 49.09l59.06 160.396c4.695 12.752 16.979 21.319 30.568 21.319h305.758c13.589 0 25.873-8.567 30.567-21.318l59.317-161.096c5.981-16.243 3.64-34.416-6.261-48.613zm-62.762-166.646c9.56 0 17.337 7.777 17.337 17.336 0 9.56-7.777 17.337-17.337 17.337-9.559 0-17.336-7.777-17.336-17.337 0-9.559 7.778-17.336 17.336-17.336zm-62.143-37.247c4.136 0 7.501 3.364 7.501 7.5s-3.365 7.501-7.501 7.501-7.501-3.365-7.501-7.501 3.365-7.5 7.501-7.5zm-73.275-48.432c13.474 0 24.436 10.961 24.436 24.435 0 9.584-5.717 18.14-14.053 22.098-2.857-7.827-9.053-14.059-16.855-16.968.205-1.892.33-3.797.33-5.71 0-7.607-1.64-14.834-4.562-21.367 3.313-1.614 6.972-2.488 10.704-2.488zm-16.401 42.778c7.444 0 13.501 6.057 13.501 13.502 0 7.444-6.057 13.501-13.501 13.501-7.445 0-13.502-6.057-13.502-13.501 0-7.446 6.057-13.502 13.502-13.502zm-218.013 103.006c-4.136 0-7.501-3.365-7.501-7.501s3.365-7.501 7.501-7.501 7.501 3.365 7.501 7.501-3.365 7.501-7.501 7.501zm-4.794-43.091c0-17.476 14.218-31.693 31.693-31.693s31.693 14.218 31.693 31.693-14.218 31.693-31.693 31.693c-1.618 0-3.225-.121-4.808-.362-1.996-10.377-11.14-18.243-22.092-18.243-.65 0-1.292.034-1.928.088-1.879-4.109-2.865-8.587-2.865-13.176zm298.286 141.959c12.122 0 23.495 5.365 31.204 14.72s10.801 21.544 8.484 33.442c-.001.003-.001.006-.001.01l-34.18 175.528h-56.185c.002-.042 9.8-174.886 10.052-179.391 1.943-26.799 18.841-44.309 40.626-44.309zm-127.565 12.849c7.962-8.286 18.674-12.85 30.165-12.85s22.204 4.563 30.165 12.85c7.947 8.272 12.078 19.137 11.634 30.598l-10.101 180.253h-63.396l-10.102-180.254c-.444-11.461 3.688-22.324 11.635-30.597zm-122.714 210.851c-7.331 0-13.958-4.622-16.491-11.502l-59.06-160.396c-4.411-11.979-2.753-24.855 4.55-35.326 7.302-10.471 18.813-16.476 31.578-16.476 18.558 0 34.479 13.244 37.856 31.492l19.163 103.536c.754 4.073 4.671 6.759 8.74 6.01 4.072-.754 6.764-4.667 6.01-8.74l-15.74-85.042c-2.169-11.714.958-23.686 8.576-32.844 7.619-9.158 18.821-14.411 30.734-14.411 24.059.122 39.069 20.303 40.182 44.224l10.059 179.475h-56.892l-10.547-56.985c-.755-4.073-4.676-6.76-8.74-6.01-4.072.754-6.764 4.667-6.01 8.74l10.042 54.255zm381.567-172.598-59.317 161.097c-2.533 6.879-9.16 11.501-16.491 11.501h-34.69l37.577-192.979c3.467-17.801 19.145-30.721 37.28-30.721 12.594 0 23.948 5.924 31.152 16.254 7.203 10.329 8.84 23.031 4.489 34.848z"/><path d="m388.015 173.431c-21.466 0-38.93 17.464-38.93 38.931s17.464 38.931 38.93 38.931c1.848 0 3.689-.146 5.511-.405 3.789 2.767 8.451 4.405 13.491 4.405 12.644 0 22.93-10.286 22.93-22.93 0-4.623-1.38-8.928-3.743-12.533.477-2.452.742-4.949.742-7.468 0-21.467-17.464-38.931-38.931-38.931zm-23.93 38.93c0-13.195 10.734-23.931 23.93-23.931 12.379 0 22.593 9.449 23.809 21.513-1.551-.332-3.158-.511-4.807-.511-12.644 0-22.93 10.286-22.93 22.93 0 1.244.103 2.464.295 3.654-11.477-1.755-20.297-11.694-20.297-23.655zm42.932 27.931c-4.372 0-7.93-3.558-7.93-7.93s3.558-7.93 7.93-7.93 7.93 3.558 7.93 7.93-3.558 7.93-7.93 7.93z"/></g></g></svg>