<svg id="Capa_1" enable-background="new 0 0 512 512" height="512" viewBox="0 0 512 512" width="512" xmlns="http://www.w3.org/2000/svg"><g><g><g><path d="m482.607 131.626v347.203c0 3.343-2.71 6.052-6.052 6.052h-463.004c-3.343 0-6.051-2.71-6.051-6.052v-285.729l67.53-67.528h401.525c3.343.001 6.052 2.711 6.052 6.054z" fill="#9ec8fc"/><path d="m476.555 125.573h-24.239c3.343 0 6.052 2.711 6.052 6.053v347.203c0 3.343-2.71 6.052-6.052 6.052h24.239c3.343 0 6.052-2.71 6.052-6.052v-347.203c0-3.343-2.71-6.053-6.052-6.053z" fill="#62a4fb"/><path d="m75.03 125.573-67.53 67.527h61.475c3.343 0 6.055-2.707 6.055-6.05z" fill="#62a4fb"/><g><g><path d="m299.721 200.449c-19.844-21.032-52.404-26.391-78.375-10.88-29.406 17.562-38.973 56.991-21.848 86.653l10.225 17.71c2.175 3.767 6.991 5.057 10.758 2.883l270.397-156.115c13.026-7.521 17.49-24.178 9.969-37.204l-2.21-3.828c-.836-1.447-2.686-1.943-4.134-1.108l-180.122 103.994c-4.787 2.764-10.866 1.916-14.66-2.105zm-62.928 13.972c14.201-8.199 31.864-4.971 42.341 6.832 2.399 2.703 1.707 6.934-1.423 8.741l-47.89 27.649c-3.13 1.807-7.141.291-8.282-3.138-4.983-14.975 1.053-31.885 15.254-40.084z" fill="#d5d9f2"/><path d="m352.6 180.488-38.219 22.066c-4.788 2.764-10.866 1.916-14.66-2.105-19.844-21.032-52.404-26.391-78.375-10.88-29.406 17.562-38.973 56.991-21.848 86.653l10.225 17.71c2.175 3.767 6.991 5.057 10.758 2.883l147.473-85.144zm-74.889 49.506-47.89 27.649c-3.13 1.807-7.141.291-8.282-3.138-4.983-14.974 1.053-31.885 15.254-40.084s31.864-4.971 42.341 6.832c2.4 2.702 1.707 6.934-1.423 8.741z" fill="#5f55ad"/></g><g><path d="m376.003 238.131v-207.986c0-1.671-1.355-3.026-3.026-3.026h-4.42c-15.042 0-27.235 12.194-27.235 27.235v312.228c0 4.349 3.526 7.875 7.875 7.875h20.45c34.251 0 63.613-28 64.12-62.247.447-30.247-20.474-55.766-48.61-62.435-5.38-1.275-9.154-6.115-9.154-11.644zm1.431 106.379c-3.541.726-6.859-1.989-6.859-5.603v-55.299c0-3.614 3.318-6.33 6.859-5.603 15.46 3.172 27.087 16.854 27.087 33.252-.001 16.399-11.628 30.081-27.087 33.253z" fill="#e8eef8"/><path d="m341.322 196.295v170.287c0 4.349 3.526 7.875 7.875 7.875h20.45c34.251 0 63.613-28 64.12-62.247.448-30.247-20.474-55.766-48.61-62.435-5.379-1.275-9.153-6.115-9.153-11.644v-44.131zm36.112 81.71c15.46 3.172 27.087 16.854 27.087 33.252s-11.627 30.081-27.087 33.253c-3.541.727-6.859-1.989-6.859-5.603v-55.299c0-3.614 3.318-6.329 6.859-5.603z" fill="#6a61b2"/></g><circle cx="360.291" cy="194.19" fill="#e9a761" r="27.716"/></g><path d="m36.476 380.885v14c0 3.063 2.367 5.605 5.422 5.824l121.31 8.691v-43.03l-121.31 8.691c-3.055.219-5.422 2.761-5.422 5.824z" fill="#e8eef8"/><path d="m194.56 344.678v86.414h-23.76c-4.193 0-7.591-3.399-7.591-7.591v-71.232c0-4.193 3.399-7.591 7.591-7.591z" fill="#6a61b2"/><path d="m194.56 332.978v109.813c0 4.893 3.967 8.86 8.86 8.86h96.198c4.893 0 8.86-3.967 8.86-8.86v-109.813c0-4.893-3.967-8.86-8.86-8.86h-96.198c-4.893 0-8.86 3.967-8.86 8.86z" fill="#ecb880"/><path d="m299.618 324.118h-19.84c4.893 0 8.86 3.967 8.86 8.86v109.813c0 4.894-3.967 8.86-8.86 8.86h19.84c4.894 0 8.86-3.967 8.86-8.86v-109.813c.001-4.893-3.966-8.86-8.86-8.86z" fill="#e5936a"/></g></g><g><path d="m233.037 207.927c-16.966 9.796-24.797 30.38-18.621 48.945 1.258 3.779 4.115 6.759 7.842 8.175 3.614 1.372 7.745 1.148 11.306-.908l47.891-27.649c7.241-4.182 8.831-13.963 3.281-20.214-12.99-14.635-34.732-18.146-51.699-8.349zm-4.997 42.081c-2.713-11.251 2.315-23.212 12.497-29.091 10.162-5.868 23.04-4.267 31.443 3.724z"/><path d="m507.334 99.754-2.216-3.839c-2.897-5.002-9.337-6.735-14.38-3.847l-45.038 26.004h-62.21v-87.916c0-5.807-4.719-10.53-10.519-10.53h-4.421c-19.155 0-34.739 15.579-34.739 34.729v63.718h-158.386c-4.143 0-7.5 3.357-7.5 7.5s3.357 7.5 7.5 7.5h158.386v37.878c-1.507 1.723-2.856 3.606-4.026 5.633-1.979 3.429-3.304 7.057-4.033 10.74l-15.134 8.735c-1.803 1.042-4.046.731-5.45-.754-22.598-23.954-59.134-29.212-87.667-12.173-15.902 9.495-27.2 24.912-31.81 43.412-4.577 18.365-1.98 37.339 7.308 53.424l10.223 17.714c2.861 4.948 8.025 7.692 13.335 7.692 2.667-.001 5.299-.701 7.668-2.071l109.587-63.272v126.545c0 8.48 6.899 15.38 15.38 15.38h20.45c18.576 0 36.304-7.239 49.92-20.384 13.716-13.242 21.421-30.733 21.697-49.254.236-16.201-5.164-32.118-15.206-44.82-9.873-12.488-23.785-21.372-39.165-25.013-2-.477-3.396-2.267-3.396-4.354v-17.442c4.673-4.101 8.168-9.37 10.155-15.198l81.452-47.024v318.907h-460.099v-276.772h53.973c7.474 0 13.555-6.078 13.555-13.55v-53.977h57.899c4.142 0 7.5-3.36 7.5-7.502s-3.358-7.499-7.5-7.499h-65.399c-1.98 0-3.909.803-5.304 2.197l-67.528 67.527c-1.406 1.411-2.196 3.316-2.196 5.304v285.723c0 7.472 6.078 13.549 13.55 13.549h462.988c7.476 0 13.559-6.078 13.559-13.549v-329.018l4.522-2.611c8.031-4.639 13.778-12.128 16.18-21.088 2.404-8.963 1.173-18.324-3.465-26.354zm-481.728 85.848 41.922-41.921v41.921zm394.116-52.529-36.232 20.919v-20.919zm-76.947 51.011c5.587-9.675 17.937-12.986 27.615-7.399 4.676 2.7 8.021 7.059 9.419 12.275 2.891 10.791-3.501 21.867-14.295 24.759-5.216 1.397-10.664.681-15.34-2.019-9.653-5.575-12.972-17.963-7.399-27.616zm6.036-129.729c0-10.859 8.823-19.697 19.679-19.729v125.309c-6.258-1.508-13.012-1.316-19.679.972zm-132.091 235.962c-.04.023-.138.077-.281.039-.149-.04-.206-.139-.228-.176l-10.221-17.712c-15.131-26.197-6.338-61.21 19.201-76.457 22.247-13.287 51.292-9.254 69.073 9.594 6.204 6.56 16.017 7.976 23.858 3.442l8.422-4.861c1.428 4.827 3.883 9.351 7.268 13.218v5.307zm209.54 21.78c-.442 29.737-26.371 54.859-56.619 54.859h-20.45c-.209 0-.38-.171-.38-.38v-139.085c6.283 2.179 12.943 2.547 19.679.927v9.712c0 9.064 6.137 16.855 14.932 18.948 25.199 5.967 43.215 29.106 42.838 55.019zm70.052-189.873c-1.365 5.093-4.631 9.349-9.193 11.984l-92.276 53.272c-1.353-6.911-4.559-12.857-8.998-17.526l108.522-62.659c2.615 4.551 3.306 9.851 1.945 14.929z"/><path d="m367.931 273.363c-3.092 2.522-4.865 6.257-4.865 10.245v55.298c0 3.988 1.773 7.723 4.865 10.245 2.386 1.945 5.32 2.977 8.33 2.977.888 0 1.782-.09 2.671-.272 19.167-3.933 33.078-21.006 33.078-40.598s-13.912-36.665-33.078-40.598c-3.903-.803-7.912.184-11.001 2.703zm29.079 37.894c0 11.757-7.846 22.092-18.945 25.368v-50.735c11.1 3.274 18.945 13.61 18.945 25.367z"/><path d="m41.36 367.578c-6.944.497-12.385 6.341-12.385 13.303v14c0 6.964 5.44 12.807 12.385 13.304l114.343 8.191v7.12c0 8.321 6.77 15.09 15.091 15.09h16.26v4.199c0 9.021 7.339 16.36 16.36 16.36h96.195c9.021 0 16.36-7.339 16.36-16.36v-14.397c0-4.142-3.357-7.5-7.5-7.5s-7.5 3.357-7.5 7.5v14.397c0 .75-.61 1.36-1.36 1.36h-96.195c-.75 0-1.36-.61-1.36-1.36v-109.81c0-.75.61-1.36 1.36-1.36h96.195c.75 0 1.36.61 1.36 1.36v60.414c0 4.143 3.357 7.5 7.5 7.5s7.5-3.357 7.5-7.5v-60.414c0-9.021-7.339-16.36-16.36-16.36h-96.195c-9.021 0-16.36 7.339-16.36 16.36v4.199h-16.26c-8.321 0-15.091 6.77-15.091 15.091v7.119zm2.616 25.757v-10.907l111.728-8.005v26.916zm126.727-41.068c0-.051.041-.092.092-.092h16.26v71.413h-16.26c-.051 0-.092-.041-.092-.091z"/></g></g></svg>