<?xml version="1.0"?>
<svg xmlns="http://www.w3.org/2000/svg" xmlns:xlink="http://www.w3.org/1999/xlink" xmlns:svgjs="http://svgjs.com/svgjs" version="1.1" width="512" height="512" x="0" y="0" viewBox="0 0 512 512" style="enable-background:new 0 0 512 512" xml:space="preserve" class=""><g><g xmlns="http://www.w3.org/2000/svg"><g><g><path d="m410.332 216.629c-5.616-44.907-43.928-79.653-90.357-79.653-14.99 0-29.134 3.623-41.604 10.04-19.681-23.297-49.105-38.097-81.99-38.097-59.255 0-107.291 48.036-107.291 107.291 0 2.801.108 5.576.319 8.322-1.378-.094-2.763-.159-4.165-.159-33.427 0-60.526 27.098-60.526 60.526s27.098 60.526 60.526 60.526c25.173 0 246.109 47.344 292.539 47.344 50.296 0 91.068-40.773 91.068-91.068-.002-38.826-24.301-71.971-58.519-85.072z" fill="#dac987" data-original="#d5d9f2" class=""/><path d="m410.332 216.629c-5.616-44.907-43.928-79.653-90.357-79.653-4.913 0-9.733.396-14.435 1.146 39.776 6.296 70.99 38.322 76.016 78.507 34.218 13.101 58.518 46.246 58.518 85.071 0 45.767-33.763 83.644-77.74 90.094 6.263.629 11.491.974 15.448.974 50.296 0 91.068-40.773 91.068-91.068-.001-38.825-24.3-71.97-58.518-85.071z" fill="#b6aa66" data-original="#bfc5eb" class=""/><path d="m212.979 359.152h-136.792l-21.517-158.807h179.826z" fill="#7cbce5" data-original="#6a61b2" class=""/><path d="m210.137 200.345-21.517 158.807h24.359l21.517-158.807z" fill="#6ab0e5" data-original="#514898" class=""/><g><path d="m353.639 257.48-69.845-40.325 17.858-30.931c7.155-12.393 23.001-16.639 35.394-9.484l24.967 14.415c12.393 7.155 16.639 23.001 9.484 35.394z" fill="#65adb1" data-original="#e175a5" class=""/></g><path d="m180.345 262.245-21.768-4.895-11.382-19.19c-1.176-1.983-4.047-1.983-5.223 0l-11.382 19.19-21.768 4.895c-2.25.506-3.137 3.236-1.614 4.967l14.734 16.755-2.071 22.216c-.214 2.296 2.108 3.983 4.225 3.07l20.488-8.835 20.488 8.835c2.117.913 4.44-.774 4.225-3.07l-2.071-22.216 14.734-16.755c1.522-1.731.635-4.461-1.615-4.967z" fill="#ecb880" data-original="#ecb880" class=""/><path d="m45.304 164.009h198.558c3.862 0 6.993 3.131 6.993 6.993v27.296c0 3.862-3.131 6.993-6.993 6.993h-198.558c-3.862 0-6.993-3.131-6.993-6.993v-27.296c0-3.862 3.131-6.993 6.993-6.993z" fill="#65adb1" data-original="#e175a5" class=""/><path d="m243.862 164.009h-24.359c3.862 0 6.993 3.131 6.993 6.993v27.296c0 3.862-3.131 6.993-6.993 6.993h24.359c3.862 0 6.993-3.131 6.993-6.993v-27.296c0-3.862-3.131-6.993-6.993-6.993z" fill="#6aa79f" data-original="#ca59a6" class=""/><path d="m7.5 320.909v21.856c0 13.807 11.193 25 25 25h447c13.807 0 25-11.193 25-25v-21.856c0-13.807-11.193-25-25-25h-447c-13.807 0-25 11.193-25 25z" fill="#e27f86" data-original="#e27f86" class=""/><path d="m479.5 295.909h-28.777c13.807 0 25 11.193 25 25v21.856c0 13.807-11.193 25-25 25h28.777c13.807 0 25-11.193 25-25v-21.856c0-13.807-11.193-25-25-25z" fill="#cd5668" data-original="#cd5668" class=""/><path d="m49.905 442.378v-74.614h412.19v74.614c0 5.523-4.477 10-10 10h-392.19c-5.523 0-10-4.477-10-10z" fill="#ecb880" data-original="#ecb880" class=""/><path d="m433.318 367.765v74.614c0 5.523-4.477 10-10 10h28.777c5.523 0 10-4.477 10-10v-74.614z" fill="#e5936a" data-original="#e5936a" class=""/></g></g><path d="m479.5 288.409h-4.042c-2.245-16.624-8.681-32.354-18.821-45.854-2.487-3.312-7.19-3.981-10.501-1.492-3.313 2.488-3.98 7.189-1.493 10.501 8.183 10.894 13.509 23.502 15.643 36.845h-230.151l10.247-75.618h3.481c7.991 0 14.493-6.501 14.493-14.493v-27.296c0-7.992-6.502-14.493-14.493-14.493h-127.447c18.693-25.005 48.272-40.089 79.964-40.089 29.441 0 57.237 12.917 76.261 35.439 2.255 2.671 6.056 3.429 9.162 1.829 23.976-12.343 52.5-12.273 76.47.12l-11.487 19.896-5.99-3.458c-15.951-9.211-36.428-3.726-45.639 12.229l-14.108 24.436-9.897-5.714c-3.59-2.072-8.176-.842-10.245 2.745-2.071 3.587-.842 8.174 2.745 10.245l105.146 60.706c3.581 2.067 8.17.85 10.245-2.745 2.071-3.587.842-8.174-2.745-10.245l-12.412-7.166 14.107-24.436c9.232-15.991 3.765-36.405-12.229-45.639l-5.987-3.457 11.163-19.335c17.133 13.193 29.102 32.901 31.948 55.691.344 2.752 2.178 5.089 4.77 6.078 4.535 1.73 9.001 3.913 13.271 6.487 1.211.73 2.546 1.077 3.864 1.077 2.542 0 5.022-1.293 6.431-3.63 2.138-3.547.995-8.157-2.553-10.295-3.736-2.252-7.606-4.252-11.548-5.971-4.395-25.717-18.698-47.792-38.632-62.517l18.766-32.503c4.313 1.508 8.77 2.25 13.194 2.25 13.914 0 27.467-7.217 34.91-20.108 1.31-2.268 2.952-7.034-.763-13.469-7.974-13.81-40.929-32.837-56.875-32.837-7.43 0-10.737 3.806-12.047 6.074-9.943 17.222-5.643 38.401 8.583 50.603l-18.475 31.999c-26.912-14.164-58.459-14.893-85.554-2.969-21.689-23.208-51.929-36.407-83.852-36.407-40.105 0-77.263 21-98.046 55.089h-53.03c-7.991 0-14.493 6.501-14.493 14.493v27.296c0 7.992 6.502 14.493 14.493 14.493h3.485l1.834 13.537c-20.732 12.214-33.401 34.184-33.401 58.569 0 2.389.133 4.774.38 7.141-10.443 5.412-17.6 16.317-17.6 28.868v21.856c0 17.92 14.579 32.5 32.5 32.5h9.905v67.113c0 9.649 7.851 17.5 17.5 17.5h49.678c4.143 0 7.5-3.358 7.5-7.5s-3.357-7.5-7.5-7.5h-49.678c-1.379 0-2.5-1.122-2.5-2.5v-67.113h397.189v67.113c0 1.378-1.121 2.5-2.5 2.5h-307.511c-4.143 0-7.5 3.358-7.5 7.5s3.357 7.5 7.5 7.5h307.512c9.649 0 17.5-7.851 17.5-17.5v-67.113h9.905c17.921 0 32.5-14.58 32.5-32.5v-21.856c0-17.92-14.579-32.5-32.5-32.5zm-91.588-221.307c3.081.056 11.438 2.161 23.733 9.259 12.294 7.098 18.295 13.283 19.885 15.924-7.273 10.953-21.929 14.535-33.491 7.954-.044-.026-.084-.057-.129-.083s-.093-.046-.138-.071c-11.667-6.829-15.646-21.355-9.86-32.983zm-22.91 155.697-14.107 24.436-56.855-32.825 14.108-24.436c5.075-8.791 16.357-11.814 25.148-6.738l12.453 7.19c.011.006.021.014.031.02l.025.012 12.458 7.193c8.813 5.087 11.827 16.335 6.739 25.148zm-319.191-25.007v-26.283h197.545v26.283zm143.891 64.169c-1.156-3.572-4.03-6.202-7.709-7.039l-18.614-4.181-9.732-16.399c-1.91-3.229-5.29-5.16-9.043-5.167h-.021c-3.75 0-7.134 1.922-9.064 5.159l-9.729 16.407-18.626 4.184c-3.671.832-6.551 3.466-7.706 7.047-1.152 3.576-.354 7.392 2.119 10.188l12.598 14.333-.178 1.916h-39.825l-10.247-75.618h161.321l-10.247 75.618h-39.823l-.178-1.915 12.597-14.333c2.474-2.816 3.262-6.63 2.107-10.2zm-29.939 22.703.348 3.745h-31.051l.348-3.745c.191-2.054-.473-4.096-1.834-5.646l-9.766-11.111 14.425-3.24c2.015-.453 3.754-1.716 4.808-3.492l7.541-12.716 7.549 12.719c1.053 1.775 2.792 3.037 4.806 3.49l14.425 3.24-9.765 11.111c-1.362 1.549-2.025 3.591-1.834 5.645zm-106.898-41.79 6.171 45.535s-26.636.004-26.687.004c-.076-1.168-.129-2.339-.129-3.513 0-16.791 7.707-32.112 20.645-42.026zm444.135 99.891c0 9.649-7.851 17.5-17.5 17.5h-447c-9.649 0-17.5-7.851-17.5-17.5v-21.856c0-9.649 7.851-17.5 17.5-17.5h447c9.649 0 17.5 7.851 17.5 17.5z" fill="#000000" data-original="#000000" class=""/></g></g></svg>
