<svg id="Capa_1" enable-background="new 0 0 512 512" height="512" viewBox="0 0 512 512" width="512" xmlns="http://www.w3.org/2000/svg"><g><g><g><path d="m313.88 278.216c0-9.518 7.716-17.234 17.233-17.234h137.89c9.518 0 17.233 7.716 17.233 17.233 0 9.518-7.716 17.233-17.233 17.233h-137.89c-9.518.001-17.233-7.714-17.233-17.232z" fill="#9ec8fc"/><path d="m337.608 243.749c0-9.518 7.716-17.234 17.233-17.234h90.434c9.518 0 17.233 7.716 17.233 17.233 0 9.518-7.716 17.233-17.233 17.233h-90.434c-9.517.001-17.233-7.714-17.233-17.232z" fill="#e175a5"/><path d="m469.004 260.982h-16.57c9.518 0 17.234 7.716 17.234 17.234s-7.716 17.234-17.234 17.234h16.57c9.518 0 17.234-7.716 17.234-17.234s-7.717-17.234-17.234-17.234z" fill="#62a4fb"/><path d="m445.275 226.515h-16.57c9.518 0 17.234 7.716 17.234 17.233 0 9.518-7.716 17.233-17.234 17.233h16.57c9.518 0 17.233-7.716 17.233-17.233.001-9.517-7.715-17.233-17.233-17.233z" fill="#ca59a6"/><path d="m46.687 353.019h-34.041c-2.842 0-5.146-2.304-5.146-5.146v-4.626c0-21.643 17.545-39.187 39.187-39.187z" fill="#a4ace3"/><path d="m140.815 181.282v79.7h-89.066c-2.795 0-5.061 2.266-5.061 5.061v86.975h209.702c2.795 0 5.061-2.266 5.061-5.061v-166.675z" fill="#dddbee"/><path d="m69.4 203.907v57.076h37.318v-57.076c0-3.587-2.908-6.495-6.495-6.495h-24.328c-3.587 0-6.495 2.907-6.495 6.495z" fill="#77d1b3"/><path d="m243.095 181.282v166.675c0 2.795-2.266 5.061-5.061 5.061h18.355c2.795 0 5.061-2.266 5.061-5.061v-166.675z" fill="#bfc5eb"/><path d="m171.436 217.212v37.374c0 3.533 2.864 6.396 6.396 6.396h46.602c3.533 0 6.396-2.864 6.396-6.396v-37.374c0-3.533-2.864-6.396-6.396-6.396h-46.602c-3.533 0-6.396 2.863-6.396 6.396z" fill="#e175a5"/><path d="m140.815 181.282h120.635l-47.623-45.2c-7.116-6.754-18.273-6.754-25.389 0z" fill="#6a61b2"/><path d="m213.827 136.082c-6.03-5.724-14.956-6.577-21.872-2.599 1.245.716 2.432 1.569 3.517 2.599l47.623 45.2h18.355z" fill="#514898"/><path d="m295.617 300.51v47.447c0 2.795 2.266 5.061 5.061 5.061h198.761c2.795 0 5.061-2.266 5.061-5.061v-47.447c0-2.795-2.266-5.061-5.061-5.061h-198.761c-2.795 0-5.061 2.266-5.061 5.061z" fill="#6a61b2"/><path d="m499.439 295.449h-17.083c2.795 0 5.061 2.266 5.061 5.061v47.447c0 2.795-2.266 5.061-5.061 5.061h17.083c2.795 0 5.061-2.266 5.061-5.061v-47.447c0-2.795-2.266-5.061-5.061-5.061z" fill="#514898"/><g fill="#5f55ad"><ellipse cx="100.902" cy="353.019" rx="27.965" ry="27.965" transform="matrix(.894 -.447 .447 .894 -147.223 82.394)"/><ellipse cx="207.236" cy="353.019" rx="27.965" ry="27.965" transform="matrix(.894 -.447 .447 .894 -135.997 129.948)"/></g><g fill="#77d1b3"><ellipse cx="346.892" cy="353.019" rx="27.965" ry="27.965" transform="matrix(.894 -.447 .447 .894 -121.253 192.404)"/><ellipse cx="453.225" cy="353.019" rx="27.965" ry="27.965" transform="matrix(.894 -.447 .447 .894 -110.027 239.958)"/></g></g></g><g><path d="m177.832 203.317c-7.662 0-13.896 6.234-13.896 13.896v37.375c0 7.662 6.234 13.896 13.896 13.896h46.602c7.662 0 13.896-6.234 13.896-13.896v-37.375c0-7.662-6.234-13.896-13.896-13.896zm45.498 50.167h-44.394v-35.167h44.394z"/><path d="m499.44 287.952h-7.703c1.285-2.989 1.999-6.28 1.999-9.734 0-13.638-11.096-24.733-24.733-24.733h-.994c1.285-2.989 1.999-6.279 1.999-9.733 0-13.638-11.096-24.733-24.733-24.733h-37.715v-25.056c0-4.142-3.357-7.5-7.5-7.5s-7.5 3.358-7.5 7.5v25.056h-37.718c-13.638 0-24.733 11.095-24.733 24.733 0 3.454.714 6.744 1.999 9.733h-.994c-13.638 0-24.733 11.095-24.733 24.733 0 3.455.714 6.745 1.999 9.734h-7.7c-6.926 0-12.56 5.634-12.56 12.56v25.478h-19.17v-52.488c0-4.142-3.357-7.5-7.5-7.5s-7.5 3.358-7.5 7.5v72.02h-12.055c-3.452-15.965-17.677-27.966-34.659-27.966s-31.208 12.001-34.66 27.965h-37.013c-3.452-15.965-17.678-27.965-34.66-27.965-16.981 0-31.207 12.001-34.658 27.965h-12.056v-77.04c114.28.005-27.14 0 86.621 0 4.142 0 7.501-3.358 7.501-7.5v-72.199h105.639v49.719c0 4.142 3.357 7.5 7.5 7.5s7.5-3.358 7.5-7.5v-57.219c0-1.965-.809-3.984-2.337-5.44l-47.623-45.199c-10.013-9.504-25.701-9.504-35.715 0l-47.625 45.199c-1.449 1.377-2.338 3.383-2.338 5.44v72.199h-19.094v-49.573c0-7.717-6.278-13.995-13.995-13.995h-24.328c-7.717 0-13.995 6.278-13.995 13.995v6.346c0 4.142 3.358 7.5 7.5 7.5s7.5-3.358 7.5-7.5v-5.341h22.317v48.568h-22.317v-8.227c0-4.142-3.358-7.5-7.5-7.5s-7.5 3.358-7.5 7.5v8.227h-10.15c-6.926 0-12.56 5.634-12.56 12.56v31.13c-22.191 3.599-39.19 22.886-39.19 46.077v4.626c0 6.973 5.673 12.646 12.646 12.646h53.598c3.452 15.964 17.677 27.964 34.658 27.964 16.983 0 31.208-12 34.66-27.964h37.013c3.452 15.964 17.678 27.964 34.66 27.964s31.207-12 34.659-27.964h14.495c6.925 0 12.56-5.634 12.56-12.56v-6.972h19.17v6.972c0 6.926 5.634 12.56 12.56 12.56h11.554c3.452 15.964 17.676 27.964 34.657 27.964 16.983 0 31.209-12 34.661-27.964h37.014c3.452 15.964 17.677 27.964 34.659 27.964 16.981 0 31.207-12 34.658-27.964h11.557c6.926 0 12.56-5.634 12.56-12.56v-47.45c.001-6.924-5.633-12.558-12.559-12.558zm-305.839-146.429c4.224-4.009 10.839-4.009 15.063 0l33.989 32.259h-83.043zm-178.601 201.725c0-14.889 10.325-27.406 24.189-30.783v33.056h-24.189zm85.902 30.237c-11.284 0-20.463-9.18-20.463-20.464 0-11.285 9.18-20.465 20.463-20.465 11.285 0 20.466 9.181 20.466 20.465s-9.181 20.464-20.466 20.464zm106.334 0c-11.285 0-20.465-9.18-20.465-20.464 0-11.285 9.181-20.465 20.465-20.465s20.464 9.181 20.464 20.465-9.18 20.464-20.464 20.464zm137.872-129.735c0-5.367 4.366-9.733 9.733-9.733 92.981 0 32.09.006 90.434 0 5.367 0 9.733 4.366 9.733 9.733s-4.366 9.733-9.733 9.733h-90.434c-5.366.001-9.733-4.365-9.733-9.733zm-13.995 44.201c-5.367 0-9.733-4.366-9.733-9.733s4.366-9.733 9.733-9.733h137.891c5.367 0 9.733 4.366 9.733 9.733s-4.366 9.733-9.733 9.733l-.019.001h-137.852zm15.779 85.534c-11.283 0-20.463-9.18-20.463-20.464 0-11.285 9.18-20.465 20.463-20.465 11.285 0 20.467 9.181 20.467 20.465-.001 11.284-9.182 20.464-20.467 20.464zm106.334 0c-11.284 0-20.465-9.18-20.465-20.464 0-11.285 9.181-20.465 20.465-20.465s20.464 9.181 20.464 20.465c-.001 11.284-9.18 20.464-20.464 20.464zm43.774-27.964h-9.116c-3.452-15.965-17.677-27.966-34.658-27.966-16.982 0-31.208 12.001-34.659 27.965h-37.013c-3.452-15.965-17.678-27.965-34.661-27.965-16.982 0-31.206 12.001-34.658 27.966h-9.114v-42.57h193.879z"/></g></g></svg>