<svg id="Capa_1" enable-background="new 0 0 512 512" height="512" viewBox="0 0 512 512" width="512" xmlns="http://www.w3.org/2000/svg"><g><g><g><g><g fill="#61aab8"><ellipse cx="50.717" cy="147.17" rx="26.451" ry="26.499" transform="matrix(1 -.016 .016 1 -2.287 .808)"/><ellipse cx="169.421" cy="103.965" rx="26.451" ry="26.499" transform="matrix(.776 -.631 .631 .776 -27.623 130.158)"/></g><path d="m198.993 200.248c-5.005-2.925-7.303-8.958-5.255-14.382 5.325-14.102 5.912-29.642.556-44.357-12.711-34.923-54.019-51.95-92.264-38.03s-58.944 53.515-46.233 88.439c5.356 14.715 15.794 26.242 28.938 33.622 5.055 2.838 7.173 8.937 5.218 14.395-5.61 15.672-6.002 33.257.108 50.045 14.019 38.518 56.952 58.253 95.892 44.08s59.143-56.888 45.124-95.405c-6.109-16.788-17.713-30.008-32.084-38.407z" fill="#77d1b3"/><path d="m125.156 167.017c-10.039 3.654-17.524 8.409-14.188 17.575 3.336 9.167 14.179 13.636 24.218 9.982s15.472-14.047 12.135-23.214c-3.336-9.165-12.127-7.996-22.165-4.343z" fill="#5595a2"/></g><path d="m369.431 69.75c-11.328-2.234-22.377-2.453-32.426-.969-4.98.735-9.702-2.686-10.255-7.689-.388-3.506-1.262-7.145-2.658-10.767-6.022-15.623-19.464-24.988-30.023-20.918s-14.237 20.035-8.215 35.658c.799 2.072 1.729 4.032 2.766 5.866 1.412 2.497 1.076 5.603-.695 7.859-29.118 37.084-58.71 104.442-54.402 193.743l76.976 25.474c-2.717-56.325 8.063-103.907 23.694-140.69 5.328 2.075 11.017 3.747 16.993 4.925 37.542 7.405 72.06-7.296 77.098-32.836 5.04-25.543-21.31-52.251-58.853-59.656z" fill="#ecb880"/><path d="m369.431 69.75c-10.841-2.138-21.416-2.412-31.114-1.133 2.37.295 4.755.659 7.156 1.133 37.542 7.406 63.892 34.114 58.854 59.654-4.723 23.943-35.268 33.019-69.999 27.96 5.289 2.051 10.932 3.707 16.858 4.876 37.542 7.405 72.061-7.296 77.099-32.836 5.039-25.541-21.311-52.249-58.854-59.654z" fill="#e38523"/><path d="m334.18 157.34c-6.07 14.3-11.41 30.22-15.51 47.66-2.76 11.75-4.97 24.19-6.44 37.28-1.98 17.45-2.68 36.05-1.73 55.72l-24.24-8.02c-.46-17.95.43-35.56 2.38-52.36 1.51-13.03 3.66-25.58 6.32-37.42 3.83-17.13 8.73-32.79 14.26-46.3.61-1.47 2.26-2.21 3.75-1.68 4.56 1.63 9.36 2.96 14.36 3.94 2.3.46 4.58.85 6.85 1.18z" fill="#e5936a"/><path d="m407.046 86.022c-21.947 4.006-38.588 23.21-38.588 46.314 0 12.009 4.502 22.963 11.902 31.282 24.829-2.698 44.246-15.557 47.926-34.214 3.072-15.577-5.544-31.58-21.24-43.382z" fill="#e8eef8"/><path d="m407.048 86.024c-5.975 1.091-11.553 3.313-16.513 6.429 10.867 10.858 16.338 24.052 13.793 36.951-2.704 13.71-13.883 22.536-29.458 26.634 1.582 2.708 3.419 5.25 5.491 7.58 21.426-2.328 43.831-13.445 47.925-34.214 3.361-17.039-7.225-32.842-21.238-43.38z" fill="#d5d9f2"/><path d="m396.952 225.356h-23.958c2.761 0 5 2.239 5 5v177.08h23.958v-177.08c0-2.762-2.239-5-5-5z" fill="#df646e"/><path d="m396.952 225.356h-384.452c-2.761 0-5 2.239-5 5v75.308 35 61.772c0 2.761 2.239 5 5 5h389.452v-177.08c0-2.762-2.239-5-5-5z" fill="#e27f86"/><path d="m396.952 225.356h-25.336c2.761 0 5 2.239 5 5v177.08h25.336v-177.08c0-2.762-2.239-5-5-5z" fill="#cd5668"/><g><circle cx="95.61" cy="429.733" fill="#9d6c6c" r="53.813"/><circle cx="95.61" cy="429.733" fill="#f4dabd" r="20.534"/><g><circle cx="313.842" cy="429.733" fill="#9d6c6c" r="53.813"/><circle cx="313.842" cy="429.733" fill="#f4dabd" r="20.534"/></g></g><path d="m442.113 372.559h-40.161v34.877h40.161c9.631 0 17.438-7.807 17.438-17.438 0-9.632-7.807-17.439-17.438-17.439z" fill="#ecb880"/></g></g><g><path d="m506.374 117.549c-4.009-1.036-8.101 1.376-9.138 5.386l-62.546 242.113h-25.241v-134.698c0-6.893-5.607-12.5-12.5-12.5h-73.369c3.488-17.794 8.46-34.932 14.853-51.121 3.693 1.147 7.475 2.104 11.304 2.859 35.73 7.054 79.214-4.817 85.91-38.749 2.928-14.862-2.572-30.254-15.486-43.341-12.162-12.324-29.663-21.244-49.284-25.117-11.923-2.346-23.684-2.692-34.969-1.03-.768.114-1.62-.326-1.705-1.101-.474-4.253-1.522-8.506-3.116-12.638-3.443-8.936-9.133-16.499-16.018-21.295-7.664-5.339-16.302-6.765-23.696-3.916-14.645 5.645-20.145 25.562-12.522 45.343.878 2.281 1.911 4.489 3.063 6.553-9.189 11.718-17.602 25.244-25.006 40.206-1.837 3.712-.316 8.211 3.396 10.048 3.714 1.837 8.212.317 10.048-3.396 6.978-14.102 14.877-26.8 23.482-37.751 3.686-4.707 4.204-11.054 1.307-16.19-.866-1.525-1.638-3.16-2.293-4.861-4.833-12.543-1.813-23.745 3.92-25.955 3.659-1.41 7.665.79 9.728 2.228 4.39 3.057 8.252 8.299 10.597 14.383 1.131 2.933 1.872 5.927 2.202 8.891.482 4.389 2.687 8.301 6.207 11.017 3.554 2.741 8.15 3.932 12.602 3.273 9.446-1.393 19.779-1.079 29.874.908 7.75 1.53 15.07 3.962 21.706 7.139-17.304 9.297-28.726 27.539-28.726 48.09 0 8.483 1.975 16.76 5.682 24.234-4.603-.207-9.289-.759-13.997-1.688-5.416-1.069-10.71-2.601-15.736-4.554-3.771-1.464-8.034.329-9.618 4.057-8.457 19.894-14.827 41.221-18.982 63.474h-65.624c2.587-23.014 7.58-45.237 14.889-66.167 1.365-3.911-.698-8.187-4.608-9.553-3.912-1.369-8.188.697-9.553 4.608-7.708 22.072-12.961 45.489-15.664 69.716-6.595-9.157-15.129-16.934-24.963-22.685-1.904-1.116-2.757-3.326-2.024-5.263 6.2-16.444 6.4-33.586.58-49.571-1.639-4.502-3.721-8.764-6.186-12.766 10.541-12.22 11.153-30.663.617-43.631-11.83-14.544-33.268-16.77-47.79-4.966-4.592 3.734-8.076 8.548-10.19 13.96-12.699-1.293-25.789.328-38.323 4.892-12.761 4.645-23.73 11.94-32.446 20.916-5.103-2.8-10.875-4.255-16.826-4.177-18.723.295-33.716 15.784-33.421 34.527.263 16.714 12.595 30.46 28.537 33.035 2.057 14.185 8.328 27.003 17.662 37.126h-50.474c-6.893 0-12.5 5.607-12.5 12.5v75.3c0 4.142 3.358 7.5 7.5 7.5s7.5-3.358 7.5-7.5v-72.8h379.449v167.079h-27.047c-10.49-18.783-30.562-31.519-53.562-31.519-22.999 0-43.071 12.736-53.561 31.519h-111.108c-10.49-18.783-30.562-31.519-53.562-31.519-22.999 0-43.071 12.736-53.561 31.519h-27.048v-59.28c0-4.142-3.358-7.5-7.5-7.5s-7.5 3.358-7.5 7.5v61.78c0 6.893 5.607 12.5 12.5 12.5h23.611c-1.179 4.74-1.815 9.693-1.815 14.793 0 33.808 27.505 61.313 61.313 61.313s61.313-27.505 61.313-61.313c0-5.1-.636-10.053-1.815-14.793h99.236c-1.179 4.74-1.815 9.693-1.815 14.793 0 33.808 27.505 61.313 61.312 61.313 33.808 0 61.313-27.505 61.313-61.313 0-5.1-.636-10.053-1.815-14.793h28.61c.029 0 .058-.004.087-.004h40.076c13.751 0 24.938-11.187 24.938-24.938 0-11.045-7.221-20.431-17.188-23.699l61.897-239.601c1.038-4.012-1.373-8.103-5.384-9.139zm-101.162-23.437c10.222 8.568 18.285 20.796 15.718 33.826-3.2 16.214-20.939 25.035-37.372 27.698-4.922-6.747-7.601-14.89-7.601-23.31 0-18.032 12.123-33.612 29.255-38.214zm-247.772-4.901c8.105-6.59 20.078-5.336 26.688 2.79 5.22 6.425 5.532 15.248 1.446 21.917-9.097-9.279-20.44-15.741-32.644-19.387 1.149-2.017 2.67-3.824 4.51-5.32zm-125.671 58.242c-.165-10.474 8.206-19.129 18.651-19.293 2.377-.029 4.722.388 6.919 1.208-7.161 10.857-11.543 23.17-12.542 35.821-7.447-2.473-12.898-9.443-13.028-17.736zm31.078 41.892c-11.276-30.981 7.452-66.343 41.747-78.827 33.2-12.084 70.993 1.53 82.647 33.548 4.577 12.569 4.397 26.107-.517 39.14-3.327 8.793.237 18.678 8.479 23.508 5.229 3.057 9.984 6.83 14.164 11.135h-122.885c-11.152-6.8-19.308-16.615-23.635-28.504zm32.762 286.69c-25.537 0-46.313-20.776-46.313-46.313s20.776-46.312 46.313-46.312 46.313 20.776 46.313 46.312c0 25.537-20.776 46.313-46.313 46.313zm218.232 0c-25.537 0-46.312-20.776-46.312-46.313s20.775-46.312 46.312-46.312 46.313 20.776 46.313 46.312c0 25.537-20.776 46.313-46.313 46.313zm128.271-76.11h-32.663v-19.877h32.663c5.48 0 9.938 4.458 9.938 9.938 0 5.481-4.458 9.939-9.938 9.939z"/><path d="m96.008 155.239c-1.417-3.893-5.722-5.901-9.613-4.482-3.892 1.416-5.899 5.721-4.482 9.613l1.041 2.858c1.108 3.045 3.984 4.937 7.048 4.937.852 0 1.718-.146 2.565-.455 3.892-1.416 5.899-5.721 4.482-9.613z"/><path d="m140.959 142.117c1.108 3.045 3.984 4.936 7.048 4.936.852 0 1.718-.146 2.565-.455 3.892-1.417 5.899-5.721 4.482-9.613l-1.041-2.858c-1.417-3.892-5.722-5.902-9.613-4.482-3.892 1.417-5.899 5.721-4.482 9.613z"/><path d="m139.517 156.911c-4.613-.473-9.833.467-16.926 3.049s-11.697 5.217-14.927 8.544c-4.938 5.088-6.268 11.709-3.744 18.643 2.343 6.438 7.239 11.47 13.785 14.168 6.435 2.653 13.56 2.658 20.046.297 13.909-5.062 21.363-19.788 16.618-32.827-2.524-6.933-7.799-11.15-14.852-11.874zm-6.897 30.607c-3.093 1.126-6.359 1.101-9.199-.07-2.602-1.072-4.522-3.001-5.406-5.43-.699-1.92-.257-2.376.412-3.066 1.508-1.553 4.635-3.201 9.293-4.896 4.127-1.502 7.308-2.261 9.478-2.261.279 0 .542.013.788.038.956.098 1.587.163 2.287 2.083 1.917 5.267-1.517 11.368-7.653 13.602z"/><path d="m341.468 105.975c4.143 0 7.5-3.358 7.5-7.5v-3.31c0-4.142-3.357-7.5-7.5-7.5s-7.5 3.358-7.5 7.5v3.31c0 4.142 3.358 7.5 7.5 7.5z"/><path d="m95.609 401.689c-15.458 0-28.034 12.576-28.034 28.033 0 15.458 12.576 28.034 28.034 28.034s28.034-12.576 28.034-28.034c0-15.457-12.576-28.033-28.034-28.033zm0 41.068c-7.187 0-13.034-5.847-13.034-13.034s5.847-13.033 13.034-13.033 13.034 5.847 13.034 13.033-5.847 13.034-13.034 13.034z"/><path d="m313.841 401.689c-15.458 0-28.033 12.576-28.033 28.033 0 15.458 12.575 28.034 28.033 28.034s28.034-12.576 28.034-28.034c0-15.457-12.576-28.033-28.034-28.033zm0 41.068c-7.186 0-13.033-5.847-13.033-13.034s5.847-13.033 13.033-13.033c7.187 0 13.034 5.847 13.034 13.033s-5.847 13.034-13.034 13.034z"/></g></g></svg>